<svg xmlns="http://www.w3.org/2000/svg" xmlns:xlink="http://www.w3.org/1999/xlink" width="73" height="73" viewBox="0 0 73 73">
  <defs>
    <clipPath id="clip-path">
      <rect id="Rectángulo_404452" data-name="Rectángulo 404452" width="65.127" height="69.654" fill="none"/>
    </clipPath>
    <clipPath id="clip-path-2">
      <rect id="Rectángulo_404451" data-name="Rectángulo 404451" width="65.128" height="69.654" fill="none"/>
    </clipPath>
    <clipPath id="clip-path-4">
      <rect id="Rectángulo_404450" data-name="Rectángulo 404450" width="49.155" height="54.986" fill="none"/>
    </clipPath>
  </defs>
  <g id="Grupo_1111067" data-name="Grupo 1111067" transform="translate(-659.051 -3049)">
    <path id="Trazado_896629" data-name="Trazado 896629" d="M36.5,0A36.5,36.5,0,1,1,0,36.5,36.5,36.5,0,0,1,36.5,0Z" transform="translate(659.051 3049)" fill="#e2dacc"/>
    <g id="Grupo_1111066" data-name="Grupo 1111066" transform="translate(663.051 3050)">
      <g id="Grupo_1111065" data-name="Grupo 1111065" clip-path="url(#clip-path)">
        <g id="Grupo_1111064" data-name="Grupo 1111064" transform="translate(0 0)">
          <g id="Grupo_1111063" data-name="Grupo 1111063" clip-path="url(#clip-path-2)">
            <g id="Grupo_1111059" data-name="Grupo 1111059" transform="translate(0 0)" opacity="0.3" style="mix-blend-mode: multiply;isolation: isolate">
              <g id="Grupo_1111058" data-name="Grupo 1111058">
                <g id="Grupo_1111057" data-name="Grupo 1111057" clip-path="url(#clip-path)">
                  <path id="Trazado_897727" data-name="Trazado 897727" d="M49.717,15.912s-7.688-30.446-36.576-2.835,4.445,50,9.7,50.623,30.973,8.69,37.237-31.958A9.851,9.851,0,0,0,58.8,24.96c-2.065-3.4-4.951,2.282-6.645-2.223C52.159,22.738,49.228,17.669,49.717,15.912Z" transform="translate(1.699 1.699)" fill="none" stroke="#f2b97b" stroke-miterlimit="10" stroke-width="3"/>
                </g>
              </g>
            </g>
            <path id="Trazado_897728" data-name="Trazado 897728" d="M49.717,15.912s-7.688-30.446-36.576-2.835,4.445,50,9.7,50.623,30.973,8.69,37.237-31.958A9.851,9.851,0,0,0,58.8,24.96c-2.065-3.4-4.951,2.282-6.645-2.223,0,0-2.931-5.068-2.442-6.826" transform="translate(1.699 1.699)" fill="#ffc5a8"/>
            <g id="Grupo_1111062" data-name="Grupo 1111062" transform="translate(9.229 7.673)" opacity="0.3" style="mix-blend-mode: multiply;isolation: isolate">
              <g id="Grupo_1111061" data-name="Grupo 1111061">
                <g id="Grupo_1111060" data-name="Grupo 1111060" clip-path="url(#clip-path-4)">
                  <path id="Trazado_897729" data-name="Trazado 897729" d="M50.908,27.935l-.86,2.383-5.736-1.049s-1.992.482-.459,1.926,5.307,2.242,5.307,2.242l-.973,3-4.637-1.271s-1.442-.794-1.544.352a2.959,2.959,0,0,0,.685,2.031L47.664,39.3l-1.54,3.21-4.486-2.09s-1.724-.422-2.116.565,1.171,1.7,1.171,1.7l4.411,2.5L43.071,48.2l-4.5-3.153s-1.154-.636-1.677-.1.4,1.873.4,1.873l4.064,3.814L38.53,52.767l-3.142-4.81s-.985-.39-1.35-.141a1.741,1.741,0,0,0-.337,1.843c.335.486,2.854,4.652,2.854,4.652L33.107,55.8l-.124-5.1S32.5,48.7,31.727,48.876s-1.948.806-1.939,1.337.879,6.195.879,6.195l-4.059-.956,2.073-5.546s-.147-1.51-.762-1.621S25.9,49.5,25.9,49.5l-1.962,4.934-2.762-1.67,2.575-4.821s-.269-1.425-.883-1.538a2.17,2.17,0,0,0-2.114.565c-.439.661-2.585,4.292-2.585,4.292l-2.317-1.8,3.528-4.091s.8-1.361.245-1.781-1.423-.9-1.9-.429S13.131,47.4,13.131,47.4l-3.46-5.395,4.78-1.824s1.977-.83,1.817-1.256a10.559,10.559,0,0,0-2.233-1.679L9.5,39.038,8.338,35.412l5.749-.614s1.335-.787,1.267-1.278-.612-1.858-1.4-1.446-5.631.4-5.631.4l.431-3.654,5.621.951s1.455-1,.395-2.152-5.013-1.235-5.013-1.235l.834-3.259,4.782,2.065s2.125-1.2,1.406-2.044-4.823-2.709-4.823-2.709l1.295-3.176,4.285,3.483s.621.51,1.557-.271-4.1-5.356-4.1-5.356l2.44-2.489,3.251,3.929s2.651,1.12,2.506-.256S20.17,11.54,20.17,11.54l3.419-2.63s.86,5.715,2.171,5.478,2.174-.158,1.824-.855-2.417-5.444-2.417-5.444l3.752-.981.42,5.079s.326,1.25,1,1.453,1.2-1.367,1.2-1.367L31.463,7.1l3.323.926-1.109,5.194s.3,1.406.849,1.427,1.8-.305,1.734-.8,1.41-5.535,1.41-5.535l2.485,2.041-2.312,4.817s-.149,2.116,1.376,1.6,4.4-6.261,4.4-6.261S35.027-1.54,22.1,6.178,2.393,25.83,4.81,36.909s12.6,21.359,23.82,21.666S46.938,50.5,49.34,43.87a121.4,121.4,0,0,0,4.14-16.549s-1.86-1.982-2.573.614" transform="translate(-4.327 -3.597)" fill="#916f4a"/>
                </g>
              </g>
            </g>
          </g>
        </g>
      </g>
    </g>
  </g>
</svg>
