<svg xmlns="http://www.w3.org/2000/svg" width="85" height="85" viewBox="0 0 85 85">
  <g id="Grupo_1109739" data-name="Grupo 1109739" transform="translate(-180.051 -710)">
    <circle id="Elipse_11626" data-name="Elipse 11626" cx="42.5" cy="42.5" r="42.5" transform="translate(180.051 710)" fill="#f5c87f"/>
    <g id="Layer_32" data-name="Layer 32" transform="translate(191.051 721)">
      <path id="Trazado_897155" data-name="Trazado 897155" d="M63,37H61V26a5.113,5.113,0,0,0-4.1-5l-1.857-.372-9.219-1.644.352-1.968,11.117,2.023A7.117,7.117,0,0,1,63,26Z" fill="#4c4c4c"/>
      <path id="Trazado_897156" data-name="Trazado 897156" d="M5.03,13.481A6.472,6.472,0,0,1,2,8H2A9.656,9.656,0,0,1,7.376,9.635" fill="#b3b3b3"/>
      <path id="Trazado_897157" data-name="Trazado 897157" d="M52,55.732A1.983,1.983,0,0,1,51,56H49a2,2,0,0,1-2-2h0a6.181,6.181,0,0,1,.316-1.949l.3-.892A7.529,7.529,0,0,0,48,48.778h0a7.531,7.531,0,0,0-.8-3.368l-.848-1.7L47,40h8V55Z" fill="#b3b3b3"/>
      <path id="Trazado_897158" data-name="Trazado 897158" d="M50.347,43.708a7.007,7.007,0,0,1-2,.292h0a7.012,7.012,0,0,1-6.871-5.614L41,34H51Z" fill="#e77cac"/>
      <path id="Trazado_897159" data-name="Trazado 897159" d="M17.742,38.561a9.51,9.51,0,0,1,.258,2.2h0A9.468,9.468,0,0,0,19,45h0a9.468,9.468,0,0,1,1,4.236V54h0a2,2,0,0,0,2,2h1.265a1.994,1.994,0,0,0,1.368-.541V37Z" fill="#b3b3b3"/>
      <path id="Trazado_897160" data-name="Trazado 897160" d="M57,44.16V54a2.006,2.006,0,0,1-2,2H53a2.015,2.015,0,0,1-2-2,6.177,6.177,0,0,1,.32-1.95l.29-.89a7.481,7.481,0,0,0-.41-5.75l-1.29-2.59A8.625,8.625,0,0,1,49,38.96a2.959,2.959,0,0,0-4.81-2.31,15.112,15.112,0,0,1-4.49,2.49,15.454,15.454,0,0,1-5.06.86H30.9q-.18,3.975-.75,7.94l-.9,6.34A2.01,2.01,0,0,1,27.27,56H26a2.006,2.006,0,0,1-2-2V49.24A9.474,9.474,0,0,0,23,45a9.474,9.474,0,0,1-1-4.24,7.143,7.143,0,0,0-.04-.8,9.541,9.541,0,0,1-5.94-2.78A9.7,9.7,0,0,1,13.2,31.2a9.642,9.642,0,0,0-1.34-4.1l-.82-1.37A8.806,8.806,0,0,1,10,26L7.7,27.53A2.738,2.738,0,0,1,6.16,28a2.793,2.793,0,0,1-1.98-.82L2.9,25.9A3.066,3.066,0,0,1,2,23.73a3.139,3.139,0,0,1,.32-1.38l.21-.41a20.442,20.442,0,0,0,1.94-6.2,11.285,11.285,0,0,1,3.2-6.41A4.55,4.55,0,0,1,10.88,8,5.117,5.117,0,0,1,14.5,9.5l.5.5,1.11-.55a4.194,4.194,0,0,1,3.78,0L21,10l-.51,1.29A5.858,5.858,0,0,1,19.43,13h1.92a9.141,9.141,0,0,1,3.19.58l3.59,1.34A16.73,16.73,0,0,0,34.06,16a16.61,16.61,0,0,0,1.87-.1l7.39-.82A12.4,12.4,0,0,1,44.68,15,12.03,12.03,0,0,1,56.46,29.86l-.03.12A19.3,19.3,0,0,0,56,34.06a19.763,19.763,0,0,0,.38,3.84A32.1,32.1,0,0,1,57,44.16Z" fill="#e6e6e6"/>
      <path id="Trazado_897161" data-name="Trazado 897161" d="M15,10l-.5-.5a5.107,5.107,0,0,0-3.448-1.483,4.414,4.414,0,0,0-.382.313,11.285,11.285,0,0,0-3.2,6.41,20.442,20.442,0,0,1-1.94,6.2l-.21.41A3.139,3.139,0,0,0,5,22.73a3.066,3.066,0,0,0,.9,2.17l1.28,1.28a2.793,2.793,0,0,0,1.408.759L10,26a8.806,8.806,0,0,0,1.04-.27l.246.41L13,25a8.805,8.805,0,0,0,1.04-.27l.82,1.37a9.642,9.642,0,0,1,1.34,4.1,9.7,9.7,0,0,0,2.82,5.98,9.541,9.541,0,0,0,5.94,2.78,7.143,7.143,0,0,1,.04.8A9.474,9.474,0,0,0,26,44a9.474,9.474,0,0,1,1,4.24V53a2.005,2.005,0,0,0,1.994,2,2.038,2.038,0,0,0,.256-.719l.9-6.34q.57-3.96.75-7.94h3.74a15.454,15.454,0,0,0,5.06-.86,15.112,15.112,0,0,0,4.49-2.49A2.958,2.958,0,0,1,49,38.96a8.625,8.625,0,0,0,.91,3.86l1.29,2.59a7.481,7.481,0,0,1,.41,5.75l-.29.89A6.177,6.177,0,0,0,51,54a2.015,2.015,0,0,0,2,2h2a2.006,2.006,0,0,0,2-2V44.16a32.1,32.1,0,0,0-.62-6.26A19.762,19.762,0,0,1,56,34.06a19.3,19.3,0,0,1,.43-4.08l.03-.12A12.03,12.03,0,0,0,44.68,15a12.4,12.4,0,0,0-1.36.08l-7.39.82a16.611,16.611,0,0,1-1.87.1,16.73,16.73,0,0,1-5.93-1.08l-3.59-1.34A9.141,9.141,0,0,0,21.35,13H19.43a5.858,5.858,0,0,0,1.06-1.71L21,10l-1.11-.55a4.194,4.194,0,0,0-3.78,0Z" fill="#f2f2f2"/>
      <path id="Trazado_897162" data-name="Trazado 897162" d="M23.422,30.9h0A6.678,6.678,0,0,0,19.7,28.43h0A2.245,2.245,0,0,1,18,26.246h0A2.247,2.247,0,0,1,20.246,24h0a11.476,11.476,0,0,1,8.115,3.361l2.018,2.018a2.12,2.12,0,0,1,.621,1.5h0A2.122,2.122,0,0,1,28.879,33H27.631a5.26,5.26,0,0,1-4.209-2.1Z" fill="#686868"/>
      <path id="Trazado_897163" data-name="Trazado 897163" d="M49,25.2A3.37,3.37,0,0,0,50.5,28,3.37,3.37,0,0,1,52,30.8a6.364,6.364,0,0,0,3.858,5.85l.334.144.025.009A19.712,19.712,0,0,1,56,34.06a19.3,19.3,0,0,1,.43-4.08l.03-.12a12.37,12.37,0,0,0-4.473-12.445l-.3.361A11.591,11.591,0,0,0,49,25.2Z" fill="#686868"/>
      <path id="Trazado_897164" data-name="Trazado 897164" d="M6.147,18.408A3.323,3.323,0,0,0,9,15.118,4.735,4.735,0,0,1,9.5,13a4.735,4.735,0,0,0,.5-2.118V8.087A4.553,4.553,0,0,0,7.67,9.33a11.285,11.285,0,0,0-3.2,6.41,20.162,20.162,0,0,1-.675,3h0Z" fill="#4c4c4c"/>
      <path id="Trazado_897165" data-name="Trazado 897165" d="M27.969,20.848a16.182,16.182,0,0,1,7,4.116A3.536,3.536,0,0,0,41,22.464a8.894,8.894,0,0,0-1.268-4.577,12.277,12.277,0,0,1-1.068-2.29l-2.734.3a16.61,16.61,0,0,1-1.87.1,16.73,16.73,0,0,1-5.93-1.08l-3.59-1.34a8.516,8.516,0,0,0-.879-.275l.733,3.667a5.064,5.064,0,0,0,3.575,3.879Z" fill="#686868"/>
      <path id="Trazado_897166" data-name="Trazado 897166" d="M2.868,21.229H2.85c-.107.237-.2.478-.32.711l-.21.41A3.139,3.139,0,0,0,2,23.73a3.066,3.066,0,0,0,.9,2.17l1.28,1.28A2.793,2.793,0,0,0,6.16,28a2.738,2.738,0,0,0,1.54-.47l.2-.133-.062-.367a7.388,7.388,0,0,0-4.97-5.8Z" fill="#4c4c4c"/>
      <path id="Trazado_897167" data-name="Trazado 897167" d="M10,9.066A11.278,11.278,0,0,0,7.47,14.74a20.22,20.22,0,0,1-.858,3.56A3.316,3.316,0,0,0,9,15.118,4.735,4.735,0,0,1,9.5,13a4.735,4.735,0,0,0,.5-2.118Z" fill="#686868"/>
      <path id="Trazado_897168" data-name="Trazado 897168" d="M7.734,26.591a7.368,7.368,0,0,0-2.7-4.195A3.132,3.132,0,0,0,5,22.73a3.066,3.066,0,0,0,.9,2.17l1.28,1.28a2.754,2.754,0,0,0,.554.411Z" fill="#686868"/>
      <path id="Trazado_897169" data-name="Trazado 897169" d="M15,14v2a6.9,6.9,0,0,0,5.181-2.339l-1.5-1.322A4.9,4.9,0,0,1,15,14Z" fill="#e6e6e6"/>
      <path id="Trazado_897170" data-name="Trazado 897170" d="M17.815,20.648l.111-.27-1.852-.756-.112.275a8.391,8.391,0,0,1-5.228,4.881l.306.952.521.87A10.377,10.377,0,0,0,17.815,20.648Z" fill="#e6e6e6"/>
      <path id="Trazado_897171" data-name="Trazado 897171" d="M21.892,36.047a10.747,10.747,0,0,0-3.109-3.712l-.19-.14-1.186,1.611.183.134a8.7,8.7,0,0,1,2.514,3,8.328,8.328,0,0,1,.831,2.865,9.582,9.582,0,0,0,1.025.151l1-.073a10.325,10.325,0,0,0-1.068-3.836Z" fill="#e6e6e6"/>
      <path id="Trazado_897172" data-name="Trazado 897172" d="M30,36c0,1.369-.033,2.7-.1,3.948l1,.052h1c.065-1.27.1-2.615.1-4Z" fill="#e6e6e6"/>
      <path id="Trazado_897173" data-name="Trazado 897173" d="M1.635,21.5l-.206.41a4.078,4.078,0,0,0,.764,4.7l1.283,1.283a3.792,3.792,0,0,0,4.782.473L10.4,26.939c.059-.013.114-.035.172-.049l.437.728a8.694,8.694,0,0,1,1.2,3.676,10.657,10.657,0,0,0,4.629,7.857A8.555,8.555,0,0,1,17,40.764a10.533,10.533,0,0,0,1.1,4.683,8.522,8.522,0,0,1,.9,3.789V54a3,3,0,0,0,3,3h1.266a2.983,2.983,0,0,0,1.368-.344A2.973,2.973,0,0,0,26,57h1.266a3.014,3.014,0,0,0,2.969-2.576l.907-6.343c.334-2.34.559-4.709.7-7.081h2.8a16.331,16.331,0,0,0,6.2-1.242,8.052,8.052,0,0,0,4.813,4.77l.665,1.328A6.578,6.578,0,0,1,47,48.778a6.511,6.511,0,0,1-.336,2.065l-.3.891A7.147,7.147,0,0,0,46,54a3,3,0,0,0,3,3h2a2.965,2.965,0,0,0,.986-.189A2.944,2.944,0,0,0,53,57h2a3,3,0,0,0,3-3V44.163a32.983,32.983,0,0,0-.639-6.454,18.575,18.575,0,0,1,.047-7.518l.027-.124A13.612,13.612,0,0,0,56.2,20.861l.7.139A5.113,5.113,0,0,1,61,26V37h2V26a7.117,7.117,0,0,0-5.707-6.961L54.6,18.5a12.56,12.56,0,0,0-3.2-2.682,13.318,13.318,0,0,0-8.192-1.737L35.82,14.9a15.889,15.889,0,0,1-7.337-.915L24.9,12.643A10.058,10.058,0,0,0,21.351,12h-.1c.054-.116.12-.223.168-.342l.515-1.286A1,1,0,0,0,21.447,9.1l-1.1-.552a5.329,5.329,0,0,0-4.684,0l-.461.23A6.083,6.083,0,0,0,10.877,7,5.474,5.474,0,0,0,7.253,8.384,10.621,10.621,0,0,0,2,7,1,1,0,0,0,1,8a7.417,7.417,0,0,0,2.86,5.869A12.154,12.154,0,0,0,3.476,15.6a19.267,19.267,0,0,1-1.841,5.9ZM4.89,26.476,3.607,25.194A2.079,2.079,0,0,1,3.218,22.8l.146-.291a6.354,6.354,0,0,1,3.408,4.353,1.821,1.821,0,0,1-1.882-.386ZM21,54V49.236a10.533,10.533,0,0,0-1.1-4.683,8.522,8.522,0,0,1-.9-3.789c0-.163-.021-.326-.029-.489A10.576,10.576,0,0,0,21,40.84a10.531,10.531,0,0,0,1.1,4.607,8.522,8.522,0,0,1,.9,3.789V54a2.966,2.966,0,0,0,.184,1H22A1,1,0,0,1,21,54ZM42.659,38.879a16.153,16.153,0,0,0,2.153-1.449A1.962,1.962,0,0,1,48,38.961a9.668,9.668,0,0,0,.885,4c-.18.016-.359.039-.54.039a6.017,6.017,0,0,1-5.686-4.121ZM48,54a5.117,5.117,0,0,1,.266-1.633l.3-.891a8.52,8.52,0,0,0-.451-6.486c.078,0,.155.01.234.01a8.067,8.067,0,0,0,1.462-.151l.5,1.007A6.578,6.578,0,0,1,51,48.778a6.511,6.511,0,0,1-.336,2.065l-.3.891A7.147,7.147,0,0,0,50,54a2.966,2.966,0,0,0,.184,1H49A1,1,0,0,1,48,54Zm7.479-24.351-.026.124A20.572,20.572,0,0,0,55,34.064c0,.315.032.629.047.944A5.353,5.353,0,0,1,53,30.8a4.36,4.36,0,0,0-1.945-3.635A2.365,2.365,0,0,1,50,25.2a10.619,10.619,0,0,1,2.136-6.364,11.337,11.337,0,0,1,3.343,10.813ZM36.04,16.89l1.981-.22a13.181,13.181,0,0,0,.854,1.731A7.906,7.906,0,0,1,40,22.464a2.535,2.535,0,0,1-4.328,1.793,17.218,17.218,0,0,0-7.429-4.37,4.05,4.05,0,0,1-2.868-3.111l-.393-1.965,2.8,1.05A17.892,17.892,0,0,0,36.04,16.89ZM14.293,10.707a1,1,0,0,0,1.154.188l1.106-.553a3.29,3.29,0,0,1,2.894,0l.282.141-.172.432A4.885,4.885,0,0,1,15,14v2a6.867,6.867,0,0,0,4.849-2h1.5a8.126,8.126,0,0,1,1.455.132l.608,3.036a6.042,6.042,0,0,0,4.28,4.642,15.221,15.221,0,0,1,6.564,3.861A4.535,4.535,0,0,0,42,22.464a9.9,9.9,0,0,0-1.41-5.092c-.181-.3-.344-.614-.5-.932l3.337-.371a11.33,11.33,0,0,1,6.962,1.475c.049.029.094.063.142.092A12.62,12.62,0,0,0,48,25.2a4.36,4.36,0,0,0,1.945,3.635A2.365,2.365,0,0,1,51,30.8a7.35,7.35,0,0,0,4.31,6.69c.034.2.05.4.089.6a31.016,31.016,0,0,1,.6,6.069V54a1,1,0,0,1-1,1H53a1,1,0,0,1-1-1,5.117,5.117,0,0,1,.266-1.633l.3-.891a8.508,8.508,0,0,0,.438-2.7,8.6,8.6,0,0,0-.9-3.816l-1.293-2.586A7.669,7.669,0,0,1,50,38.961a3.962,3.962,0,0,0-6.437-3.093A14.335,14.335,0,0,1,34.636,39h-2.69Q32,37.5,32,36H30a83.518,83.518,0,0,1-.837,11.789l-.908,6.355a1,1,0,0,1-.989.858H26a1,1,0,0,1-1-1V49.236a10.533,10.533,0,0,0-1.1-4.683,8.522,8.522,0,0,1-.9-3.789,10.576,10.576,0,0,0-4.211-8.422L18.6,32.2l-1.2,1.6.19.142a8.572,8.572,0,0,1,3.162,4.8A8.662,8.662,0,0,1,14.2,31.113a10.716,10.716,0,0,0-1.477-4.524L12.5,26.22a10.362,10.362,0,0,0,5.324-5.582l.107-.266-1.858-.744-.106.266A8.391,8.391,0,0,1,9.8,25.02a1,1,0,0,0-.359.148l-.884.59a8.344,8.344,0,0,0-4.383-5.072c.136-.343.254-.691.372-1.04L6.289,19.4A4.344,4.344,0,0,0,10,15.118a3.757,3.757,0,0,1,.4-1.671,5.758,5.758,0,0,0,.6-2.565V9.012a4.093,4.093,0,0,1,2.794,1.2ZM9,9.548v1.334a3.757,3.757,0,0,1-.395,1.671A5.758,5.758,0,0,0,8,15.118a2.334,2.334,0,0,1-1.994,2.3l-.855.122q.184-.821.3-1.657A10.4,10.4,0,0,1,8.38,10.035,3.472,3.472,0,0,1,9,9.548ZM3.1,9.07a8.6,8.6,0,0,1,2.751.841,12.452,12.452,0,0,0-1.225,1.98A5.41,5.41,0,0,1,3.1,9.07Z"/>
      <path id="Trazado_897174" data-name="Trazado 897174" d="M19.459,29.4a5.684,5.684,0,0,1,3.163,2.1A6.293,6.293,0,0,0,27.631,34h1.248a3.121,3.121,0,0,0,2.207-5.328l-2.018-2.018A12.4,12.4,0,0,0,20.246,23a3.246,3.246,0,0,0-.787,6.4Zm.787-4.4a10.408,10.408,0,0,1,7.408,3.068l2.018,2.018A1.121,1.121,0,0,1,28.879,32H27.631a4.28,4.28,0,0,1-3.409-1.7,7.7,7.7,0,0,0-4.279-2.84,1.246,1.246,0,0,1,.3-2.455Z"/>
    </g>
  </g>
</svg>
