<svg xmlns="http://www.w3.org/2000/svg" width="90" height="90" viewBox="0 0 90 90">
  <g id="Grupo_1111110" data-name="Grupo 1111110" transform="translate(-282.051 -5048)">
    <path id="Trazado_895728" data-name="Trazado 895728" d="M45,0A45,45,0,1,1,0,45,45,45,0,0,1,45,0Z" transform="translate(282.051 5048)" fill="#374f37"/>
    <g id="patogeno" transform="translate(288.051 5054.054)">
      <path id="Trazado_897742" data-name="Trazado 897742" d="M365.376,63.191a5.424,5.424,0,1,0-5.424-5.424A5.435,5.435,0,0,0,365.376,63.191Z" transform="translate(-309.422 -36.706)" fill="#eb5463" fill-rule="evenodd"/>
      <path id="Trazado_897743" data-name="Trazado 897743" d="M269.5,279.061c-5.59,2.641-1.618,8.72,1.743,10.846,3.107,1.989,8.412,3.276,10.98-.878,2.246-3.633,2.115-6.623,6.427-9.434,3.3-2.151,1.93-7.242-.893-9.71-3.032-2.583-7.219-2.932-9.731.637C274.98,274.726,276.645,275.683,269.5,279.061Z" transform="translate(-226.734 -227.84)" fill="#b3a4ee" fill-rule="evenodd"/>
      <circle id="Elipse_11650" data-name="Elipse 11650" cx="2.902" cy="2.902" r="2.902" transform="translate(46.985 55.165) rotate(-13.3)" fill="#9579da"/>
      <circle id="Elipse_11651" data-name="Elipse 11651" cx="1.973" cy="1.973" r="1.973" transform="translate(51.966 49.583) rotate(-13.3)" fill="#9579da"/>
      <path id="Trazado_897744" data-name="Trazado 897744" d="M43.383,46.209c-6.47-3.057-1.873-10.092,2.018-12.553,3.6-2.3,9.737-3.792,12.709,1.016,2.6,4.2,2.448,7.665,7.438,10.919,3.819,2.49,2.234,8.383-1.033,11.238-3.509,2.989-8.355,3.394-11.263-.737-3.52-4.867-1.594-5.974-9.869-9.884Z" transform="translate(-25.847 -18.22)" fill="#b3a4ee" fill-rule="evenodd"/>
      <circle id="Elipse_11652" data-name="Elipse 11652" cx="3.257" cy="3.257" r="3.257" transform="translate(23.257 17.834)" fill="#9579da"/>
      <path id="Trazado_897745" data-name="Trazado 897745" d="M168.918,147.515A2.214,2.214,0,1,0,166.7,145.3,2.219,2.219,0,0,0,168.918,147.515Z" transform="translate(-138.066 -117.171)" fill="#9579da" fill-rule="evenodd"/>
      <path id="Trazado_897746" data-name="Trazado 897746" d="M59.5,365.831a5.645,5.645,0,1,0-5.645-5.645A5.656,5.656,0,0,0,59.5,365.831Z" transform="translate(-38 -304.67)" fill="#eb5463" fill-rule="evenodd"/>
      <path id="Trazado_897747" data-name="Trazado 897747" d="M32.088,39.656a5.781,5.781,0,0,1-4.02-2.575,22.993,22.993,0,0,1-1.924-3.2c-1.232-2.378-1.975-3.813-7.949-6.636a4.027,4.027,0,0,1-2.674-3.378c-.162-2.63,2.322-5.893,4.72-7.409a12.118,12.118,0,0,1,6.17-1.973,7.054,7.054,0,0,1,1.562.168,5.405,5.405,0,0,1,3.489,2.54,26.9,26.9,0,0,1,1.783,3.574c1.114,2.559,2.166,4.975,5.671,7.261A3.9,3.9,0,0,1,40.7,31.194a8.47,8.47,0,0,1-2.87,6.462A7.609,7.609,0,0,1,32.088,39.656Zm3.63,1.077a10.349,10.349,0,0,0,2.475-1.344l1.021,1.346a.793.793,0,0,0,1.263-.958L39.4,38.354a10.417,10.417,0,0,0,1.679-2.278l1.621.6a.793.793,0,1,0,.555-1.485l-1.52-.568a8.737,8.737,0,0,0,.556-3.448l1.35-.035A.793.793,0,1,0,43.6,29.56L42,29.6a5.326,5.326,0,0,0-2.029-2.768l1.343-.672a.793.793,0,1,0-.709-1.418l-2.081,1.041A10.83,10.83,0,0,1,36.784,24l1.822-1.109a.793.793,0,0,0-.824-1.355l-1.871,1.139a22.349,22.349,0,0,1-1-2.057L36.5,19.168A.793.793,0,1,0,35.428,18l-1.194,1.087a23.313,23.313,0,0,0-1.425-2.725c-.019-.031-.04-.06-.059-.091L34,14.9a.793.793,0,0,0-1.173-1.068L31.756,15a6.718,6.718,0,0,0-2.207-1.5l.348-1.487a.793.793,0,1,0-1.544-.361l-.326,1.393a9.685,9.685,0,0,0-3.381.013L24.152,11.5a.793.793,0,0,0-1.512.478l.457,1.444a15.1,15.1,0,0,0-3.036,1.293l-.939-1.448a.793.793,0,1,0-1.331.862l.937,1.446a13.533,13.533,0,0,0-2.519,2.469L14.455,17a.793.793,0,0,0-.81,1.364l1.657.984a9.849,9.849,0,0,0-1.193,2.807l-2.223-.265a.793.793,0,0,0-.187,1.576l2.231.265c0,.077,0,.154.007.23a4.98,4.98,0,0,0,1.251,3.03l-1.373,1.091a.793.793,0,1,0,.987,1.242l1.6-1.275a8.371,8.371,0,0,0,1.11.628c.95.449,1.753.855,2.439,1.233l-1.337,1.62a.793.793,0,1,0,1.223,1.009l1.494-1.81A7.869,7.869,0,0,1,24.193,33.6l-1.682,1.077a.793.793,0,0,0,.855,1.336l1.575-1.009a23.724,23.724,0,0,0,1.489,2.5L25.2,39.072a.793.793,0,1,0,1.247.979l.973-1.237A7.412,7.412,0,0,0,29.987,40.7l-.318,1.834a.793.793,0,0,0,1.563.272l.284-1.639c.124.023.248.042.374.058a7.308,7.308,0,0,0,.905.057,7.91,7.91,0,0,0,1.386-.128l.671,1.7a.793.793,0,0,0,.738.5.777.777,0,0,0,.291-.057.792.792,0,0,0,.446-1.029Zm1.6-9.72a1.02,1.02,0,1,0-1.02,1.019A1.021,1.021,0,0,0,37.32,31.013Zm-4.759,4.1a1.133,1.133,0,1,0-1.133,1.133A1.135,1.135,0,0,0,32.561,35.111ZM21.112,22.922A1.311,1.311,0,1,0,19.8,24.233,1.313,1.313,0,0,0,21.112,22.922Zm9.739,6.629A1.422,1.422,0,1,0,29.43,28.13,1.423,1.423,0,0,0,30.851,29.552Zm0-4.429a3.008,3.008,0,1,0,3.007,3.008A3.011,3.011,0,0,0,30.851,25.122Zm-4.339-1.569a2.463,2.463,0,1,0-2.464-2.463A2.466,2.466,0,0,0,26.513,23.553Zm4.049-2.463a4.049,4.049,0,1,0-4.049,4.049A4.054,4.054,0,0,0,30.562,21.09ZM63.03,48.333a3.4,3.4,0,0,1-1.554,2.757c-3.145,2.05-4.088,4.215-5.085,6.507a23.9,23.9,0,0,1-1.583,3.174A4.73,4.73,0,0,1,51.754,63c-2.355.536-5.069-.474-6.827-1.6-2.112-1.336-4.3-4.209-4.162-6.521A3.508,3.508,0,0,1,43.1,51.938c5.122-2.421,5.925-3.64,7.123-5.952a20.478,20.478,0,0,1,1.714-2.849,5.061,5.061,0,0,1,3.517-2.25A6.682,6.682,0,0,1,60.5,42.642,7.455,7.455,0,0,1,63.03,48.333Zm2.706-.035-1.115-.03a7.872,7.872,0,0,0-.477-2.936l1.275-.476a.793.793,0,0,0-.555-1.486l-1.376.514a9.389,9.389,0,0,0-1.421-1.93l.917-1.209a.793.793,0,1,0-1.263-.958l-.859,1.132a9.283,9.283,0,0,0-2.074-1.128L59.3,38.5a.793.793,0,0,0-1.475-.582l-.57,1.447a6.822,6.822,0,0,0-2-.05c-.085.01-.168.025-.252.039l-.239-1.378a.793.793,0,0,0-1.563.272l.272,1.568a6.667,6.667,0,0,0-2.184,1.6l-.8-1.022a.793.793,0,1,0-1.247.98l1.055,1.342a21.244,21.244,0,0,0-1.253,2.1l-1.323-.847a.793.793,0,0,0-.855,1.336l1.428.915a6.918,6.918,0,0,1-2.412,2.415L44.6,47.086a.793.793,0,1,0-1.223,1.008L44.5,49.458c-.589.321-1.273.666-2.077,1.046a7.694,7.694,0,0,0-.948.53l-1.38-1.1a.793.793,0,0,0-.987,1.242l1.153.916a4.52,4.52,0,0,0-1.077,2.683c0,.045,0,.09,0,.134l-1.914.228a.793.793,0,0,0,.092,1.58.656.656,0,0,0,.095-.006l1.9-.225a8.907,8.907,0,0,0,1.011,2.376l-1.4.833a.793.793,0,0,0,.406,1.475.785.785,0,0,0,.4-.111l1.5-.891a12.157,12.157,0,0,0,2.148,2.108L42.63,63.5a.793.793,0,0,0,1.331.863l.793-1.224a13.526,13.526,0,0,0,2.568,1.094l-.381,1.2a.794.794,0,0,0,.517,1,.8.8,0,0,0,.239.036.793.793,0,0,0,.756-.554l.418-1.319a9.562,9.562,0,0,0,1.535.13,7.839,7.839,0,0,0,1.352-.114l.272,1.163a.794.794,0,0,0,.771.612.782.782,0,0,0,.182-.021.792.792,0,0,0,.591-.953l-.294-1.254a6.063,6.063,0,0,0,1.864-1.265l.891.979A.793.793,0,1,0,57.208,62.8l-1.067-1.172.017-.026a20.6,20.6,0,0,0,1.226-2.33l.976.889a.793.793,0,1,0,1.068-1.172l-1.369-1.247c.257-.582.516-1.144.821-1.69l1.59.968a.793.793,0,1,0,.824-1.355l-1.54-.936a9.58,9.58,0,0,1,1.437-1.468l1.8.9a.78.78,0,0,0,.354.084.793.793,0,0,0,.355-1.5l-1.069-.535a4.81,4.81,0,0,0,1.7-2.364l1.356.035h.021a.793.793,0,0,0,.02-1.586Zm-5.634.2a.908.908,0,1,0-.908.909A.91.91,0,0,0,60.1,48.5Zm-6.259-3.651a1.009,1.009,0,1,0,1.009-1.01A1.011,1.011,0,0,0,53.843,44.851ZM45.661,55.71a1.168,1.168,0,1,0-1.168,1.168A1.17,1.17,0,0,0,45.661,55.71Zm8.678-3.46a1.18,1.18,0,1,0-1.18-1.18A1.182,1.182,0,0,0,54.339,52.251Zm0-3.946a2.766,2.766,0,1,0,2.766,2.765A2.769,2.769,0,0,0,54.339,48.3ZM50.473,59.452a2.109,2.109,0,1,0-2.109-2.109A2.111,2.111,0,0,0,50.473,59.452Zm0-5.8a3.695,3.695,0,1,0,3.695,3.694A3.7,3.7,0,0,0,50.473,53.648ZM23.428,57.563a1.179,1.179,0,1,1-1.179-1.179A1.181,1.181,0,0,1,23.428,57.563Zm-3.461-2.157a.825.825,0,1,1-.825-.825A.828.828,0,0,1,19.967,55.406Zm3.556-1.62a.934.934,0,1,1-.934-.935A.937.937,0,0,1,23.523,53.787ZM21.5,60.367a4.852,4.852,0,1,0-4.852-4.852A4.857,4.857,0,0,0,21.5,60.367Zm9.222-6.9c-.389,0-.723.519-.865,1.256H27.886a6.4,6.4,0,0,0-1.312-3.16l1.395-1.395c.622.421,1.225.552,1.5.276.366-.366.014-1.312-.786-2.112s-1.746-1.153-2.112-.786c-.275.275-.145.878.277,1.5L25.452,50.44a6.394,6.394,0,0,0-3.161-1.312v-1.97c.737-.143,1.257-.477,1.257-.864,0-.517-.921-.938-2.05-.938s-2.05.421-2.05.938c0,.387.52.722,1.257.864v1.97a6.4,6.4,0,0,0-3.161,1.312L16.15,49.046c.422-.622.552-1.225.277-1.5-.366-.367-1.312-.014-2.112.786s-1.152,1.746-.786,2.112c.275.275.878.145,1.5-.276l1.395,1.395a6.4,6.4,0,0,0-1.312,3.16H13.141c-.142-.737-.476-1.256-.865-1.256-.518,0-.937.918-.937,2.049s.42,2.049.937,2.049c.389,0,.723-.518.865-1.256h1.969a6.409,6.409,0,0,0,1.312,3.162l-1.395,1.395c-.622-.423-1.225-.553-1.5-.278-.366.366-.014,1.312.786,2.112s1.746,1.153,2.112.787c.275-.275.145-.878-.277-1.5l1.394-1.393A6.405,6.405,0,0,0,20.706,61.9v1.969c-.738.142-1.257.476-1.257.864,0,.519.918.938,2.05.938s2.05-.419,2.05-.938c0-.389-.519-.723-1.257-.864V61.9a6.4,6.4,0,0,0,3.161-1.312l1.394,1.393c-.422.623-.552,1.226-.277,1.5.366.366,1.312.013,2.112-.787s1.153-1.746.786-2.112c-.275-.275-.878-.145-1.5.278L26.574,59.47a6.41,6.41,0,0,0,1.313-3.162h1.969c.142.739.475,1.256.865,1.256.518,0,.938-.918.938-2.049s-.42-2.049-.938-2.049ZM55.542,23.028a1.133,1.133,0,1,1,1.133,1.133A1.135,1.135,0,0,1,55.542,23.028ZM52.9,20.956a.793.793,0,1,1,.793.793A.794.794,0,0,1,52.9,20.956ZM56.1,19.4a.9.9,0,1,1,.9.9A.9.9,0,0,1,56.1,19.4Zm-.15-2.97a4.632,4.632,0,1,0,4.632,4.631A4.637,4.637,0,0,0,55.954,16.429Zm-8.861,6.6c.368,0,.685-.484.824-1.177h1.872a6.186,6.186,0,0,0,1.247,3L49.71,26.183c-.588-.391-1.154-.51-1.415-.249-.352.352-.013,1.261.756,2.03s1.678,1.107,2.03.756c.26-.26.142-.827-.249-1.415l1.325-1.325a6.189,6.189,0,0,0,3,1.247V29.1c-.693.139-1.176.455-1.176.824,0,.5.882.9,1.969.9s1.969-.4,1.969-.9c0-.368-.484-.684-1.177-.824V27.226a6.188,6.188,0,0,0,3-1.247L61.076,27.3c-.391.588-.51,1.154-.249,1.415.352.351,1.261.012,2.03-.756s1.107-1.678.755-2.03c-.26-.261-.826-.142-1.415.249l-1.325-1.325a6.186,6.186,0,0,0,1.247-3H63.99c.139.693.456,1.177.824,1.177.5,0,.9-.882.9-1.97s-.4-1.969-.9-1.969c-.368,0-.684.484-.824,1.176H62.119a6.179,6.179,0,0,0-1.247-3L62.2,15.938c.588.391,1.154.51,1.415.249.352-.352.014-1.261-.755-2.03s-1.678-1.107-2.03-.756c-.261.261-.142.827.249,1.415l-1.325,1.326a6.188,6.188,0,0,0-3-1.247V13.022c.691-.139,1.177-.456,1.177-.824,0-.5-.885-.9-1.969-.9s-1.969.4-1.969.9c0,.367.485.684,1.176.824V14.9a6.19,6.19,0,0,0-3,1.247l-1.325-1.326c.391-.588.51-1.154.249-1.415-.352-.351-1.261-.013-2.03.756s-1.107,1.678-.756,2.03c.261.261.827.142,1.415-.249l1.325,1.326a6.18,6.18,0,0,0-1.247,3H47.917c-.14-.692-.456-1.176-.824-1.176-.5,0-.9.881-.9,1.969S46.6,23.03,47.093,23.03Z" fill-rule="evenodd"/>
    </g>
  </g>
</svg>
