<svg xmlns="http://www.w3.org/2000/svg" width="90" height="90" viewBox="0 0 90 90">
  <g id="Grupo_1111119" data-name="Grupo 1111119" transform="translate(-545.051 -5486)">
    <path id="Trazado_895728" data-name="Trazado 895728" d="M45,0A45,45,0,1,1,0,45,45,45,0,0,1,45,0Z" transform="translate(545.051 5486)" fill="#ff7c32"/>
    <g id="cesped-" transform="translate(551.05 5355.951)">
      <path id="Trazado_897775" data-name="Trazado 897775" d="M9.161,195.209H78.724a.766.766,0,0,0,.766-.782c-.066-3.173-.045-15.1,3.814-18.969,0,0-7.445,2.193-8.528,6.844l-2.166-8.073-2.436,4.993-4.443-6.346-2.1,10.551L59.9,168.544l-3.148,11.334-3.669-8.224-2.949,9.864-1.814-7.559-4.678,11.154-6.362-15.026s1.312,10.513-2.254,14.5l-3.116-8.625L29.3,185.113s-4.833-7.83-2.823-14.771c0,0-5.33,7-4.773,11.535l-2.421-6.419-2.707,9.655s0-8.913-9.069-14.771a45.75,45.75,0,0,1,.914,23.923A.765.765,0,0,0,9.161,195.209Z" transform="translate(-6.358 -6.352)" fill="#43a838"/>
      <path id="Trazado_897776" data-name="Trazado 897776" d="M84.452,315.992a.765.765,0,0,1-.765.781H14.123a.765.765,0,0,1-.743-.944c.309-1.3.547-2.574.725-3.823a.075.075,0,0,0,.018,0H83.687c.429,0,.724-.023.724-.023C84.412,313.051,84.423,314.576,84.452,315.992Z" transform="translate(-11.321 -127.916)" fill="#338727"/>
      <path id="Trazado_897777" data-name="Trazado 897777" d="M72.365,190H58.053a1.144,1.144,0,1,1,0-2.288H71.981c-.059-3.812.121-11.289,2.143-16.191-2,1.062-4.122,2.665-4.593,4.687a1.144,1.144,0,0,1-2.219.037l-1.374-5.12-1.1,2.245a1.144,1.144,0,0,1-1.965.154l-2.907-4.152L58.395,177.3a1.144,1.144,0,0,1-2.231.055l-2.677-10.681L51.5,173.832a1.144,1.144,0,0,1-2.147.16l-2.412-5.407-2.066,6.908a1.144,1.144,0,0,1-2.208-.061l-1-4.161L38.34,179.2a1.144,1.144,0,0,1-1.053.7h0a1.144,1.144,0,0,1-1.053-.7l-3.97-9.375c-.157,3.257-.8,7-2.741,9.167a1.144,1.144,0,0,1-1.929-.374l-1.913-5.3-1.643,5.745a1.144,1.144,0,0,1-2.073.286,25.76,25.76,0,0,1-3.454-10.728c-1.211,2.237-2.266,4.85-2.032,6.752a1.144,1.144,0,0,1-2.206.543l-1.19-3.156-1.766,6.3a1.144,1.144,0,0,1-2.245-.309,15.246,15.246,0,0,0-1.094-4.873,18.011,18.011,0,0,0-4.807-6.922,47.339,47.339,0,0,1,.111,20.748H41.334a1.144,1.144,0,0,1,0,2.288H2.8a1.91,1.91,0,0,1-1.857-2.354,44.864,44.864,0,0,0-.876-23.267,1.144,1.144,0,0,1,1.7-1.352,20.739,20.739,0,0,1,8.641,10.808l1.413-5.04a1.144,1.144,0,0,1,2.172-.095l.9,2.395a32.692,32.692,0,0,1,4.31-7.8,1.144,1.144,0,0,1,2.009,1.011c-1.181,4.078.243,8.591,1.428,11.324l1.811-6.335a1.144,1.144,0,0,1,2.176-.074l2.3,6.355c1.417-3.6,1.15-9.4.863-11.7a1.144,1.144,0,0,1,2.189-.587l5.3,12.526,3.628-8.651a1.144,1.144,0,0,1,2.167.176l.823,3.428,1.732-5.794a1.144,1.144,0,0,1,2.141-.138l2.373,5.32,2.3-8.269a1.144,1.144,0,0,1,1.1-.838h.015a1.144,1.144,0,0,1,1.1.866l2.492,9.943L58.25,166.3a1.144,1.144,0,0,1,2.059-.433l3.329,4.756,1.585-3.248a1.144,1.144,0,0,1,2.133.205l1.406,5.242c2.638-3.24,7.6-4.736,7.859-4.814a1.144,1.144,0,0,1,1.133,1.905c-2.785,2.792-3.623,11.2-3.48,18.138A1.908,1.908,0,0,1,72.365,190Z"/>
      <path id="Trazado_897778" data-name="Trazado 897778" d="M309.65,338.246H305.6a1.144,1.144,0,1,1,0-2.288h4.047a1.144,1.144,0,0,1,0,2.288Z" transform="translate(-258.024 -148.232)"/>
      <circle id="Elipse_11653" data-name="Elipse 11653" cx="1.31" cy="1.31" r="1.31" transform="translate(14.175 179.222)"/>
      <circle id="Elipse_11654" data-name="Elipse 11654" cx="1.31" cy="1.31" r="1.31" transform="translate(17.836 182.883)"/>
      <circle id="Elipse_11655" data-name="Elipse 11655" cx="1.31" cy="1.31" r="1.31" transform="translate(61.535 177.318)"/>
    </g>
  </g>
</svg>
