<svg xmlns="http://www.w3.org/2000/svg" width="90" height="90" viewBox="0 0 90 90">
  <g id="Grupo_1110252" data-name="Grupo 1110252" transform="translate(-221.051 -1905)">
    <rect id="Rectángulo_403736" data-name="Rectángulo 403736" width="90" height="90" rx="8" transform="translate(221.051 1905)" fill="#f5c87f"/>
    <g id="Page-1" transform="translate(236.051 1920)">
      <g id="_013---Grass" data-name="013---Grass">
        <path id="Shape" d="M56.26,19.22a44.9,44.9,0,0,0-7.65,18,42.854,42.854,0,0,0-.65,8.66c-.3.02-.62.07-.96.12,0,0-1.78-4.44-7.85-2.44a32.908,32.908,0,0,1,15.67-25.5c.88-.56,2.01.35,1.44,1.16Z" fill="#60a917"/>
        <path id="Shape-2" data-name="Shape" d="M54.82,18.06c-.471.3-.97.633-1.487,1a.772.772,0,0,1-.073.162,44.9,44.9,0,0,0-7.65,18,42.9,42.9,0,0,0-.65,6.563A5.078,5.078,0,0,1,47,46c.34-.05.66-.1.96-.12a42.854,42.854,0,0,1,.65-8.66,44.9,44.9,0,0,1,7.65-18c.57-.81-.56-1.72-1.44-1.16Z" fill="#549414"/>
        <path id="Shape-3" data-name="Shape" d="M53.88,5.85c-3.07,5.86-11.42,22.16-12.36,27.79a33.974,33.974,0,0,0-2.37,9.92c-.36.12-.75.27-1.15.44,0,0-1.24-1.86-4.69-2.64v-.01A102.458,102.458,0,0,0,30.8,29.77,56.129,56.129,0,0,1,36.14,19.5v-.01c5.91-8.9,12.74-13.05,16.34-14.76.85-.4,1.79.36,1.4,1.12Z" fill="#a4c400"/>
        <path id="Shape-4" data-name="Shape" d="M52.48,4.73c-.457.217-.966.474-1.518.774a.769.769,0,0,1-.082.346c-3.07,5.86-11.42,22.16-12.36,27.79a33.9,33.9,0,0,0-2.239,8.882A5.726,5.726,0,0,1,38,44c.4-.17.79-.32,1.15-.44a33.974,33.974,0,0,1,2.37-9.92c.94-5.63,9.29-21.93,12.36-27.79.39-.76-.55-1.52-1.4-1.12Z" fill="#90ac00"/>
        <path id="Shape-5" data-name="Shape" d="M33.31,41.35a15.74,15.74,0,0,0-6.15-.09,44.631,44.631,0,0,0-5.9-14.69A169.209,169.209,0,0,0,14.25,2.49c-.36-.96,1.13-1.58,1.78-.74,3.84,4.93,9.37,12.63,11.67,18.8a90.1,90.1,0,0,1,3.1,9.22A102.458,102.458,0,0,1,33.31,41.35Z" fill="#60a917"/>
        <path id="Shape-6" data-name="Shape" d="M14.85,4.137C18.45,8.953,22.744,15.3,24.7,20.55a90.1,90.1,0,0,1,3.1,9.22,102.61,102.61,0,0,1,2.455,11.237,14.921,14.921,0,0,1,3.055.343A102.458,102.458,0,0,0,30.8,29.77a90.1,90.1,0,0,0-3.1-9.22c-2.3-6.17-7.83-13.87-11.67-18.8-.65-.84-2.14-.22-1.78.74.192.516.394,1.072.6,1.647Z" fill="#549414"/>
        <path id="Shape-7" data-name="Shape" d="M41.94,2.14c-1.68,4.4-4.85,13-5.8,17.35v.01A56.129,56.129,0,0,0,30.8,29.77a90.1,90.1,0,0,0-3.1-9.22A34.808,34.808,0,0,1,40.32,1.23c.76-.59,1.94.06,1.62.91Z" fill="#008a00"/>
        <path id="Shape-8" data-name="Shape" d="M40.32,1.23c-.462.356-.967.766-1.5,1.228-1.707,4.483-4.752,12.781-5.68,17.032v.01a54.411,54.411,0,0,0-3.554,6.273c.446,1.364.854,2.7,1.214,4A56.129,56.129,0,0,1,36.14,19.5v-.01c.95-4.35,4.12-12.95,5.8-17.35.32-.85-.86-1.5-1.62-.91Z" fill="#007900"/>
        <path id="Shape-9" data-name="Shape" d="M27.16,41.26C23.35,41.97,22,44,22,44a11.047,11.047,0,0,0-3.67-.95,34.538,34.538,0,0,0-1.75-5.3,44.535,44.535,0,0,0-4.63-18.62c-.43-.84.76-1.61,1.55-1.01a32.906,32.906,0,0,1,7.76,8.45A44.631,44.631,0,0,1,27.16,41.26Z" fill="#a4c400"/>
        <path id="Shape-10" data-name="Shape" d="M21.26,26.57a32.906,32.906,0,0,0-7.76-8.45c-.79-.6-1.98.17-1.55,1.01.047.094.1.2.146.3a33.411,33.411,0,0,1,6.164,7.14,44.631,44.631,0,0,1,5.9,14.69,9.233,9.233,0,0,0-4.455,2A12.791,12.791,0,0,1,22,44s1.35-2.03,5.16-2.74A44.631,44.631,0,0,0,21.26,26.57Z" fill="#90ac00"/>
        <path id="Shape-11" data-name="Shape" d="M18.33,43.05A5.265,5.265,0,0,0,13,46a10.884,10.884,0,0,0-3.94-.05c.02-.62.02-1.24.01-1.86-.25-8.18-3.94-15.96-6.24-20.06-.46-.81.67-1.62,1.5-1.07A32.656,32.656,0,0,1,16.58,37.75,34.538,34.538,0,0,1,18.33,43.05Z" fill="#60a917"/>
        <path id="Shape-12" data-name="Shape" d="M16.58,37.75A32.656,32.656,0,0,0,4.33,22.96c-.822-.545-1.934.245-1.508,1.047A32.7,32.7,0,0,1,13.58,37.75a34.538,34.538,0,0,1,1.75,5.3,5.3,5.3,0,0,0-5.247,2.774A12.468,12.468,0,0,1,13,46a5.265,5.265,0,0,1,5.33-2.95,34.538,34.538,0,0,0-1.75-5.3Z" fill="#549414"/>
        <path id="Shape-13" data-name="Shape" d="M59,48a4.977,4.977,0,0,1-8.06,3.93,7.991,7.991,0,0,1-15.15,2.52,6.5,6.5,0,0,1-11.58,0A7.991,7.991,0,0,1,9.06,51.93,4.992,4.992,0,1,1,6,43a4.869,4.869,0,0,1,3.07,1.09c.01.62.01,1.24-.01,1.86A10.884,10.884,0,0,1,13,46a5.265,5.265,0,0,1,5.33-2.95A11.047,11.047,0,0,1,22,44s1.35-2.03,5.16-2.74a15.74,15.74,0,0,1,6.15.09v.01C36.76,42.14,38,44,38,44c.4-.17.79-.32,1.15-.44C45.22,41.56,47,46,47,46c.34-.05.66-.1.96-.12a42.854,42.854,0,0,1,.65-8.66A6,6,0,0,1,53,43c0,.04-.01.08-.01.11A5.577,5.577,0,0,1,54,43a5,5,0,0,1,5,5Z" fill="sienna"/>
        <path id="Shape-14" data-name="Shape" d="M47.94,51.93a8,8,0,0,1-6.4,6.92,7.892,7.892,0,0,0,9.2-5.873,4.981,4.981,0,0,1-2.8-1.047Z" fill="#783e22"/>
        <path id="Shape-15" data-name="Shape" d="M54,43a5.577,5.577,0,0,0-1.01.11c0-.03.01-.07.01-.11a6,6,0,0,0-4.39-5.78c-.1.549-.18,1.112-.258,1.678A5.961,5.961,0,0,1,50,43c0,.04-.01.08-.01.11A5.577,5.577,0,0,1,51,43a4.986,4.986,0,0,1,1.489,9.749A4.83,4.83,0,0,0,54,53a5,5,0,0,0,0-10Z" fill="#783e22"/>
        <g id="Grupo_1110251" data-name="Grupo 1110251">
          <path id="Shape-16" data-name="Shape" d="M53.928,42a7.021,7.021,0,0,0-4.159-5.424A44.17,44.17,0,0,1,57.078,19.8a1.758,1.758,0,0,0-.174-2.272,2.083,2.083,0,0,0-2.62-.308,36.546,36.546,0,0,0-8.469,7.407c3.029-6.89,7.244-15.062,8.946-18.313a1.759,1.759,0,0,0-.3-2.062,2.092,2.092,0,0,0-2.41-.419A40.613,40.613,0,0,0,38.569,14.574c1.323-4.121,3.118-8.962,4.306-12.082A1.762,1.762,0,0,0,42.246.413a2.111,2.111,0,0,0-2.54.024A36.228,36.228,0,0,0,27.512,17.568C24.864,11.97,20.371,5.7,16.821,1.138A2.066,2.066,0,0,0,14.159.627a1.784,1.784,0,0,0-.846,2.211,174.141,174.141,0,0,1,5.962,19.433,32.878,32.878,0,0,0-5.17-4.947,2.085,2.085,0,0,0-2.581.07,1.764,1.764,0,0,0-.466,2.188,42.564,42.564,0,0,1,4.083,13.185A33.325,33.325,0,0,0,4.882,22.126a2.075,2.075,0,0,0-2.572.213,1.756,1.756,0,0,0-.352,2.18c2.075,3.7,5.318,10.52,5.989,17.813A5.831,5.831,0,0,0,6,42,6,6,0,0,0,6,54a5.852,5.852,0,0,0,2.358-.495,8.988,8.988,0,0,0,15.894,2.808,7.492,7.492,0,0,0,11.5,0,8.988,8.988,0,0,0,15.894-2.808A5.852,5.852,0,0,0,54,54a6,6,0,1,0-.072-12Zm1.249-22.981A45.355,45.355,0,0,0,46.96,44.148a6.084,6.084,0,0,0-2.239-1.606,7.538,7.538,0,0,0-4.4-.316,32.841,32.841,0,0,1,2.122-8.206,32.769,32.769,0,0,1,12.734-15ZM52.84,5.667c-3.487,6.672-11.274,22-12.286,27.7a35.02,35.02,0,0,0-2.313,9.4,9.534,9.534,0,0,0-4.053-2.215A103.245,103.245,0,0,0,31.854,29.85a55.3,55.3,0,0,1,5.119-9.8c.017-.026.033-.052.048-.079,5.747-8.615,12.348-12.65,15.819-14.3ZM40.908,2.036c-1.764,4.646-4.73,12.733-5.7,17.071a56.118,56.118,0,0,0-4.23,7.719c-.676-2.18-1.421-4.3-2.224-6.334A33.9,33.9,0,0,1,40.908,2.036ZM26.771,20.921a89,89,0,0,1,3.065,9.117,103.185,103.185,0,0,1,2.251,10.1,15.737,15.737,0,0,0-4.159,0A45.421,45.421,0,0,0,22.2,26.2,169.589,169.589,0,0,0,15.3,2.435c4.024,5.178,9.262,12.558,11.471,18.486ZM13,19a31.977,31.977,0,0,1,7.416,8.112A43.287,43.287,0,0,1,25.961,40.52a9.616,9.616,0,0,0-4.246,2.29,12.1,12.1,0,0,0-2.594-.681,35.777,35.777,0,0,0-1.553-4.569A45.549,45.549,0,0,0,13,19Zm4.04,23.1a6.609,6.609,0,0,0-1.764.443,6.172,6.172,0,0,0-2.821,2.369,12.8,12.8,0,0,0-2.391-.085C10.025,36.383,6.3,28.251,3.88,23.861A32.256,32.256,0,0,1,17.043,42.1ZM54,52a3.967,3.967,0,0,1-2.447-.86,1,1,0,0,0-1.606.675,6.991,6.991,0,0,1-13.255,2.2,1,1,0,0,0-.888-.568.929.929,0,0,0-.9.543,5.5,5.5,0,0,1-9.8,0,.964.964,0,0,0-.9-.543,1,1,0,0,0-.888.568,6.991,6.991,0,0,1-13.255-2.2,1,1,0,0,0-1.606-.675A3.992,3.992,0,1,1,6,44a3.843,3.843,0,0,1,2.068.616v.557a4.449,4.449,0,0,0-3.014,2.511.988.988,0,0,0,.611,1.241,1.014,1.014,0,0,0,1.277-.583c.037-.09.936-2.183,5.9-1.356a1,1,0,0,0,1.094-.614,4.1,4.1,0,0,1,2.115-1.982c1.461-.6,3.332-.427,5.562.529a1.012,1.012,0,0,0,1.22-.355C22.9,44.459,24.686,42,30,42s7.1,2.459,7.168,2.555a1,1,0,0,0,1.226.364c2.213-.949,4.073-1.133,5.528-.543a4.063,4.063,0,0,1,2.149,2,1,1,0,0,0,1.094.614c4.912-.82,5.841,1.223,5.894,1.352a1,1,0,0,0,1.89-.654c-.046-.138-1.078-2.992-5.989-2.874a41.227,41.227,0,0,1,.448-6.175A4.969,4.969,0,0,1,52,42.933c-.005.043-.013.133-.013.177a1,1,0,0,0,.36.768,1.011,1.011,0,0,0,.819.216A4.618,4.618,0,0,1,54,44a4,4,0,0,1,0,8Z"/>
          <path id="Shape-17" data-name="Shape" d="M37,47a1,1,0,0,0-1,1,1,1,0,0,1-2,0,1,1,0,0,0-2,0,3,3,0,0,0,6,0A1,1,0,0,0,37,47Z"/>
          <path id="Shape-18" data-name="Shape" d="M21,50a1,1,0,0,0-1,1,1,1,0,0,1-2,0,1,1,0,0,0-2,0,3,3,0,0,0,6,0A1,1,0,0,0,21,50Z"/>
          <circle id="Oval" cx="1" cy="1" r="1" transform="translate(23 46)"/>
          <circle id="Oval-2" data-name="Oval" cx="1" cy="1" r="1" transform="translate(3 38)"/>
          <circle id="Oval-3" data-name="Oval" cx="1" cy="1" r="1" transform="translate(28 51)"/>
          <circle id="Oval-4" data-name="Oval" cx="1" cy="1" r="1" transform="translate(45 49)"/>
          <circle id="Oval-5" data-name="Oval" cx="1" cy="1" r="1" transform="translate(56 38)"/>
          <circle id="Oval-6" data-name="Oval" cx="1" cy="1" r="1" transform="translate(53 34)"/>
          <circle id="Oval-7" data-name="Oval" cx="1" cy="1" r="1" transform="translate(41 53)"/>
        </g>
      </g>
    </g>
  </g>
</svg>
