<svg xmlns="http://www.w3.org/2000/svg" width="90" height="103" viewBox="0 0 90 103">
  <g id="Grupo_1110273" data-name="Grupo 1110273" transform="translate(-221.051 -2058)">
    <rect id="Rectángulo_403737" data-name="Rectángulo 403737" width="90" height="103" rx="8" transform="translate(221.051 2058)" fill="#f5c87f"/>
    <g id="vaca_1_" data-name="vaca (1)" transform="translate(235.051 2079)">
      <g id="Grupo_1110271" data-name="Grupo 1110271">
        <g id="Grupo_1110253" data-name="Grupo 1110253">
          <path id="Trazado_897448" data-name="Trazado 897448" d="M59,50l2,7-1.46-.37a3.365,3.365,0,0,1-1.83-1.19A3.289,3.289,0,0,1,57,53.39a3.345,3.345,0,0,1,.98-2.37Z" fill="#969faa"/>
        </g>
        <g id="Grupo_1110254" data-name="Grupo 1110254">
          <circle id="Elipse_11636" data-name="Elipse 11636" cx="2" cy="2" r="2" transform="translate(57 3)" fill="#b4dd7f"/>
        </g>
        <g id="Grupo_1110255" data-name="Grupo 1110255">
          <path id="Trazado_897449" data-name="Trazado 897449" d="M55.83,16.17A4.008,4.008,0,1,1,53,15,4.025,4.025,0,0,1,55.83,16.17Z" fill="#b4dd7f"/>
        </g>
        <g id="Grupo_1110256" data-name="Grupo 1110256">
          <path id="Trazado_897450" data-name="Trazado 897450" d="M53,40.12a7.126,7.126,0,0,1-.21,1.73L52.5,43h-2A2.5,2.5,0,0,1,48,40.5v-1A2.492,2.492,0,0,0,45.5,37,2.5,2.5,0,0,1,43,34.5V33h2.88A7.136,7.136,0,0,1,53,40.12Z" fill="#e6e9ed"/>
        </g>
        <g id="Grupo_1110257" data-name="Grupo 1110257">
          <path id="Trazado_897451" data-name="Trazado 897451" d="M28.5,49l-1.08,2.16A3.917,3.917,0,0,0,27,52.94V58l-4-1V54.47A18.724,18.724,0,0,0,22.19,49H18.93a4.042,4.042,0,0,1,.07.78,4.322,4.322,0,0,1-1.8,3.51L12,57l-2-4L8,57l.8-8.77a3.954,3.954,0,0,1,.62-1.81A4.016,4.016,0,0,1,11,45V42.2A3.62,3.62,0,0,1,13,39l.39.2A2.9,2.9,0,0,1,15,41.8a1.34,1.34,0,0,1-.01.2H15l2.75-2.75,4.49-4.49a4.983,4.983,0,0,1,.76-.63A5.89,5.89,0,0,1,26.49,33H31v2a2.006,2.006,0,0,0,2,2h2.76a2,2,0,0,0,1.79-1.11L39,33h4v1.5A2.5,2.5,0,0,0,45.5,37,2.492,2.492,0,0,1,48,39.5v1A2.5,2.5,0,0,0,50.5,43h2L51,49l1.47,2.94a5,5,0,0,1,.27,3.83l-.37,1.12L47,56a7.236,7.236,0,0,0-2.12-5.12l-1.54-1.54a3.377,3.377,0,0,1-.31-.35l-.01.01Z" fill="#aab2bd"/>
        </g>
        <g id="Grupo_1110258" data-name="Grupo 1110258">
          <path id="Trazado_897452" data-name="Trazado 897452" d="M52.37,56.89,51,61H43V59.24a2,2,0,0,1,1.11-1.79L47,56Z" fill="#969faa"/>
        </g>
        <g id="Grupo_1110259" data-name="Grupo 1110259">
          <circle id="Elipse_11637" data-name="Elipse 11637" cx="2" cy="2" r="2" transform="translate(39 1)" fill="#b4dd7f"/>
        </g>
        <g id="Grupo_1110260" data-name="Grupo 1110260">
          <path id="Trazado_897453" data-name="Trazado 897453" d="M39,33l-1.45,2.89A2,2,0,0,1,35.76,37H33a2.006,2.006,0,0,1-2-2V33Z" fill="#e6e9ed"/>
        </g>
        <g id="Grupo_1110261" data-name="Grupo 1110261">
          <circle id="Elipse_11638" data-name="Elipse 11638" cx="2" cy="2" r="2" transform="translate(31 19)" fill="#b4dd7f"/>
        </g>
        <g id="Grupo_1110262" data-name="Grupo 1110262">
          <path id="Trazado_897454" data-name="Trazado 897454" d="M31.83,6.17A4.008,4.008,0,1,1,29,5,4.025,4.025,0,0,1,31.83,6.17Z" fill="#b4dd7f"/>
        </g>
        <g id="Grupo_1110263" data-name="Grupo 1110263">
          <path id="Trazado_897455" data-name="Trazado 897455" d="M27,58v3H19v-.76a2,2,0,0,1,1.11-1.79L23,57Z" fill="#969faa"/>
        </g>
        <g id="Grupo_1110264" data-name="Grupo 1110264">
          <path id="Trazado_897456" data-name="Trazado 897456" d="M43,27H21l-5-6a3.613,3.613,0,0,0,2-3.24V15h-.88a5.266,5.266,0,0,0-3.25,1.12c-.02.02-.05.04-.07.06A5.2,5.2,0,0,0,12,19a8.892,8.892,0,0,0-3,.53,8.778,8.778,0,0,0-3.63,2.48L1.49,26.43A2.071,2.071,0,0,0,1,27.75V29a2.006,2.006,0,0,0,2,2H9.72a3.971,3.971,0,0,0,2.89-1.24L16,34l1.75,5.25,4.49-4.49a4.983,4.983,0,0,1,.76-.63A5.89,5.89,0,0,1,26.49,33H49A6,6,0,0,0,43,27Z" fill="#dfb28b"/>
        </g>
        <g id="Grupo_1110265" data-name="Grupo 1110265">
          <circle id="Elipse_11639" data-name="Elipse 11639" cx="2" cy="2" r="2" transform="translate(15 5)" fill="#b4dd7f"/>
        </g>
        <g id="Grupo_1110266" data-name="Grupo 1110266">
          <path id="Trazado_897457" data-name="Trazado 897457" d="M16,55l-1,6H5L4,55l4,2,2-4,2,4Z" fill="#b4dd7f"/>
        </g>
        <g id="Grupo_1110267" data-name="Grupo 1110267">
          <path id="Trazado_897458" data-name="Trazado 897458" d="M13,13l.8,3.18A5.2,5.2,0,0,0,12,19a8.892,8.892,0,0,0-3,.53V18.12A5.283,5.283,0,0,1,13,13Z" fill="#cf9e76"/>
        </g>
        <g id="Grupo_1110268" data-name="Grupo 1110268">
          <path id="Trazado_897459" data-name="Trazado 897459" d="M11,42.2V45a4.016,4.016,0,0,0-1.58,1.42l-.3-.3A7.236,7.236,0,0,1,7,41,7.252,7.252,0,0,1,11,42.2Z" fill="#aab2bd"/>
        </g>
        <g id="Grupo_1110269" data-name="Grupo 1110269">
          <circle id="Elipse_11640" data-name="Elipse 11640" cx="2" cy="2" r="2" transform="translate(3 3)" fill="#b4dd7f"/>
        </g>
        <g id="Grupo_1110270" data-name="Grupo 1110270">
          <circle id="Elipse_11641" data-name="Elipse 11641" cx="2" cy="2" r="2" transform="translate(1 35)" fill="#b4dd7f"/>
        </g>
      </g>
      <g id="Grupo_1110272" data-name="Grupo 1110272">
        <path id="Trazado_897460" data-name="Trazado 897460" d="M53.691,56.09a6.02,6.02,0,0,0-.327-4.6l-1.3-2.609,1.7-6.79a8.1,8.1,0,0,0-2.547-8.083A7,7,0,0,1,58,41v8.586l-.727.727a4.347,4.347,0,0,0,2.02,7.291l3.144.786L60,49.86V41a9.011,9.011,0,0,0-9-9H49.92A7,7,0,0,0,43,26H21.468l-4-4.8A4.586,4.586,0,0,0,19,17.764V14H17.123a6.269,6.269,0,0,0-2.69.609l-.706-2.822-.97.243A6.272,6.272,0,0,0,8,18.123v.741a9.8,9.8,0,0,0-3.386,2.487L.742,25.775A3.005,3.005,0,0,0,0,27.751V29a3,3,0,0,0,3,3H9.721a4.962,4.962,0,0,0,2.731-.836l2.657,3.321,1.5,4.495-1.039,1.039A3.879,3.879,0,0,0,13.842,38.3L13,37.882l-.447.224a4.585,4.585,0,0,0-2.279,2.587A8.194,8.194,0,0,0,7,40H6v1a8.175,8.175,0,0,0,2.2,5.59,5.057,5.057,0,0,0-.4,1.547L7.137,55.45,2.691,53.227,3.82,60H0v2H62V60H52.388Zm5.868-.492a2.347,2.347,0,0,1-1.049-3.672ZM16.18,60l.9-5.4.7-.5A5.313,5.313,0,0,0,19.987,50h1.437A17.962,17.962,0,0,1,22,54.472v1.91l-2.342,1.171A2.976,2.976,0,0,0,18.016,60Zm4.373-.658,2.564-1.282L26,58.781V60H20.033A.989.989,0,0,1,20.553,59.342ZM29.118,50H42.591c.016.016.03.034.046.05l1.536,1.536a6.2,6.2,0,0,1,1.8,3.811L43.66,56.553A2.981,2.981,0,0,0,42,59.236V60H28V52.944a3.009,3.009,0,0,1,.317-1.342ZM44,59.236a.994.994,0,0,1,.553-.894l2.6-1.3,3.893.648L50.279,60H44Zm8-19.113a6.137,6.137,0,0,1-.183,1.485l-.1.392H50.5A1.5,1.5,0,0,1,49,40.5v-1A3.5,3.5,0,0,0,45.5,36,1.5,1.5,0,0,1,44,34.5V34h1.877A6.13,6.13,0,0,1,52,40.123Zm-42-22a4.273,4.273,0,0,1,2.3-3.8l.382,1.526a6.241,6.241,0,0,0-1.423,2.175,9.669,9.669,0,0,0-1.26.189Zm3.88,11.626a4.95,4.95,0,0,0,.744-1.768l.357-1.785L13.02,25.8l-.357,1.785A3.009,3.009,0,0,1,9.721,30H3a1,1,0,0,1-1-1V27.751a1,1,0,0,1,.247-.658l3.872-4.424A7.814,7.814,0,0,1,12,20h.781l.189-.757A4.273,4.273,0,0,1,17,16v1.762a2.6,2.6,0,0,1-1.447,2.341l-1.129.565,5.552,6.662A6.329,6.329,0,0,1,16.3,32.775Zm3.354,4.79A8.307,8.307,0,0,0,21.926,28H43a5.009,5.009,0,0,1,4.9,4H26.485a6.956,6.956,0,0,0-4.95,2.05L18.186,37.4ZM32,34h5.382l-.724,1.447a.994.994,0,0,1-.894.553H33a1,1,0,0,1-1-1ZM12,42.236a2.6,2.6,0,0,1,1.043-2.092A1.892,1.892,0,0,1,14,41.8a1.925,1.925,0,0,1-.558,1.348l-.149.149,1.414,1.414.149-.149a3.873,3.873,0,0,0,1.077-2.077l6.61-6.61A3.566,3.566,0,0,0,24.7,37.455l.359.09a1.246,1.246,0,0,1-.3,2.455H22v2h2.754a3.246,3.246,0,0,0,.788-6.395l-.359-.09a1.568,1.568,0,0,1-1.048-.9A4.944,4.944,0,0,1,26.485,34H30v1a3,3,0,0,0,3,3h2.764a2.984,2.984,0,0,0,2.683-1.658L39.618,34H42v.5A3.5,3.5,0,0,0,45.5,38,1.5,1.5,0,0,1,47,39.5v1A3.5,3.5,0,0,0,50.5,44h.719L49.94,49.116l1.635,3.271a4.039,4.039,0,0,1,.425,1.8,3.973,3.973,0,0,1-.207,1.271l-.1.311-3.735-.622a8.178,8.178,0,0,0-2.369-4.973l-1.536-1.536A6.954,6.954,0,0,1,42,43.686V40H40v3.687A8.942,8.942,0,0,0,41.1,48H29.915A4.041,4.041,0,0,0,30,47.274a4.1,4.1,0,0,0-1.194-2.882l-1.1-1.1-1.414,1.414,1.1,1.1a2.076,2.076,0,0,1,.389,2.4l-1.253,2.506A5.031,5.031,0,0,0,26,52.944v3.775l-2-.5V54.472a20.044,20.044,0,0,0-2.1-8.919l-1.789.9c.253.505.475,1.025.678,1.553h-1.11a5.272,5.272,0,0,0-1.228-1.968l-.739-.739-1.414,1.414.739.739A3.28,3.28,0,0,1,18,49.784a3.314,3.314,0,0,1-1.384,2.69l-4.245,3.032L10,50.764l-.524,1.048.318-3.495a2.994,2.994,0,0,1,1.654-2.423L12,45.618Zm-2,.538v1.653a4.982,4.982,0,0,0-.6.484A6.172,6.172,0,0,1,8.1,42.1,6.2,6.2,0,0,1,10,42.774Zm-4.691,14,3.138,1.569L10,55.236l1.553,3.106,3.138-1.569L14.153,60H5.847Z"/>
        <path id="Trazado_897461" data-name="Trazado 897461" d="M35,46h1V44H35a1,1,0,0,1,0-2h3V40H35a3,3,0,0,0,0,6Z"/>
        <path id="Trazado_897462" data-name="Trazado 897462" d="M44,16v6h2V20h2.1a4.961,4.961,0,0,0,.732,1.753l-1.54,1.54,1.414,1.414,1.54-1.54A4.961,4.961,0,0,0,52,23.9V26H50v2h6V26H54V23.9a4.961,4.961,0,0,0,1.753-.732l1.54,1.54,1.414-1.414-1.54-1.54A4.961,4.961,0,0,0,57.9,20H60v2h2V16H60v2H57.9a4.961,4.961,0,0,0-.732-1.753l1.54-1.54-1.414-1.414-1.54,1.54A4.961,4.961,0,0,0,54,14.1V12h2V10H50v2h2v2.1a4.961,4.961,0,0,0-1.753.732l-1.54-1.54-1.414,1.414,1.54,1.54A4.961,4.961,0,0,0,48.1,18H46V16Zm9,0a3,3,0,1,1-3,3A3,3,0,0,1,53,16Z"/>
        <path id="Trazado_897463" data-name="Trazado 897463" d="M4,7.816V10H6V7.816A3,3,0,0,0,7.816,6H10V4H7.816A3,3,0,0,0,6,2.184V0H4V2.184A3,3,0,0,0,2.184,4H0V6H2.184A3,3,0,0,0,4,7.816ZM5,4A1,1,0,1,1,4,5,1,1,0,0,1,5,4Z"/>
        <path id="Trazado_897464" data-name="Trazado 897464" d="M24.833,11.753l-1.54,1.54,1.414,1.414,1.54-1.54A4.961,4.961,0,0,0,28,13.9V16h2V13.9a4.961,4.961,0,0,0,1.753-.732l1.54,1.54,1.414-1.414-1.54-1.54A4.961,4.961,0,0,0,33.9,10H36V8H33.9a4.961,4.961,0,0,0-.732-1.753l1.54-1.54L33.293,3.293l-1.54,1.54A4.961,4.961,0,0,0,30,4.1V2H28V4.1a4.961,4.961,0,0,0-1.753.732l-1.54-1.54L23.293,4.707l1.54,1.54A4.961,4.961,0,0,0,24.1,8H22v2h2.1a4.961,4.961,0,0,0,.732,1.753ZM29,6a3,3,0,1,1-3,3,3,3,0,0,1,3-3Z"/>
        <path id="Trazado_897465" data-name="Trazado 897465" d="M6,37a3,3,0,1,0-3,3A3,3,0,0,0,6,37ZM2,37a1,1,0,1,1,1,1A1,1,0,0,1,2,37Z"/>
        <path id="Trazado_897466" data-name="Trazado 897466" d="M30,21a3,3,0,1,0,3-3A3,3,0,0,0,30,21Zm4,0a1,1,0,1,1-1-1A1,1,0,0,1,34,21Z"/>
        <path id="Trazado_897467" data-name="Trazado 897467" d="M41,6a3,3,0,1,0-3-3A3,3,0,0,0,41,6Zm0-4a1,1,0,1,1-1,1A1,1,0,0,1,41,2Z"/>
        <path id="Trazado_897468" data-name="Trazado 897468" d="M17,10a3,3,0,1,0-3-3A3,3,0,0,0,17,10Zm0-4a1,1,0,1,1-1,1A1,1,0,0,1,17,6Z"/>
        <path id="Trazado_897469" data-name="Trazado 897469" d="M59,8a3,3,0,1,0-3-3A3,3,0,0,0,59,8Zm0-4a1,1,0,1,1-1,1A1,1,0,0,1,59,4Z"/>
      </g>
    </g>
  </g>
</svg>
