<svg xmlns="http://www.w3.org/2000/svg" xmlns:xlink="http://www.w3.org/1999/xlink" width="82.073" height="82.073" viewBox="0 0 82.073 82.073">
  <defs>
    <clipPath id="clip-path">
      <path id="path2142" d="M0-682.665H61.823v61.823H0Z" transform="translate(0 682.665)"/>
    </clipPath>
  </defs>
  <g id="Grupo_1111196" data-name="Grupo 1111196" transform="translate(-439.051 -2237)">
    <rect id="Rectángulo_400898" data-name="Rectángulo 400898" width="82.073" height="82.073" rx="41.036" transform="translate(439.051 2237)" fill="#2a3c2a"/>
    <g id="g2136" transform="translate(449.051 2929.666)">
      <g id="g2138" transform="translate(0 -682.665)">
        <g id="g2140" clip-path="url(#clip-path)">
          <g id="g2146" transform="translate(53.477 30.911)">
            <path id="path2148" d="M0-146.989s.976-10.734,7.44-14.637c0,0-2.439,4.757-2.439,14.637Z" transform="translate(0 161.626)" fill="#9ec63d"/>
          </g>
          <g id="g2150" transform="translate(0.906 30.911)">
            <path id="path2152" d="M-74.719-146.989s-.976-10.734-7.44-14.637c0,0,2.439,4.757,2.439,14.637Z" transform="translate(82.16 161.626)" fill="#ecd833"/>
          </g>
          <g id="g2154" transform="translate(17.86 30.911)">
            <path id="path2156" d="M-74.718-146.989s-.976-10.734-7.44-14.637c0,0,2.439,4.757,2.439,14.637Z" transform="translate(82.158 161.626)" fill="#9ec63d"/>
          </g>
          <g id="g2158" transform="translate(36.522 30.911)">
            <path id="path2160" d="M0-146.989s.976-10.734,7.44-14.637c0,0-2.439,4.757-2.439,14.637Z" transform="translate(0 161.626)" fill="#ecd833"/>
          </g>
          <g id="g2162" transform="translate(13.957 17.128)">
            <path id="path2164" d="M-102.892,0l-3.321,3.321a14.856,14.856,0,0,0-4.158,8.116l-2.767,16.983h5.611l1.545-18.535a14.423,14.423,0,0,1,.843-3.8Z" transform="translate(113.138)" fill="#ecd833"/>
          </g>
          <g id="g2166" transform="translate(9.566 8.468)">
            <path id="path2168" d="M-88.192-372.372l-4.391-37.081-4.391,37.081Z" transform="translate(96.974 409.452)" fill="#b7e546"/>
          </g>
          <g id="g2170" transform="translate(3.711 17.128)">
            <path id="path2172" d="M0,0,3.321,3.321a14.857,14.857,0,0,1,4.158,8.116L10.246,28.42H4.635L3.091,9.885a14.428,14.428,0,0,0-.843-3.8Z" fill="#c9eb74"/>
          </g>
          <path id="path2174" d="M70.012-132.7H10v-3.9H70.012Z" transform="translate(-9.094 186.058)" fill="#c7865b"/>
          <path id="path2176" d="M640.817-132.7h-3.171v-3.9h3.171Z" transform="translate(-579.899 186.058)" fill="#b36d3c"/>
          <path id="path2178" d="M70.012-175.8H10v-3.9H70.012Z" transform="translate(-9.094 225.255)" fill="#92b738"/>
          <path id="path2180" d="M640.817-175.8h-3.171v-3.9h3.171Z" transform="translate(-579.899 225.255)" fill="#87a733"/>
          <g id="g2182" transform="translate(30.911 17.128)">
            <path id="path2184" d="M-102.892,0l-3.321,3.321a14.856,14.856,0,0,0-4.158,8.116l-2.767,16.983h5.611l1.545-18.535a14.418,14.418,0,0,1,.843-3.8Z" transform="translate(113.138)" fill="#abd641"/>
          </g>
          <g id="g2186" transform="translate(26.52 8.468)">
            <path id="path2188" d="M-88.194-372.372l-4.391-37.081-4.391,37.081Z" transform="translate(96.976 409.452)" fill="#b7e546"/>
          </g>
          <g id="g2190" transform="translate(20.666 17.128)">
            <path id="path2192" d="M0,0,3.321,3.321a14.856,14.856,0,0,1,4.158,8.116L10.246,28.42H4.635L3.09,9.885a14.418,14.418,0,0,0-.843-3.8Z" fill="#c9eb74"/>
          </g>
          <g id="g2194" transform="translate(47.866 17.128)">
            <path id="path2196" d="M-102.892,0l-3.321,3.321a14.857,14.857,0,0,0-4.158,8.116l-2.767,16.983h5.611l1.545-18.535a14.428,14.428,0,0,1,.843-3.8Z" transform="translate(113.138)" fill="#ecd833"/>
          </g>
          <g id="g2198" transform="translate(43.475 8.468)">
            <path id="path2200" d="M-88.192-372.372l-4.391-37.081-4.391,37.081Z" transform="translate(96.974 409.452)" fill="#b7e546"/>
          </g>
          <g id="g2202" transform="translate(37.62 17.128)">
            <path id="path2204" d="M0,0,3.321,3.321a14.856,14.856,0,0,1,4.158,8.116L10.246,28.42H4.635L3.091,9.885a14.423,14.423,0,0,0-.843-3.8Z" fill="#c9eb74"/>
          </g>
          <g id="g2206" transform="translate(52.571 30.006)">
            <path id="path2208" d="M-9.094-155.178q-.041,0-.083,0a.906.906,0,0,1-.82-.984c.042-.457,1.1-11.237,7.874-15.33a.906.906,0,0,1,1.086.113.906.906,0,0,1,.188,1.075c-.022.044-2.34,4.73-2.34,14.224a.906.906,0,0,1-.906.906A.906.906,0,0,1-5-156.084a45.274,45.274,0,0,1,1.384-11.782c-3.856,4.448-4.57,11.777-4.578,11.864A.906.906,0,0,1-9.094-155.178Z" transform="translate(10.001 171.626)"/>
          </g>
          <g id="g2210" transform="translate(0.001 30.006)">
            <path id="path2212" d="M-88.806-155.174a.906.906,0,0,1-.906-.906c0-9.494-2.317-14.18-2.341-14.226a.907.907,0,0,1,.191-1.074.905.905,0,0,1,1.084-.113c6.779,4.093,7.833,14.873,7.874,15.33a.905.905,0,0,1-.819.984.906.906,0,0,1-.984-.819c-.008-.087-.729-7.415-4.577-11.861A45.281,45.281,0,0,1-87.9-156.08.906.906,0,0,1-88.806-155.174Z" transform="translate(92.15 171.622)"/>
          </g>
          <g id="g2214" transform="translate(19.12 39.134)">
            <path id="path2216" d="M-11.849-63.507a.906.906,0,0,1-.906-.906,52.673,52.673,0,0,0-.269-5.415.906.906,0,0,1,.807-.994.906.906,0,0,1,.994.807,54.49,54.49,0,0,1,.279,5.6A.906.906,0,0,1-11.849-63.507Z" transform="translate(13.029 70.827)"/>
          </g>
          <g id="g2218" transform="translate(19.686 32.369)">
            <path id="path2220" d="M-4.386,4.085a.906.906,0,0,1-.9-.823c-.007-.073-.712-7.311-4.5-11.77a.906.906,0,0,1,.1-1.276.906.906,0,0,1,1.276.1C-4.242-4.778-3.512,2.778-3.483,3.1a.905.905,0,0,1-.819.984Q-4.345,4.085-4.386,4.085Z" transform="translate(10 10)"/>
          </g>
          <g id="g2222" transform="translate(40.617 39.134)">
            <path id="path2224" d="M-12.122-2.681a.906.906,0,0,1-.906-.906,54.49,54.49,0,0,1,.279-5.6A.906.906,0,0,1-11.755-10,.906.906,0,0,1-10.947-9a52.674,52.674,0,0,0-.269,5.415A.906.906,0,0,1-12.122-2.681Z" transform="translate(13.028 10.001)"/>
          </g>
          <g id="g2226" transform="translate(35.617 32.369)">
            <path id="path2228" d="M-9.094-131.448q-.041,0-.083,0a.906.906,0,0,1-.82-.984c.029-.319.758-7.875,4.921-12.778a.906.906,0,0,1,1.276-.1.906.906,0,0,1,.1,1.276c-3.8,4.47-4.491,11.7-4.5,11.77A.906.906,0,0,1-9.094-131.448Z" transform="translate(10.001 145.533)"/>
          </g>
          <g id="g2230" transform="translate(21.529 16.222)">
            <path id="path2232" d="M-8.281-25.139a.9.9,0,0,1-.314-.056.906.906,0,0,1-.588-.762.9.9,0,0,1-.552-.261.906.906,0,0,1,0-1.281l1.768-1.769a.906.906,0,0,1,1.129-.123.906.906,0,0,1,.361,1.076l-.954,2.583A.906.906,0,0,1-8.281-25.139Z" transform="translate(10 29.533)"/>
          </g>
          <g id="g2234" transform="translate(15.595 18.805)">
            <path id="path2236" d="M-9.095-110.919a.911.911,0,0,1-.146-.012.906.906,0,0,1-.749-1.039l.223-1.375a15.68,15.68,0,0,1,4.412-8.612l.738-.738a.906.906,0,0,1,1.281,0,.906.906,0,0,1,0,1.281l-.738.738a13.879,13.879,0,0,0-3.905,7.622l-.223,1.375A.906.906,0,0,1-9.095-110.919Z" transform="translate(10.001 122.96)"/>
          </g>
          <g id="g2238" transform="translate(18.662 21.012)">
            <path id="path2240" d="M-9.094-245.493q-.038,0-.076,0a.906.906,0,0,1-.827-.978l1.546-18.536a15.283,15.283,0,0,1,.9-4.036l.479-1.3a.906.906,0,0,1,1.163-.535.906.906,0,0,1,.535,1.163l-.479,1.3a13.473,13.473,0,0,0-.79,3.558l-1.546,18.537A.906.906,0,0,1-9.094-245.493Z" transform="translate(10.001 270.935)"/>
          </g>
          <g id="g2242" transform="translate(10.509 7.562)">
            <path id="path2244" d="M-78.723-380.56a.906.906,0,0,1-.9-.8l-3.491-29.486-1.644,13.879a.906.906,0,0,1-1.006.793.906.906,0,0,1-.793-1.006l2.543-21.474a.906.906,0,0,1,.9-.8.906.906,0,0,1,.9.8l4.39,37.081a.906.906,0,0,1-.793,1.006A.917.917,0,0,1-78.723-380.56Z" transform="translate(86.561 419.452)"/>
          </g>
          <g id="g2246" transform="translate(2.805 16.223)">
            <path id="path2248" d="M-9.1-10a.9.9,0,0,1,.641.265l3.321,3.321A15.67,15.67,0,0,1-.722,2.2L2.044,19.18a.906.906,0,0,1-.894,1.051H-4.46a.906.906,0,0,1-.9-.83L-6.907.865a13.523,13.523,0,0,0-.79-3.56L-9.945-8.781a.906.906,0,0,1,.361-1.076A.9.9,0,0,1-9.1-10ZM.086,18.42-2.51,2.488a13.87,13.87,0,0,0-3.9-7.622l-.4-.4L-6-3.321A15.335,15.335,0,0,1-5.1.715L-3.627,18.42Z" transform="translate(10.001 10)"/>
          </g>
          <g id="g2250" transform="translate(38.484 16.222)">
            <path id="path2252" d="M-8.281-25.139a.9.9,0,0,1-.314-.056.906.906,0,0,1-.588-.762.9.9,0,0,1-.552-.261.906.906,0,0,1,0-1.281l1.768-1.769a.906.906,0,0,1,1.129-.123.906.906,0,0,1,.361,1.076l-.954,2.583A.906.906,0,0,1-8.281-25.139Z" transform="translate(10 29.533)"/>
          </g>
          <g id="g2254" transform="translate(32.549 18.805)">
            <path id="path2256" d="M-9.095-110.894a.911.911,0,0,1-.147-.012.906.906,0,0,1-.748-1.039l.224-1.373a15.679,15.679,0,0,1,4.412-8.611l.738-.738a.906.906,0,0,1,1.281,0,.906.906,0,0,1,0,1.281l-.738.738a13.878,13.878,0,0,0-3.9,7.622l-.223,1.373A.906.906,0,0,1-9.095-110.894Z" transform="translate(10.002 122.933)"/>
          </g>
          <g id="g2258" transform="translate(35.617 21.012)">
            <path id="path2260" d="M-9.094-245.493q-.038,0-.076,0a.906.906,0,0,1-.827-.978l1.544-18.536a15.329,15.329,0,0,1,.9-4.036l.479-1.3a.906.906,0,0,1,1.163-.536.906.906,0,0,1,.536,1.163l-.479,1.3a13.517,13.517,0,0,0-.79,3.559l-1.544,18.536A.906.906,0,0,1-9.094-245.493Z" transform="translate(10.001 270.935)"/>
          </g>
          <g id="g2262" transform="translate(27.463 7.562)">
            <path id="path2264" d="M-78.735-380.56a.906.906,0,0,1-.9-.8l-3.492-29.487-1.644,13.877a.906.906,0,0,1-1.006.793.906.906,0,0,1-.793-1.006l2.543-21.47a.906.906,0,0,1,.9-.8.906.906,0,0,1,.9.8l4.392,37.081a.906.906,0,0,1-.793,1.006A.911.911,0,0,1-78.735-380.56Z" transform="translate(86.574 419.452)"/>
          </g>
          <g id="g2266" transform="translate(19.76 16.223)">
            <path id="path2268" d="M-9.1-10a.9.9,0,0,1,.641.265l3.321,3.321A15.669,15.669,0,0,1-.723,2.2L2.044,19.18a.906.906,0,0,1-.894,1.051H-4.46a.906.906,0,0,1-.9-.83L-6.907.865A13.514,13.514,0,0,0-7.7-2.694L-9.945-8.781a.906.906,0,0,1,.361-1.076A.9.9,0,0,1-9.1-10ZM.086,18.42-2.51,2.488a13.869,13.869,0,0,0-3.9-7.622l-.4-.4L-6-3.321A15.325,15.325,0,0,1-5.1.715L-3.627,18.42Z" transform="translate(10.001 10)"/>
          </g>
          <g id="g2270" transform="translate(49.503 16.223)">
            <path id="path2272" d="M-39.906-293.594q-.038,0-.076,0a.906.906,0,0,1-.827-.978l1.544-18.536a15.376,15.376,0,0,1,.9-4.036l.818-2.214-.4.4a13.879,13.879,0,0,0-3.9,7.622l-.225,1.377a.906.906,0,0,1-1.04.748.906.906,0,0,1-.748-1.04l.225-1.377a15.679,15.679,0,0,1,4.411-8.611l3.322-3.321a.906.906,0,0,1,1.129-.122.906.906,0,0,1,.361,1.076l-2.248,6.087a13.563,13.563,0,0,0-.79,3.559L-39-294.425A.906.906,0,0,1-39.906-293.594Z" transform="translate(43.881 323.826)"/>
          </g>
          <g id="g2274" transform="translate(44.417 7.562)">
            <path id="path2276" d="M-9.094-223.822a.917.917,0,0,1-.108-.006.906.906,0,0,1-.793-1.006l2.543-21.473a.906.906,0,0,1,.9-.8.906.906,0,0,1,.9.8l1.162,9.808a.906.906,0,0,1-.793,1.006.906.906,0,0,1-1.006-.793l-.262-2.215L-8.2-224.621A.906.906,0,0,1-9.094-223.822Z" transform="translate(10.001 247.106)"/>
          </g>
          <g id="g2278" transform="translate(48.619 21.567)">
            <path id="path2280" d="M-36.537-239.926a.906.906,0,0,1-.9-.8L-40.168-263.8a.906.906,0,0,1,.793-1.006.906.906,0,0,1,1.006.793l2.733,23.076a.906.906,0,0,1-.793,1.006A.911.911,0,0,1-36.537-239.926Z" transform="translate(40.174 264.814)"/>
          </g>
          <g id="g2282" transform="translate(36.714 16.223)">
            <path id="path2284" d="M-9.1-10a.9.9,0,0,1,.641.265l3.321,3.321A15.67,15.67,0,0,1-.722,2.2L2.044,19.18a.906.906,0,0,1-.894,1.051H-4.46a.906.906,0,0,1-.9-.83L-6.907.865A13.519,13.519,0,0,0-7.7-2.694L-9.945-8.781a.906.906,0,0,1,.361-1.076A.9.9,0,0,1-9.1-10ZM.086,18.42-2.51,2.488a13.869,13.869,0,0,0-3.9-7.622l-.4-.4L-6-3.321A15.33,15.33,0,0,1-5.1.715L-3.627,18.42Z" transform="translate(10.001 10)"/>
          </g>
          <g id="g2286" transform="translate(0 44.643)">
            <path id="path2288" d="M-547.694-86.582h-5.8a.906.906,0,0,1-.906-.906.906.906,0,0,1,.906-.906h4.9v-6h-58.2v6h49.079a.906.906,0,0,1,.906.906.906.906,0,0,1-.906.906h-49.985a.906.906,0,0,1-.906-.906v-7.806a.906.906,0,0,1,.906-.906h60.012a.906.906,0,0,1,.906.906v7.806A.906.906,0,0,1-547.694-86.582Z" transform="translate(608.612 96.2)"/>
          </g>
          <g id="g2290" transform="translate(9.901 48.546)">
            <path id="path2292" d="M-512.316-8.189h-50.11a.906.906,0,0,1-.906-.906.906.906,0,0,1,.906-.906h50.11a.906.906,0,0,1,.906.906A.906.906,0,0,1-512.316-8.189Z" transform="translate(563.332 10)"/>
          </g>
          <g id="g2294" transform="translate(0 48.546)">
            <path id="path2296" d="M-66.086-8.189h-5.675a.906.906,0,0,1-.906-.906A.906.906,0,0,1-71.761-10h5.675a.906.906,0,0,1,.906.906A.906.906,0,0,1-66.086-8.189Z" transform="translate(72.666 10)"/>
          </g>
        </g>
      </g>
    </g>
  </g>
</svg>
