<svg xmlns="http://www.w3.org/2000/svg" xmlns:xlink="http://www.w3.org/1999/xlink" width="370" height="227.33" viewBox="0 0 370 227.33">
  <defs>
    <clipPath id="clip-path">
      <rect id="Rectángulo_404493" data-name="Rectángulo 404493" width="370" height="227" transform="translate(203.051 1778)" fill="#ffcaad"/>
    </clipPath>
    <clipPath id="clip-path-2">
      <rect id="Rectángulo_404492" data-name="Rectángulo 404492" width="254.5" height="317.07" fill="#ffcaad"/>
    </clipPath>
    <clipPath id="clip-path-3">
      <rect id="Rectángulo_404492-2" data-name="Rectángulo 404492" width="223.784" height="278.802" fill="#ffcaad"/>
    </clipPath>
    <clipPath id="clip-path-4">
      <rect id="Rectángulo_404488" data-name="Rectángulo 404488" width="352.018" height="209.33" fill="none"/>
    </clipPath>
    <clipPath id="clip-path-6">
      <rect id="Rectángulo_404481" data-name="Rectángulo 404481" width="46.464" height="88.984" transform="translate(0)" fill="none"/>
    </clipPath>
    <clipPath id="clip-path-7">
      <rect id="Rectángulo_404482" data-name="Rectángulo 404482" width="34.665" height="93.223" transform="translate(0)" fill="none"/>
    </clipPath>
    <clipPath id="clip-path-8">
      <rect id="Rectángulo_404483" data-name="Rectángulo 404483" width="55.191" height="25.371" transform="translate(0)" fill="none"/>
    </clipPath>
    <clipPath id="clip-path-9">
      <rect id="Rectángulo_404484" data-name="Rectángulo 404484" width="17.072" height="22.086" fill="none"/>
    </clipPath>
    <clipPath id="clip-path-10">
      <rect id="Rectángulo_404485" data-name="Rectángulo 404485" width="41.18" height="48.063" transform="translate(0)" fill="none"/>
    </clipPath>
    <clipPath id="clip-path-11">
      <rect id="Rectángulo_404486" data-name="Rectángulo 404486" width="10.854" height="55.324" transform="translate(0)" fill="none"/>
    </clipPath>
  </defs>
  <g id="Grupo_1111195" data-name="Grupo 1111195" transform="translate(-203.051 -1778)">
    <rect id="Rectángulo_403792" data-name="Rectángulo 403792" width="370" height="227" transform="translate(203.051 1778)" fill="#fff2eb"/>
    <g id="Enmascarar_grupo_1098738" data-name="Enmascarar grupo 1098738" clip-path="url(#clip-path)">
      <g id="Grupo_1111193" data-name="Grupo 1111193" transform="translate(388.051 1699)">
        <rect id="Rectángulo_404490" data-name="Rectángulo 404490" width="19.239" height="66.138" transform="translate(168.743 233.908)" fill="#ffcaad"/>
        <g id="Grupo_1111192" data-name="Grupo 1111192">
          <g id="Grupo_1111191" data-name="Grupo 1111191" clip-path="url(#clip-path-2)">
            <path id="Trazado_897906" data-name="Trazado 897906" d="M268.933,242.746s-.947-.63,1.137-3.359-1.137-4.2-1.137-4.2c-9.092,5.249-21.784,0-21.784,0s14.964-4.619,16.858-9.027c1.415-3.293-1.08-3.658-2.433-3.631,1.527-.159,4.835-.7,5.843-2.457,1.326-2.309-3.882-5.039-3.882-5.039s.851-1.259,0-3.569-20.363-5.669-20.363-5.669c5.683.631,7.766-5.039,7.766-5.039s9.661.21,11.933-3.569-1.515-4.829-7.955-7.978S234.269,174.3,234.269,174.3s8.9-.84,11.365-2.94.19-2.519.19-2.519c10.607,1.05,7.009-4.619,7.009-4.619a47.43,47.43,0,0,1-21.784-14.067s6.63-1.469,10.04-4.619-2.842-3.989-2.842-3.989,12.5-1.68,5.3-6.3c-5.472-3.511-14.224-8.234-16.945-9.653,2.982,1.1,9.747-.215,9.747-.215,7.956-3.569,0-8.818,0-8.818-9.281-5.248-22.919-18.475-22.919-18.475s6.819,3.569,10.229,2.519-3.788-5.248-3.788-5.248,3.6,1.049,5.114,0-3.979-5.879-3.979-5.879c-8.165-5.3-18.232-19.23-22.442-25.211-4.21,5.981-14.277,19.906-22.442,25.211,0,0-5.492,4.829-3.978,5.879s5.114,0,5.114,0-7.2,4.2-3.788,5.248S183.7,98.094,183.7,98.094s-13.638,13.227-22.92,18.475c0,0-7.955,5.249,0,8.818,0,0,6.765,1.311,9.747.215-2.721,1.419-11.473,6.142-16.944,9.653-7.2,4.619,5.3,6.3,5.3,6.3s-6.251.84-2.841,3.989,10.04,4.619,10.04,4.619A47.43,47.43,0,0,1,144.3,164.227s-3.6,5.668,7.009,4.619c0,0-2.273.42.189,2.519s11.366,2.94,11.366,2.94-14.207,11.757-20.647,14.906-10.229,4.2-7.956,7.978,11.934,3.569,11.934,3.569,2.083,5.669,7.765,5.039c0,0-19.511,3.359-20.363,5.669s0,3.569,0,3.569-5.208,2.729-3.882,5.039c1.009,1.757,4.316,2.3,5.843,2.457-1.354-.027-3.848.338-2.434,3.631,1.894,4.409,16.859,9.027,16.859,9.027s-12.692,5.249-21.784,0c0,0-3.22,1.47-1.137,4.2s1.137,3.359,1.137,3.359-4.735-3.569-2.651,1.889,13.07,8.818,13.07,8.818-6.251,1.05-4.357,4.409,9.851,7.348,18.564,8.188,20.457-2.309,20.457-2.309-7.955,4.2-2.462,6.508,11.744-2.939,11.744-2.939-1.137,5.374,3.409,3.527a31,31,0,0,0,8.335-5.416s1.419,7.918,4.258,6.024c2.839,1.894,4.259-6.024,4.259-6.024a31,31,0,0,0,8.334,5.416c4.546,1.847,3.41-3.527,3.41-3.527s6.251,5.248,11.744,2.939-2.462-6.508-2.462-6.508,11.744,3.149,20.457,2.309,16.669-4.829,18.563-8.188-4.357-4.409-4.357-4.409,10.986-3.359,13.07-8.818-2.652-1.889-2.652-1.889" transform="translate(-17.615 -9.056)" fill="#ffcaad"/>
            <path id="Trazado_897907" data-name="Trazado 897907" d="M242.8,125.863l-.3-.137a1.065,1.065,0,0,1,.3.137" transform="translate(-34.167 -17.714)" fill="#ffcaad"/>
            <rect id="Rectángulo_404491" data-name="Rectángulo 404491" width="22.447" height="108.593" transform="translate(71.562 208.478)" fill="#ffcaad"/>
            <path id="Trazado_897908" data-name="Trazado 897908" d="M167.9,208.223s-1.1-.735,1.326-3.919-1.326-4.9-1.326-4.9c-10.607,6.124-25.414,0-25.414,0s17.458-5.389,19.668-10.533c1.65-3.842-1.26-4.268-2.839-4.237,1.782-.186,5.641-.817,6.817-2.867,1.547-2.694-4.529-5.879-4.529-5.879s.993-1.469,0-4.163-23.758-6.614-23.758-6.614c6.63.735,9.061-5.878,9.061-5.878s11.271.245,13.922-4.164-1.767-5.634-9.281-9.308-24.088-17.391-24.088-17.391,10.387-.98,13.259-3.43.222-2.939.222-2.939c12.375,1.224,8.177-5.388,8.177-5.388A55.344,55.344,0,0,1,123.7,100.2s7.735-1.715,11.713-5.388-3.315-4.654-3.315-4.654,14.586-1.96,6.188-7.349c-6.384-4.1-16.595-9.606-19.77-11.261,3.48,1.278,11.372-.251,11.372-.251,9.282-4.164,0-10.288,0-10.288-10.829-6.123-26.741-21.555-26.741-21.555s7.956,4.164,11.934,2.939-4.419-6.124-4.419-6.124,4.2,1.225,5.966,0-4.642-6.857-4.642-6.857C102.464,23.224,90.72,6.979,85.807,0,80.894,6.979,69.15,23.224,59.623,29.415c0,0-6.408,5.633-4.64,6.857s5.966,0,5.966,0-8.4,4.9-4.419,6.124,11.933-2.939,11.933-2.939S52.552,54.889,41.723,61.012c0,0-9.282,6.124,0,10.288,0,0,7.893,1.529,11.371.251-3.174,1.655-13.386,7.166-19.768,11.261-8.4,5.388,6.187,7.349,6.187,7.349s-7.293.98-3.314,4.654S47.911,100.2,47.911,100.2A55.338,55.338,0,0,1,22.5,116.615s-4.2,6.613,8.177,5.388c0,0-2.651.489.222,2.939s13.259,3.43,13.259,3.43S27.58,142.088,20.065,145.763s-11.934,4.9-9.282,9.308,13.923,4.164,13.923,4.164,2.43,6.613,9.061,5.878c0,0-22.765,3.919-23.758,6.614s0,4.163,0,4.163-6.076,3.185-4.529,5.879c1.176,2.05,5.035,2.681,6.816,2.867-1.58-.031-4.489.4-2.838,4.237,2.21,5.143,19.668,10.533,19.668,10.533s-14.807,6.124-25.414,0c0,0-3.758,1.714-1.326,4.9s1.326,3.919,1.326,3.919-5.525-4.164-3.094,2.2,15.248,10.288,15.248,10.288-7.294,1.224-5.083,5.143,11.491,8.573,21.657,9.553,23.868-2.7,23.868-2.7-9.282,4.9-2.873,7.593,13.7-3.429,13.7-3.429S65.811,243.15,71.115,241a36.176,36.176,0,0,0,9.724-6.319s1.655,9.239,4.967,7.028c3.312,2.21,4.968-7.028,4.968-7.028A36.16,36.16,0,0,0,100.5,241c5.3,2.155,3.978-4.114,3.978-4.114s7.293,6.124,13.7,3.429-2.874-7.593-2.874-7.593,13.7,3.674,23.868,2.7,19.448-5.634,21.657-9.553-5.083-5.143-5.083-5.143S168.565,216.8,171,210.428s-3.094-2.2-3.094-2.2" transform="translate(0)" fill="#ffcaad"/>
            <path id="Trazado_897909" data-name="Trazado 897909" d="M137.411,71.857l-.346-.16a1.245,1.245,0,0,1,.346.16" transform="translate(-19.312 -10.102)" fill="#ffcaad"/>
          </g>
        </g>
      </g>
      <g id="Grupo_1111194" data-name="Grupo 1111194" transform="translate(149.489 1737.269)">
        <rect id="Rectángulo_404490-2" data-name="Rectángulo 404490" width="16.917" height="58.156" transform="translate(58.49 205.677)" fill="#ffcaad"/>
        <g id="Grupo_1111192-2" data-name="Grupo 1111192" transform="translate(0 0)">
          <g id="Grupo_1111191-2" data-name="Grupo 1111191" clip-path="url(#clip-path-3)">
            <path id="Trazado_897906-2" data-name="Trazado 897906" d="M127.819,221.206s.832-.554-1-2.954,1-3.693,1-3.693c7.995,4.616,19.154,0,19.154,0s-13.158-4.061-14.824-7.938c-1.244-2.9.95-3.217,2.139-3.193-1.342-.14-4.251-.616-5.138-2.16-1.166-2.031,3.414-4.431,3.414-4.431a3.574,3.574,0,0,1,0-3.138c.749-2.031,17.906-4.985,17.906-4.985-5,.554-6.829-4.431-6.829-4.431s-8.495.185-10.493-3.138,1.332-4.246,7-7.015S158.3,161.024,158.3,161.024s-7.828-.739-9.993-2.585-.167-2.215-.167-2.215c-9.327.923-6.163-4.061-6.163-4.061a41.705,41.705,0,0,0,19.154-12.369s-5.83-1.292-8.828-4.061,2.5-3.507,2.5-3.507-10.994-1.477-4.664-5.538c4.811-3.087,12.507-7.24,14.9-8.488-2.622.964-8.57-.189-8.57-.189-7-3.138,0-7.754,0-7.754,8.161-4.615,20.153-16.245,20.153-16.245s-6,3.138-8.994,2.215,3.331-4.615,3.331-4.615-3.164.922-4.5,0,3.5-5.169,3.5-5.169c7.18-4.665,16.032-16.909,19.734-22.169,3.7,5.259,12.554,17.5,19.734,22.169,0,0,4.829,4.246,3.5,5.169s-4.5,0-4.5,0,6.329,3.692,3.331,4.615-8.994-2.215-8.994-2.215,11.992,11.63,20.154,16.245c0,0,7,4.616,0,7.754,0,0-5.948,1.153-8.57.189,2.392,1.248,10.089,5.4,14.9,8.488,6.33,4.061-4.663,5.538-4.663,5.538s5.5.739,2.5,3.507-8.828,4.061-8.828,4.061a41.705,41.705,0,0,0,19.154,12.369s3.164,4.984-6.163,4.061c0,0,2,.369-.166,2.215s-9.994,2.585-9.994,2.585,12.492,10.338,18.155,13.107,8.994,3.692,7,7.015-10.494,3.138-10.494,3.138-1.832,4.985-6.828,4.431c0,0,17.156,2.954,17.9,4.985a3.571,3.571,0,0,1,0,3.138s4.579,2.4,3.414,4.431c-.887,1.545-3.8,2.021-5.138,2.16,1.191-.023,3.384.3,2.14,3.193-1.666,3.877-14.824,7.938-14.824,7.938s11.16,4.616,19.154,0c0,0,2.831,1.293,1,3.693s-1,2.954-1,2.954,4.164-3.138,2.331,1.661-11.492,7.754-11.492,7.754,5.5.923,3.831,3.877-8.662,6.461-16.323,7.2-17.988-2.031-17.988-2.031,7,3.692,2.165,5.722-10.327-2.584-10.327-2.584,1,4.725-3,3.1a27.259,27.259,0,0,1-7.329-4.762s-1.248,6.963-3.744,5.3c-2.5,1.666-3.745-5.3-3.745-5.3a27.263,27.263,0,0,1-7.328,4.762c-4,1.624-3-3.1-3-3.1s-5.5,4.615-10.327,2.584,2.165-5.722,2.165-5.722-10.327,2.769-17.988,2.031-14.657-4.246-16.322-7.2,3.831-3.877,3.831-3.877-9.66-2.954-11.493-7.754,2.332-1.661,2.332-1.661" transform="translate(-125.021 -15.72)" fill="#ffcaad"/>
            <path id="Trazado_897907-2" data-name="Trazado 897907" d="M242.5,125.847l.261-.121a.936.936,0,0,0-.261.121" transform="translate(-202.168 -30.75)" fill="#ffcaad"/>
            <rect id="Rectángulo_404491-2" data-name="Rectángulo 404491" width="19.738" height="95.486" transform="translate(141.121 183.316)" fill="#ffcaad"/>
            <path id="Trazado_897908-2" data-name="Trazado 897908" d="M3.265,183.092s.971-.646-1.166-3.446,1.166-4.307,1.166-4.307c9.327,5.385,22.347,0,22.347,0S10.261,170.6,8.317,166.077c-1.451-3.378,1.108-3.753,2.5-3.726-1.567-.163-4.96-.718-5.994-2.521-1.361-2.369,3.983-5.169,3.983-5.169s-.873-1.292,0-3.661,20.89-5.816,20.89-5.816c-5.83.647-7.967-5.169-7.967-5.169s-9.91.215-12.242-3.661,1.554-4.954,8.161-8.184,21.181-15.292,21.181-15.292-9.133-.862-11.658-3.016-.195-2.584-.195-2.584c-10.882,1.076-7.19-4.738-7.19-4.738A48.665,48.665,0,0,0,42.129,88.109s-6.8-1.508-10.3-4.738,2.915-4.092,2.915-4.092S21.92,77.555,29.3,72.817c5.614-3.6,14.592-8.446,17.384-9.9-3.06,1.124-10-.221-10-.221-8.162-3.662,0-9.046,0-9.046C46.21,48.264,60.2,34.695,60.2,34.695s-7,3.662-10.494,2.584,3.886-5.385,3.886-5.385-3.692,1.077-5.246,0,4.082-6.03,4.082-6.03C60.8,20.421,71.131,6.136,75.452,0,79.771,6.136,90.1,20.421,98.475,25.865c0,0,5.635,4.953,4.08,6.03s-5.246,0-5.246,0,7.384,4.308,3.886,5.385S90.7,34.695,90.7,34.695s13.991,13.57,23.513,18.953c0,0,8.162,5.385,0,9.046,0,0-6.94,1.345-10,.221,2.791,1.456,11.77,6.3,17.382,9.9,7.385,4.738-5.441,6.462-5.441,6.462s6.413.862,2.914,4.092-10.3,4.738-10.3,4.738a48.659,48.659,0,0,0,22.348,14.432s3.692,5.814-7.19,4.738c0,0,2.331.43-.195,2.584s-11.659,3.016-11.659,3.016,14.574,12.061,21.181,15.292,10.494,4.307,8.162,8.184-12.242,3.661-12.242,3.661-2.137,5.815-7.967,5.169c0,0,20.017,3.446,20.89,5.816s0,3.661,0,3.661,5.343,2.8,3.983,5.169c-1.034,1.8-4.427,2.358-5.993,2.521,1.389-.027,3.947.347,2.5,3.726-1.943,4.523-17.295,9.261-17.295,9.261s13.02,5.385,22.347,0c0,0,3.3,1.507,1.166,4.307s-1.166,3.446-1.166,3.446,4.858-3.661,2.72,1.938-13.408,9.046-13.408,9.046,6.414,1.076,4.47,4.523-10.1,7.538-19.043,8.4-20.987-2.37-20.987-2.37,8.162,4.308,2.526,6.676-12.048-3.015-12.048-3.015,1.166,5.512-3.5,3.618a31.81,31.81,0,0,1-8.551-5.556s-1.456,8.124-4.368,6.18c-2.912,1.944-4.369-6.18-4.369-6.18a31.8,31.8,0,0,1-8.551,5.556c-4.663,1.895-3.5-3.618-3.5-3.618s-6.413,5.385-12.048,3.015,2.527-6.676,2.527-6.676S37.466,207.861,28.527,207s-17.1-4.954-19.043-8.4,4.47-4.523,4.47-4.523S2.681,190.631.544,185.031s2.721-1.938,2.721-1.938" transform="translate(72.882)" fill="#ffcaad"/>
            <path id="Trazado_897909-2" data-name="Trazado 897909" d="M137.065,71.838l.3-.141a1.094,1.094,0,0,0-.3.141" transform="translate(-17.127 -17.536)" fill="#ffcaad"/>
          </g>
        </g>
      </g>
    </g>
    <g id="Grupo_1111189" data-name="Grupo 1111189" transform="translate(1 -0.149)">
      <g id="Grupo_1111188" data-name="Grupo 1111188" transform="translate(212.042 1796.149)">
        <g id="Grupo_1111187" data-name="Grupo 1111187" clip-path="url(#clip-path-4)">
          <g id="Grupo_1111186" data-name="Grupo 1111186">
            <g id="Grupo_1111185" data-name="Grupo 1111185" clip-path="url(#clip-path-4)">
              <path id="Trazado_897870" data-name="Trazado 897870" d="M275.625,121.414c0,.724-4.1,17.021-3.742,23.419s1.023,15.693,1.538,18.832,7.033,20.4,8.964,23.3,13.4,13.52,13.4,13.52l-19.194-.845s.6-5.674-6.519-6.519c0,0-4.466-13.52-6.4-20.642s-12.434-33.921-13.882-36.336.724-5.191,2.656-13.882,8.933-10.985,9.536-10.744,13.641,9.9,13.641,9.9" transform="translate(-193.087 0)" fill="#e0e0e0"/>
              <path id="Trazado_897871" data-name="Trazado 897871" d="M295.825,200.523l-.072-.067c-.114-.1-11.486-10.653-13.395-13.514-1.949-2.924-8.452-20.2-8.958-23.283-.493-3.018-1.143-11.876-1.537-18.828-.279-4.918,2.065-15.6,3.192-20.736.332-1.511.551-2.51.551-2.681V121.4l-.015-.011c-.532-.393-13.047-9.663-13.649-9.9a.372.372,0,0,0-.135-.018,6.085,6.085,0,0,0-2.247.787,14.559,14.559,0,0,0-7.2,10c-.719,3.24-1.462,5.624-2.06,7.54-1,3.223-1.507,4.841-.592,6.369,1.44,2.4,11.9,29.024,13.88,36.327,1.91,7.042,6.354,20.509,6.4,20.644l.007.022.022,0c2.021.24,4.686,1.051,5.9,3.557a6.005,6.005,0,0,1,.586,2.923l0,.037.037,0Zm-20.291-79.091c-.013.207-.228,1.188-.549,2.648-1.127,5.138-3.473,15.827-3.194,20.753.395,6.955,1.045,15.816,1.54,18.837.505,3.09,7.017,20.384,8.969,23.311,1.832,2.749,12.362,12.558,13.335,13.461l-19.061-.837a6.113,6.113,0,0,0-.6-2.925c-1.225-2.524-3.9-3.348-5.936-3.593-.2-.617-4.516-13.712-6.389-20.62-1.983-7.306-12.448-33.945-13.887-36.344-.9-1.5-.4-3.108.6-6.312.6-1.917,1.342-4.3,2.062-7.544a14.49,14.49,0,0,1,7.166-9.953,5.949,5.949,0,0,1,2.216-.779.278.278,0,0,1,.105.014c.585.233,13.11,9.505,13.62,9.883" transform="translate(-193.032 0)" fill="#263238"/>
              <g id="Grupo_1111169" data-name="Grupo 1111169" transform="translate(56.233 111.499)" opacity="0.3">
                <g id="Grupo_1111168" data-name="Grupo 1111168" transform="translate(0)">
                  <g id="Grupo_1111167" data-name="Grupo 1111167" transform="translate(0)" clip-path="url(#clip-path-6)">
                    <path id="Trazado_897872" data-name="Trazado 897872" d="M275.625,121.414c0,.724-4.1,17.021-3.742,23.419s1.023,15.693,1.538,18.832,7.033,20.4,8.964,23.3,13.4,13.52,13.4,13.52l-19.194-.845s.6-5.674-6.519-6.519c0,0-4.466-13.52-6.4-20.642s-12.434-33.921-13.882-36.336.724-5.191,2.656-13.882,8.933-10.985,9.536-10.744,13.641,9.9,13.641,9.9" transform="translate(-249.32 -111.499)"/>
                  </g>
                </g>
              </g>
              <path id="Trazado_897873" data-name="Trazado 897873" d="M271.365,200.483l-19.194-.845s.072-3.828-2.85-5.37l14.413-1.08Z" transform="translate(-168.668 0)" fill="#263238"/>
              <path id="Trazado_897874" data-name="Trazado 897874" d="M340.574,9.375a22.064,22.064,0,0,0-24.895,20.894c-.431,9.671,6.412,19.025,4.559,28.527-2.5,12.84-11.194,20.588-14.376,36.636l2.105,1.154a78.7,78.7,0,0,1,13.208-28.343c9.867-13.077-2.849-26.944,2.331-37.044s7.552-11.983,7.552-11.983Z" transform="translate(-294.418 0)" fill="#fff"/>
              <path id="Trazado_897875" data-name="Trazado 897875" d="M340.871,9.375l-9.608,9.752.012-.011A29.882,29.882,0,0,0,327.21,24.7c-1.295,2.161-2.629,4.52-3.906,7.166-1.208,2.743-1.15,6.022-.636,9.248.5,3.256,1.422,6.591,1.99,10.134a24.131,24.131,0,0,1-.378,11.038,18.553,18.553,0,0,1-2.59,5.227c-1.151,1.631-2.394,3.282-3.493,5.041a76.937,76.937,0,0,0-5.96,11.3,75.577,75.577,0,0,0-4.228,12.679l.38-.176L306.284,95.2l.13.279c.174-.769.362-1.6.55-2.433a60.335,60.335,0,0,1,3.386-9.872c1.377-3.151,2.964-6.155,4.5-9.121a78.981,78.981,0,0,0,4.13-8.955,39.824,39.824,0,0,0,1.408-4.582,22.779,22.779,0,0,0,.471-2.316l.163-1.167.044-1.169a30.354,30.354,0,0,0-1.359-8.9c-.776-2.813-1.689-5.486-2.375-8.119a30.454,30.454,0,0,1-1.157-7.737,20.845,20.845,0,0,1,1.218-7.082,21.807,21.807,0,0,1,15.492-14.1,22.707,22.707,0,0,1,5.9-.663c.687.017,1.2.048,1.535.077l.544.034-.51-.075a14.422,14.422,0,0,0-1.566-.141,21.891,21.891,0,0,0-5.955.571,21.968,21.968,0,0,0-15.791,14.175,21.2,21.2,0,0,0-1.273,7.2,30.712,30.712,0,0,0,1.142,7.848c.682,2.655,1.587,5.334,2.35,8.131a29.93,29.93,0,0,1,1.321,8.769L320.544,57l-.16,1.134a22.473,22.473,0,0,1-.469,2.275,39.073,39.073,0,0,1-1.4,4.525,78.951,78.951,0,0,1-4.115,8.893c-1.541,2.961-3.137,5.975-4.525,9.149a60.59,60.59,0,0,0-3.418,9.955c-.19.841-.379,1.68-.555,2.456l-.041.184.172.1,2.105,1.153.3.165.079-.341a75.4,75.4,0,0,1,4.189-12.581,76.8,76.8,0,0,1,5.907-11.239c1.1-1.757,2.308-3.372,3.472-5.029a19.023,19.023,0,0,0,2.645-5.368,24.54,24.54,0,0,0,.362-11.246c-.585-3.573-1.517-6.9-2.027-10.126-.522-3.2-.586-6.39.569-9.045,1.239-2.6,2.571-5,3.841-7.146a30.261,30.261,0,0,1,3.958-5.541l.013-.011,7.036-7.4,1.8-1.9c.4-.425.59-.635.59-.635" transform="translate(-294.715 0)" fill="#263238"/>
              <path id="Trazado_897876" data-name="Trazado 897876" d="M333.386,98.33c2.268-3.8,6.738-6.524,11.034-5.944l-1.134-.238c4.02-.188,7.372,3.487,8.314,7.4s.094,8-.617,11.965a32.3,32.3,0,0,0-.675,7.756,1.442,1.442,0,0,1-2.566,1.02,14.608,14.608,0,0,1-1.352-2q-.414,5.737-.827,11.473a2.408,2.408,0,0,1-.371,1.342,2.216,2.216,0,0,1-2.287.4,14.549,14.549,0,0,1-8.985-7.421,28.715,28.715,0,0,1-2.977-11.534c-.38-4.874-.061-10.023,2.443-14.222" transform="translate(-330.809 0)" fill="#263238"/>
              <path id="Trazado_897877" data-name="Trazado 897877" d="M170.415,129.3c-.157.784-8.941,23.058-11.137,26.038s-3.608,2.2-5.176,6.118-4.235,22.9-4.549,25.881a14.737,14.737,0,0,0,1.255,6.432l6.853,8.6s-12.971.809-15.794-.6-6.117-6.9-6.117-6.9,2.666-2.667,1.411-5.8-1.411-3.765-1.411-3.765S145,160.047,145,154.4s-1.726-7.529-.471-12.705,6.588-32.313,6.588-32.313,17.1,7.059,17.412,7.529,1.882,12.392,1.882,12.392" transform="translate(45.853 0)" fill="#e0e0e0"/>
              <g id="Grupo_1111172" data-name="Grupo 1111172" transform="translate(181.603 110.32)" opacity="0.3">
                <g id="Grupo_1111171" data-name="Grupo 1111171" transform="translate(0)">
                  <g id="Grupo_1111170" data-name="Grupo 1111170" transform="translate(0)" clip-path="url(#clip-path-7)">
                    <path id="Trazado_897878" data-name="Trazado 897878" d="M170.415,130.241c-.157.784-8.941,23.058-11.137,26.038s-3.608,2.2-5.176,6.118-4.235,22.9-4.549,25.881a14.737,14.737,0,0,0,1.255,6.432l6.853,8.6s-12.971.809-15.794-.6-6.117-6.9-6.117-6.9,2.666-2.667,1.411-5.8-1.411-3.765-1.411-3.765S145,160.985,145,155.338s-1.726-7.529-.471-12.705,6.588-32.313,6.588-32.313,17.1,7.059,17.412,7.529,1.882,12.392,1.882,12.392" transform="translate(-135.75 -110.32)"/>
                  </g>
                </g>
              </g>
              <path id="Trazado_897879" data-name="Trazado 897879" d="M297.509,113.8s-21.064,33.452-56.8,5.236l2.705-22.723,31.507-14.9,20.77,5.963Z" transform="translate(-186.196 0)" fill="#ff725e"/>
              <path id="Trazado_897880" data-name="Trazado 897880" d="M263.759,123.32a67.286,67.286,0,0,1,2.165,8.67c.274,1.515.456,3.3-.281,4.48-.8,1.275-2.338,1.093-3.3.07a11.136,11.136,0,0,1-2-4.179l-2.133-6.62Z" transform="translate(-172.351 0)" fill="#ff725e"/>
              <path id="Trazado_897881" data-name="Trazado 897881" d="M249.147,118.871a67.3,67.3,0,0,1,5.652,6.922c.893,1.254,1.82,2.795,1.654,4.173-.18,1.493-1.649,1.984-2.96,1.471a11.121,11.121,0,0,1-3.589-2.929q-2.376-2.539-4.75-5.08Z" transform="translate(-149.608 0)" fill="#ff725e"/>
              <path id="Trazado_897882" data-name="Trazado 897882" d="M283.586,125.861a67.23,67.23,0,0,1-3.052,8.4c-.619,1.409-1.469,3-2.737,3.557-1.375.611-2.549-.4-2.779-1.789a11.131,11.131,0,0,1,.677-4.583l1.932-6.681Z" transform="translate(-206.524 0)" fill="#ff725e"/>
              <g id="Grupo_1111175" data-name="Grupo 1111175" transform="translate(56.233 89.167)" opacity="0.3">
                <g id="Grupo_1111174" data-name="Grupo 1111174" transform="translate(0)">
                  <g id="Grupo_1111173" data-name="Grupo 1111173" transform="translate(0)" clip-path="url(#clip-path-8)">
                    <path id="Trazado_897883" data-name="Trazado 897883" d="M295.683,113.393a6.264,6.264,0,0,1-4.6-1.82c-2.443-2.123-10.194-9.769-10.194-9.769s-5.31-4.46-8.177-4.672-5.2-.85-7.964,0-10.831,6.265-13.91,9.875-4.7,6.634-7.115,7.433-3.128-3.578-3.128-3.578l8.65-14.9,13.486-5.628,6.371-1.168,8.07.955,6.9,2.974,4.46,4.035,3.929,4.035s2.23,4.884,2.336,5.2.987,4.492.987,4.492Z" transform="translate(-240.594 -89.167)"/>
                  </g>
                </g>
              </g>
              <path id="Trazado_897884" data-name="Trazado 897884" d="M14.55,159.848c2.211-10.809,1.965-24.811,4.176-33.163s10.317-19.652,11.546-33.409-.983-43.52-.983-43.52C28.333,43.505,26.9,33.724,26.9,31.451c0-3.405,0-21.505,10.393-24.91s23.476-5.018,58.78-3.225a201.452,201.452,0,0,0,26.7-1.972c16.487-2.15,54.658-.717,65.41,0s32.257,5.735,43.368,9.5,35.124,14.874,41.217,26.164,5.735,17.562,11.649,27.956,27.418,46.594,29.748,48.386,3.4,3.4,3.942,3.225,2.855-3.681,10.212-.8a9.035,9.035,0,0,1,2.877,2.416,16.7,16.7,0,0,1,2.681,8.063q.015.361,0,.717c-.125,4.187-2.711,7.927-3.05,11.828-.358,4.122,0,7.347-1.075,11.11s-2.509,2.868-2.509,5.556-.9,29.031,0,32.078,1.891,7.705-.4,8.781c-1.808.849-7.438,1.474-9.729,1.7a1.96,1.96,0,0,1-1.644-.636l-6.329-6.978v6.734a.648.648,0,0,1-.9.6c-2.352-1.01-8.52-3.934-8.954-6.976-.538-3.763-.9-5.2-.9-5.2S287.639,168.9,286.206,164.78s-2.867-7.527-4.66-11.649-2.867-8.96-6.809-14.336-12.007-7.706-12.007-7.706l-6.81-1.434a16.778,16.778,0,0,1-10.931,3.226c-6.631-.358-16.667,1.254-19,.179l-2.467-1.145a.01.01,0,0,0-.015.008c-.912,8.637-.759,17.7-1.593,23.883-1,7.439-2,10.015-2,10.015s2.06,23.541,3.781,24.763a34.759,34.759,0,0,1,11.855,15.2l-18.068-.335s-2.52-6.125-4.2-7.385l-2.858-1.624s-.525-19.317-1.1-24.61.429-8.727-2.575-14.02a29.515,29.515,0,0,1-3.576-9.728l-2.729-30.559c-4.671-2.861-9.386-5.483-12.448-6.5-8.064-2.688-25.088,5.734-37.633,6.451s-20.608,1.972-22.938,2.868-3.584,1.792-5.735.9-3.4-1.792-5.018-2.33-13.261-5.376-13.261-5.376S96.248,99.37,89.438,95.965c-4.179-2.09-8.356-3.773-10.961-4.763-5.005,2.03-10.7,4.493-13.323,6.645-4.913,4.027-13.756,10.169-16.213,18.03s-4.422,12.036-9.089,20.143-11.665,20.389-12.956,31.2,0,32.18,0,32.18l7.306,8.844-16.7.982s-4.63-3.813-4.139-7.253,1.122-5.521-.318-8.223-2.913-1.545-2.913-1.545,2.211-21.546,4.422-32.355" transform="translate(8.008 0)" fill="#fff"/>
              <path id="Trazado_897885" data-name="Trazado 897885" d="M10.194,131.023c.007.053.1.023.152.039.825.251,8.212,2.612,11.931,7.683,3.943,5.376,5.018,10.215,6.81,14.336s3.226,7.527,4.659,11.649c1.327,3.812,10.626,18.358,12.013,20.519a1.746,1.746,0,0,1,.246.591c.131.607.429,2.114.823,4.875.457,3.2,7.251,6.264,9.286,7.115a.412.412,0,0,0,.571-.384v-6.467a.24.24,0,0,1,.418-.161l5.944,6.553a1.856,1.856,0,0,0,1.56.6c2.256-.221,7.958-.85,9.779-1.705,2.29-1.075,1.294-5.735.4-8.781s0-29.39,0-32.078,1.433-1.792,2.508-5.555.717-6.989,1.076-11.111c.339-3.9,2.925-7.64,3.049-11.827q.012-.357,0-.717a16.686,16.686,0,0,0-2.682-8.063,9.015,9.015,0,0,0-2.876-2.416c-7.357-2.879-9.69.628-10.212.8-.538.18-1.613-1.433-3.943-3.225S37.868,75.306,31.954,64.912c0,0-4.012,13.9-2.443,27.5s5.229,17.78-2.092,23.009-18.239,7.672-17.225,15.6" transform="translate(260.467 0)" fill="#263238"/>
              <path id="Trazado_897886" data-name="Trazado 897886" d="M46.886,138.9c1.148-.1,10.069,1.7,13.186,9.914s.992,19.839,3.826,23.665,5.114,11.795,5.114,11.795c-3.874-6.437-9.612-15.924-11.029-19.75s-3.092-6.692-5.248-13.114c0,0-1.7-6.079-3.465-8.375a16.043,16.043,0,0,1-2.384-4.135" transform="translate(236.12 0)" fill="#fff"/>
              <path id="Trazado_897887" data-name="Trazado 897887" d="M20.046,168.436a8.352,8.352,0,0,1-3.225-8.221,12.279,12.279,0,0,0,.211-1.612,6.751,6.751,0,0,0-2.279-5.845,3.3,3.3,0,0,1-.979-.882c-.436-.765.049-1.711.538-2.444,1.88-2.811,4.119-5.577,7.224-6.918s7.257-.784,9.1,2.048l1.022,1.8a20.306,20.306,0,0,1-.653,3.5c-1.076,3.764-2.509,2.868-2.509,5.556,0,1.472-.179,4.461-.275,12.411l-3.06,1.406s-4.887-.618-5.112-.786l-.008-.006" transform="translate(306.751 0)" fill="#fff"/>
              <path id="Trazado_897888" data-name="Trazado 897888" d="M26.866,156.538c.091.028.428-.683.441-1.932a7.027,7.027,0,0,0-5.777-6.932c-1.231-.212-1.991-.009-1.98.086" transform="translate(305.16 0)" fill="#263238"/>
              <path id="Trazado_897889" data-name="Trazado 897889" d="M21.864,148.55a4.952,4.952,0,0,0-1.045,4.756,2.349,2.349,0,0,0,2.5,1.05,4.345,4.345,0,0,0,2.716-1.513,6.342,6.342,0,0,0-1.855-3.36c-1.569-1.454-2.316-.933-2.316-.933" transform="translate(305.407 0)" fill="#263238"/>
              <path id="Trazado_897890" data-name="Trazado 897890" d="M108.458,198.063h17.536s4.372,3.852,4.732,7.72l-18.069-.335Z" transform="translate(112.834 0)" fill="#263238"/>
              <path id="Trazado_897891" data-name="Trazado 897891" d="M19.67,195.161a1.865,1.865,0,0,0,1.9-.7,2.6,2.6,0,0,0,.438-2.037,4.38,4.38,0,0,0-.928-1.912c-.328-.415-.838-.825-1.335-.644a1.251,1.251,0,0,0-.642.771,5.145,5.145,0,0,0,.435,4.608" transform="translate(311.213 0)" fill="#455a64"/>
              <path id="Trazado_897892" data-name="Trazado 897892" d="M163.562,194.709l-13.8-.8-1.254,1.9s3.686,6.7,6.469,7.415,15.442.09,15.442.09Z" transform="translate(33.099 0)" fill="#263238"/>
              <path id="Trazado_897893" data-name="Trazado 897893" d="M330.861,208.241l-7.307-8.844-13.246.517s-1.489,3.6-.469,5.328,4.318,3.982,4.318,3.982l17.03-.838" transform="translate(-288.651 0)" fill="#263238"/>
              <path id="Trazado_897894" data-name="Trazado 897894" d="M120.218,112.3c-.13-.006-.192,1.38-.679,3.533a24.781,24.781,0,0,1-9.1,14.184c-1.756,1.339-2.989,1.972-2.93,2.088a10.4,10.4,0,0,0,3.237-1.663,22.335,22.335,0,0,0,9.312-14.507,10.363,10.363,0,0,0,.165-3.635" transform="translate(124.216 0)" fill="#263238"/>
              <path id="Trazado_897895" data-name="Trazado 897895" d="M264.983,57.96c-.131,0-.075,2.033-.38,5.278A51.395,51.395,0,0,1,256.2,86.962c-1.807,2.712-3.128,4.254-3.029,4.339a5.358,5.358,0,0,0,1.021-1,32.734,32.734,0,0,0,2.439-3.038,45.859,45.859,0,0,0,8.5-23.982,32.783,32.783,0,0,0,.019-3.9,5.327,5.327,0,0,0-.162-1.422" transform="translate(-166.337 0)" fill="#263238"/>
              <path id="Trazado_897896" data-name="Trazado 897896" d="M81.593,38.3c-1.033-6.715,2.823-13.108,6.518-18.81q1.986-3.065,3.973-6.13A14.37,14.37,0,0,1,95.074,9.7c2.3-1.8,5.413-2.034,8.327-2.194,2.824-.155,5.81-.277,8.308,1.049s4.158,4.663,2.688,7.079c-1.385,2.277-4.729,2.69-6.187,4.922-1.909,2.921.493,6.658.851,10.13s-1.406,6.745-2.419,10.079-.976,7.6,1.907,9.56c2.633-1.291,2.79-4.87,3.249-7.766a38.528,38.528,0,0,1,3.069-9.127,12.422,12.422,0,0,1,2.4-4.045,4.225,4.225,0,0,1,4.312-1.2c1.465.564,2.26,2.1,3.144,3.4s2.319,2.57,3.837,2.172c1.705-.446,2.224-2.7,1.762-4.406s-1.552-3.2-1.88-4.928c-.753-3.971,3.2-10.061,4.886-13.733L152.59,21.018c.143,9.248,3.955,21.122,6.823,29.916,3.026,5.136,2.318,25.089-.65,30.259s-6.9,10.067-7.76,15.966a31.051,31.051,0,0,1-.652,4.4,4.657,4.657,0,0,1-2.77,3.257,2.741,2.741,0,0,1-3.176-1.263c.8,2.953,1.479,6.084.452,8.939-1.1,3.069-5.089,5.272-7.74,3.372-4.046-2.9-.186-10.219-3.459-13.969-1.337-1.532-3.517-1.995-5.154-3.2-4.583-3.378-4.036-11.693-9.317-13.823-1.329-.537-2.818-.547-4.166-1.034-2.4-.866-4.007-3.082-6-4.673s-5.19-2.445-6.928-.575a4.9,4.9,0,0,0-.713,4.613c.429,1.568,1.246,3.011,1.654,4.585.865,3.347-.2,6.857-1.251,10.15-1.922,6.007-6.278,8.078-8.2,14.085L84.649,107.1c-2.5-7.609-3.215-8.229-1.921-16.132.834-5.1,3.209-9.783,5.125-14.578,2.574-6.442,4.348-13.67,2.2-20.266C88,49.837,82.6,44.834,81.593,38.3" transform="translate(109.231 0)" fill="#263238"/>
              <path id="Trazado_897897" data-name="Trazado 897897" d="M183.75,20.935c.815-2.117,3.465-2.947,4.62-4.9,2.433-4.115-2.056-9.208.858-13,10.06-.656,23.24-.366,37.428.229,3.424,5.6,1.706,10.641.749,13.188s-1.1,5.949,1.168,7.457c1.817,1.209,4.4.506,5.973-1a14.958,14.958,0,0,0,3.176-5.66,38.11,38.11,0,0,1,4.809-9.566c2.168-2.85,5.28-5.161,8.834-5.6a124.584,124.584,0,0,1,26.4-1.56c5.173,1.954,9.2,10.829,9.733,16.334s-.279,11.146.968,16.534c.98,4.229,3.217,8.266,3,12.6-.317,6.425-5.979,12.146-4.721,18.455.746,3.74,3.817,6.663,4.714,10.37.746,3.082-.1,6.3-.94,9.359-1.277,4.648-3.378,10.1-8.11,11.022-4.917.958-9.092-3.831-10.835-8.528s-2.411-10.043-5.817-13.717c-2.842-3.066-7.415-4.744-8.835-8.677-1.134-3.142.21-6.616,1.851-9.526s3.648-5.792,3.941-9.12-2.044-7.18-5.38-7.006c-2.578.135-4.475,2.546-5.325,4.984s-1.026,5.093-2.084,7.447c-1.627,3.617-5.307,6.588-5.066,10.546.227,3.732,3.839,6.218,7.116,8.018s6.976,3.989,7.631,7.669c.779,4.384-3.265,8.116-7.259,10.087s-8.633,3.392-11.1,7.1c-1.118,1.681-1.665,3.682-2.706,5.411s-2.872,3.26-4.873,2.989c-3.018-.409-4.054-4.385-3.414-7.363s2.226-5.9,1.691-8.893c-.46-2.576-2.384-4.592-3.916-6.714s-2.75-4.93-1.62-7.291c1.291-2.7,5.357-4.277,4.761-7.209-.555-2.726-4.69-3.109-5.869-5.629-1.527-3.265,3-6.535,2.679-10.125-.295-3.248-4.146-4.7-7.325-5.427-2.63-.6-5.741-1.088-7.727.738-2.046,1.882-2.018,5.548-4.45,6.894-2.374,1.313-5.351-.657-6.637-3.046s-1.651-5.216-3.116-7.5c-1.486-2.317-3.939-3.822-5.758-5.887s-2.922-5.329-1.232-7.5a13.733,13.733,0,0,1-5.849-1.717c-1.708-1.135-2.879-3.359-2.142-5.272" transform="translate(-123.26 0)" fill="#263238"/>
              <path id="Trazado_897898" data-name="Trazado 897898" d="M14.4,159.848s-.631,2.761-1.452,8.2c-.837,5.434-1.915,13.532-3.051,24.149l-.019.179.151-.106a1.324,1.324,0,0,1,1.022-.2,1.92,1.92,0,0,1,.947.562,6.281,6.281,0,0,1,1.208,2.009,9.134,9.134,0,0,1,.275,4.929c-.119.861-.294,1.722-.38,2.626a5.31,5.31,0,0,0,.6,2.679,14.678,14.678,0,0,0,3.586,4.427l.029.026.043,0,16.705-.968.232-.013-.148-.18-7.3-8.849.029.073c-.23-4.167-.4-8.5-.494-12.976s-.117-9.116.106-13.887a59.512,59.512,0,0,1,.7-7.224,50.029,50.029,0,0,1,1.925-7.216A97.87,97.87,0,0,1,35.5,143.864c2.49-4.732,5.41-9.388,8-14.393a72.418,72.418,0,0,0,3.494-7.8q.762-2.025,1.438-4.106a26.118,26.118,0,0,1,1.53-4.083,28.092,28.092,0,0,1,5.287-7.076,75.744,75.744,0,0,1,6.84-5.992c4.506-4.277,10.421-6.593,16.3-9.03l-.14,0c2.511.958,5.056,2.007,7.606,3.169,1.265.592,2.576,1.164,3.8,1.864a16.806,16.806,0,0,1,3.351,2.623,46.984,46.984,0,0,1,5.481,6.849,82.368,82.368,0,0,1,4.59,7.733l.036.069.068.027,10.891,4.419c.918.365,1.844.766,2.764,1.1a28.734,28.734,0,0,1,2.686,1.287,14.975,14.975,0,0,0,2.827,1.186,5.085,5.085,0,0,0,3.085-.4,25.284,25.284,0,0,1,2.837-1.067c.975-.263,1.98-.456,2.986-.638,2.019-.35,4.066-.622,6.127-.859,4.125-.472,8.312-.8,12.547-1.044,8.562-.572,16.792-3.644,25.329-5.676a49.05,49.05,0,0,1,6.5-1.17,14.907,14.907,0,0,1,6.506.549,48.513,48.513,0,0,1,6.05,2.891c1.974,1.082,3.921,2.236,5.859,3.419l-.109-.176q.847,9.515,1.718,19.286.435,4.884.875,9.828a19.236,19.236,0,0,0,.965,4.914,32.455,32.455,0,0,0,1.88,4.672,38.663,38.663,0,0,1,2.188,4.494,17.488,17.488,0,0,1,.927,4.887c.1,1.675.087,3.376.215,5.082.155,1.71.309,3.379.4,5.09.377,6.812.594,13.705.8,20.65l0,.138.12.069,2.858,1.624-.026-.017a12.033,12.033,0,0,1,2.268,3.319c.66,1.265,1.281,2.607,1.85,3.964l.063.149.161,0,18.069.338.371.007-.131-.338a34.92,34.92,0,0,0-5.5-9.266,33.4,33.4,0,0,0-3.847-3.985l-1.064-.909-1.118-.849-.281-.213-.136-.105a.738.738,0,0,0-.07-.085,2.364,2.364,0,0,1-.274-.554,11.543,11.543,0,0,1-.392-1.312c-.827-3.622-1.276-7.4-1.746-11.176-.45-3.786-.842-7.61-1.188-11.449l-.017.114a52.571,52.571,0,0,0,1.717-7.976,77.286,77.286,0,0,0,.833-8.211c.308-5.523.42-11.121.962-16.737l.052-.526.026-.263.013-.132.006-.065,0-.033,0-.017a.248.248,0,0,1-.245.218c-.186-.037-.064-.015-.093-.018l.016.007.03.014.06.028.12.056.241.112.482.224.964.448a6.019,6.019,0,0,0,1.028.412,18.4,18.4,0,0,0,4.327.206c2.862-.106,5.715-.349,8.582-.478,1.432-.062,2.867-.11,4.3-.088a27.673,27.673,0,0,0,4.361-.056,16.908,16.908,0,0,0,8.146-3.183l-.219.054,6.81,1.434-.019,0a29.927,29.927,0,0,1,7.048,3.279,20.924,20.924,0,0,1,3.1,2.4,17.842,17.842,0,0,1,2.5,3.043,36.756,36.756,0,0,1,3.661,7.115c.98,2.5,1.864,5.108,3.005,7.59,1.08,2.507,2.135,5.036,3.092,7.611.5,1.278.877,2.6,1.5,3.878.6,1.262,1.278,2.469,1.952,3.685,2.751,4.825,5.709,9.555,8.706,14.281l.954,1.489-.034-.077c.231,1.012.409,2.063.578,3.1l.239,1.563a4.391,4.391,0,0,0,.454,1.6,8,8,0,0,0,2.178,2.4,21.378,21.378,0,0,0,2.646,1.753c.913.523,1.848,1,2.793,1.439l.712.323.358.156a.938.938,0,0,0,.512.086.917.917,0,0,0,.767-.676,1.951,1.951,0,0,0,.028-.45v-6.514l-.453.175c2.211,2.416,4.321,4.81,6.6,7.232a2.22,2.22,0,0,0,1.27.473c.48,0,.83-.069,1.25-.1l2.419-.285a48.489,48.489,0,0,0,4.807-.818,4.77,4.77,0,0,0,2.319-1.017,3.736,3.736,0,0,0,.867-2.391,16.5,16.5,0,0,0-.623-4.854l-.319-1.172a8.667,8.667,0,0,1-.2-1.141c-.077-.789-.122-1.585-.149-2.386-.061-1.6-.074-3.2-.084-4.8-.007-6.4.143-12.777.294-19.123q.051-2.384.1-4.76a2.794,2.794,0,0,1,.667-2.036,7.46,7.46,0,0,0,1.333-2.031c1.243-3.016,1.312-6.27,1.406-9.391a28.736,28.736,0,0,1,.406-4.64,36.68,36.68,0,0,1,1.423-4.439,23.585,23.585,0,0,0,1.268-4.556,12.822,12.822,0,0,0-.228-4.735,17.116,17.116,0,0,0-1.7-4.4c-.187-.345-.383-.684-.584-1.018a4.987,4.987,0,0,0-.782-.938,9.348,9.348,0,0,0-1.855-1.5,15.686,15.686,0,0,0-4.542-1.285,7.919,7.919,0,0,0-4.648.712,6.538,6.538,0,0,0-1.007.647c-.3.209-.665.617-.712.487a3.811,3.811,0,0,1-.819-.657l-.831-.8c-.558-.534-1.141-1.048-1.749-1.529a5.369,5.369,0,0,1-.766-.782c-.234-.281-.45-.607-.676-.908-1.762-2.482-3.4-5.069-5.021-7.638-3.242-5.151-6.384-10.326-9.489-15.479s-6.159-10.3-9.169-15.417c-2.943-5.158-6.194-10.124-8.311-15.577-1.08-2.716-1.957-5.5-2.884-8.265a82.931,82.931,0,0,0-3.149-8.141q-.909-1.979-1.928-3.894a22.356,22.356,0,0,0-2.454-3.6,34.554,34.554,0,0,0-2.963-3.155c-1.093-.933-2.135-1.926-3.292-2.771A94.44,94.44,0,0,0,249.9,18.664a143.375,143.375,0,0,0-15.25-6.888,153.291,153.291,0,0,0-15.742-4.811q-7.9-2.033-15.771-3.6a125.983,125.983,0,0,0-15.731-2.28C182.171.764,176.979.558,171.837.389,161.552.066,151.463-.1,141.588.062c-4.937.078-9.822.246-14.641.638-2.41.193-4.8.5-7.162.792-2.367.279-4.723.54-7.069.752-4.691.438-9.34.735-13.934.851-2.3.093-4.568-.055-6.842-.16l-6.766-.272c-8.965-.306-17.71-.424-26.193.035A107.749,107.749,0,0,0,46.5,4.042q-3.049.525-6,1.322c-.982.259-1.952.547-2.912.856A11.035,11.035,0,0,0,32.5,9.375a14.007,14.007,0,0,0-1.792,2.385,23.014,23.014,0,0,0-2.328,5.38,46.535,46.535,0,0,0-1.733,11.251c-.287,3.738.367,7.4.814,10.944.49,3.555,1.011,7.035,1.534,10.443l0-.011q.941,13.3,1.264,25.213c.1,3.966.15,7.813.069,11.532a66.87,66.87,0,0,1-.882,10.723c-1.265,6.828-3.9,12.763-6.341,18.113-1.225,2.682-2.427,5.233-3.4,7.734a33.288,33.288,0,0,0-1.985,7.367c-.763,4.758-1.028,9.012-1.349,12.673-.3,3.664-.568,6.75-.854,9.23s-.569,4.353-.775,5.607c-.228,1.25-.334,1.889-.334,1.889s.133-.633.374-1.882c.22-1.252.528-3.124.815-5.605s.584-5.566.893-9.229c.333-3.659.611-7.913,1.385-12.657a33.083,33.083,0,0,1,1.993-7.329c.981-2.491,2.187-5.037,3.417-7.717,2.451-5.348,5.108-11.292,6.391-18.152a67.109,67.109,0,0,0,.9-10.76c.086-3.724.043-7.574-.053-11.544q-.294-11.909-1.232-25.228v-.012c-.518-3.408-1.035-6.887-1.521-10.44-.444-3.561-1.089-7.165-.8-10.888A46.22,46.22,0,0,1,28.7,17.235a22.66,22.66,0,0,1,2.3-5.3,13.617,13.617,0,0,1,1.752-2.328A10.688,10.688,0,0,1,37.7,6.548c.955-.306,1.92-.592,2.9-.849q2.928-.789,5.968-1.309A107.467,107.467,0,0,1,59,3.06c8.464-.45,17.2-.326,26.16-.013l6.764.277c2.264.106,4.561.256,6.866.164,4.606-.112,9.263-.407,13.962-.842,2.35-.211,4.71-.471,7.081-.748,2.372-.3,4.746-.6,7.147-.787,4.8-.388,9.683-.552,14.614-.628,9.864-.154,19.948.016,30.227.344,5.139.172,10.33.381,15.559.7a125.742,125.742,0,0,1,15.672,2.28q7.851,1.557,15.743,3.6a153.251,153.251,0,0,1,15.692,4.8,142.893,142.893,0,0,1,15.2,6.871,94.081,94.081,0,0,1,14.315,9c1.148.839,2.177,1.822,3.26,2.746a33.87,33.87,0,0,1,2.917,3.109,31.247,31.247,0,0,1,4.314,7.385,81.958,81.958,0,0,1,3.127,8.1c.924,2.757,1.8,5.554,2.892,8.29a60.473,60.473,0,0,0,3.876,7.96q2.225,3.831,4.463,7.687,4.515,7.688,9.168,15.424c3.1,5.156,6.247,10.332,9.491,15.489,1.629,2.576,3.257,5.158,5.039,7.669.234.311.442.626.7.933a6.252,6.252,0,0,0,.84.855c.6.47,1.164.972,1.715,1.5l.83.8a3.928,3.928,0,0,0,.985.762,1.06,1.06,0,0,0,.212.053.584.584,0,0,0,.255-.047,1.483,1.483,0,0,0,.3-.205l.442-.36a6.024,6.024,0,0,1,.932-.6,7.426,7.426,0,0,1,4.356-.657,15.423,15.423,0,0,1,4.345,1.223,8.864,8.864,0,0,1,1.746,1.416,4.6,4.6,0,0,1,.706.841c.2.33.391.663.573,1a16.617,16.617,0,0,1,1.652,4.269,12.313,12.313,0,0,1,.221,4.548,23.067,23.067,0,0,1-1.245,4.456,37.228,37.228,0,0,0-1.441,4.5,29.041,29.041,0,0,0-.419,4.731c-.09,3.126-.176,6.326-1.363,9.2a6.932,6.932,0,0,1-1.261,1.912,3.044,3.044,0,0,0-.631,1.114,4.876,4.876,0,0,0-.153,1.247q-.051,2.371-.1,4.749c-.152,6.348-.3,12.726-.3,19.138.01,1.6.023,3.209.084,4.818.027.8.073,1.612.152,2.423a9.309,9.309,0,0,0,.222,1.228l.314,1.155a16.048,16.048,0,0,1,.608,4.691,3.252,3.252,0,0,1-.724,2.068,4.377,4.377,0,0,1-2.065.871c-1.554.366-3.154.6-4.753.808l-2.407.283c-.386.033-.84.1-1.171.1a1.7,1.7,0,0,1-.972-.362c-2.155-2.3-4.357-4.784-6.539-7.174l-.453-.5v7.185a1.649,1.649,0,0,1-.013.321.393.393,0,0,1-.327.288.409.409,0,0,1-.241-.047l-.353-.154-.7-.319c-.933-.436-1.855-.9-2.753-1.419a20.96,20.96,0,0,1-2.583-1.71,7.531,7.531,0,0,1-2.039-2.232,3.836,3.836,0,0,1-.4-1.429l-.241-1.57c-.171-1.049-.346-2.089-.587-3.145l-.009-.039-.025-.039-.951-1.487c-2.994-4.72-5.952-9.449-8.693-14.257-.67-1.208-1.35-2.414-1.935-3.651-.6-1.212-.979-2.551-1.481-3.838-.962-2.587-2.021-5.124-3.1-7.635-1.143-2.486-2.006-5.039-3-7.576a37.338,37.338,0,0,0-3.713-7.213,18.382,18.382,0,0,0-2.57-3.129,21.419,21.419,0,0,0-3.179-2.46,30.458,30.458,0,0,0-7.184-3.34l-.007,0-.012,0-6.81-1.433-.114-.024-.105.078a16.416,16.416,0,0,1-7.875,3.068,27.152,27.152,0,0,1-4.292.053c-1.45-.022-2.894.026-4.333.089-2.877.13-5.735.373-8.575.479a18.232,18.232,0,0,1-4.178-.189,5.522,5.522,0,0,1-.944-.381l-.964-.448-.481-.224-.241-.111-.12-.056-.06-.028-.03-.014-.016-.007c-.038-.007.074.008-.122-.03a.272.272,0,0,0-.268.239v.016l0,.033-.007.067-.013.132-.026.265-.052.529c-.543,5.643-.655,11.248-.961,16.758a76.479,76.479,0,0,1-.827,8.163,52.576,52.576,0,0,1-1.686,7.869l-.021.065.005.05q.521,5.769,1.191,11.464a113.673,113.673,0,0,0,1.76,11.237,12.075,12.075,0,0,0,.412,1.372,2.694,2.694,0,0,0,.352.689,1.5,1.5,0,0,0,.3.283l.276.209,1.1.835,1.047.9a32.962,32.962,0,0,1,3.792,3.925,34.481,34.481,0,0,1,5.419,9.113l.24-.331-18.069-.333.224.153c-.578-1.376-1.2-2.721-1.871-4.005-.334-.642-.689-1.263-1.067-1.858a6.674,6.674,0,0,0-1.342-1.625l-.01-.007-.017-.01-2.858-1.623.124.206c-.206-6.95-.424-13.841-.8-20.665-.087-1.7-.246-3.424-.4-5.1-.127-1.684-.119-3.376-.216-5.077a17.95,17.95,0,0,0-.955-5.018,38.755,38.755,0,0,0-2.212-4.544,31.991,31.991,0,0,1-1.854-4.6,18.755,18.755,0,0,1-.948-4.823q-.441-4.941-.879-9.824-.873-9.765-1.725-19.28l-.01-.116-.1-.06c-1.943-1.186-3.9-2.342-5.88-3.428a48.964,48.964,0,0,0-6.113-2.917,15.362,15.362,0,0,0-6.707-.572,49.91,49.91,0,0,0-6.557,1.183c-8.568,2.048-16.784,5.111-25.251,5.678-4.24.251-8.435.578-12.57,1.053-2.067.239-4.12.513-6.152.866-1.015.185-2.025.379-3.024.648a25.654,25.654,0,0,0-2.879,1.084,4.659,4.659,0,0,1-2.84.38,14.705,14.705,0,0,1-2.729-1.149,28.836,28.836,0,0,0-2.727-1.3c-.952-.349-1.852-.74-2.776-1.106l-10.87-4.4.1.1a82.471,82.471,0,0,0-4.621-7.773,47.3,47.3,0,0,0-5.536-6.906,17.167,17.167,0,0,0-3.436-2.684c-1.257-.719-2.552-1.28-3.828-1.877-2.56-1.164-5.112-2.214-7.632-3.172L78.325,91l-.07.028c-2.96,1.208-5.885,2.432-8.7,3.842a31.355,31.355,0,0,0-4.062,2.37c-1.247.959-2.419,1.933-3.633,2.885A75.9,75.9,0,0,0,55,106.147a28.465,28.465,0,0,0-5.347,7.173,26.537,26.537,0,0,0-1.545,4.132q-.673,2.074-1.429,4.092a72.107,72.107,0,0,1-3.471,7.772c-2.578,4.988-5.495,9.651-7.986,14.4a98.06,98.06,0,0,0-6.4,14.276,50.425,50.425,0,0,0-1.928,7.263,59.655,59.655,0,0,0-.7,7.262c-.217,4.783-.183,9.423-.089,13.906s.277,8.814.513,12.986l0,.042.027.032,7.313,8.837.084-.192-16.7,1,.072.024a14.493,14.493,0,0,1-3.541-4.352,5.115,5.115,0,0,1-.581-2.579c.081-.879.256-1.754.373-2.614a9.306,9.306,0,0,0-.3-5.019,6.452,6.452,0,0,0-1.252-2.066,2.1,2.1,0,0,0-1.031-.605,1.485,1.485,0,0,0-1.158.23l.132.073c1.11-10.617,2.162-18.717,2.971-24.153.4-2.72.752-4.771.992-6.144.257-1.37.377-2.067.377-2.067" transform="translate(8.158 0)" fill="#263238"/>
              <path id="Trazado_897899" data-name="Trazado 897899" d="M1.827,119.077a5.135,5.135,0,0,1,4.669-.085,30.723,30.723,0,0,1,4.155,2.5c3.97,2.456,8.653,3.434,13.227,4.368a10.373,10.373,0,0,1-7.524,3.519,30.725,30.725,0,0,1-8.465-1.015A16.734,16.734,0,0,1,3.539,127a5.64,5.64,0,0,1-2.931-3.342c-.4-1.472,0-3.989,1.367-4.672" transform="translate(327.677 0)" fill="#e0e0e0"/>
              <path id="Trazado_897900" data-name="Trazado 897900" d="M1.645,118.99a1.279,1.279,0,0,0-.49.288A3.243,3.243,0,0,0,.3,120.663a5.892,5.892,0,0,0-.256,2.564A4.884,4.884,0,0,0,1.716,126.2,9.057,9.057,0,0,0,5.4,128.075c1.433.394,2.961.7,4.585,1.037a25.706,25.706,0,0,0,5.185.558,12.769,12.769,0,0,0,5.49-1.212,8.89,8.89,0,0,0,3.093-2.435l.261-.33-.411-.083a60.705,60.705,0,0,1-9.027-2.317,23.864,23.864,0,0,1-3.63-1.667c-1.086-.607-2.026-1.3-2.945-1.855a9.9,9.9,0,0,0-2.633-1.2,5.788,5.788,0,0,0-2.171-.165,3.881,3.881,0,0,0-1.306.4,1.27,1.27,0,0,0-.391.267,5.431,5.431,0,0,1,1.717-.484,5.828,5.828,0,0,1,2.079.238,9.959,9.959,0,0,1,2.523,1.23c.892.562,1.821,1.277,2.924,1.916a23.545,23.545,0,0,0,3.672,1.742,58.325,58.325,0,0,0,9.084,2.4l-.15-.413a8.44,8.44,0,0,1-2.917,2.287,12.351,12.351,0,0,1-5.269,1.169,25.767,25.767,0,0,1-5.089-.518c-3.19-.669-6.267-1.051-8.111-2.719a4.613,4.613,0,0,1-1.628-2.737,5.87,5.87,0,0,1,.161-2.461,3.366,3.366,0,0,1,.735-1.37c.251-.257.432-.338.417-.364" transform="translate(328.007 0)" fill="#263238"/>
              <path id="Trazado_897901" data-name="Trazado 897901" d="M48.753,138.311a2.5,2.5,0,0,0-.069-.8,4.728,4.728,0,0,0-1.061-2.029,8.322,8.322,0,0,0-2.948-2.109c-1.277-.614-2.822-1.073-4.35-1.921a19.2,19.2,0,0,1-8.2-8.856,18.753,18.753,0,0,1-1.749-6.974l-.032-.944c0-.315.029-.632.042-.95a8.661,8.661,0,0,1,.247-1.887,3.239,3.239,0,0,1,2.262-2.674,11.1,11.1,0,0,1,3.843.385c1.287.249,2.55.509,3.775.822a23.678,23.678,0,0,1,6.714,2.68,13.469,13.469,0,0,1,4.6,4.531,21.84,21.84,0,0,1,2,5.349c.448,1.715.955,3.232,1.323,4.585a16.086,16.086,0,0,0,1.292,3.382,5.278,5.278,0,0,0,1.488,1.739,2.515,2.515,0,0,0,.7.383,5.511,5.511,0,0,1-2.011-2.219,16.637,16.637,0,0,1-1.189-3.364c-.343-1.364-.826-2.89-1.248-4.6a21.862,21.862,0,0,0-1.979-5.471,13.837,13.837,0,0,0-4.726-4.721,23.934,23.934,0,0,0-6.84-2.767c-1.24-.32-2.512-.585-3.8-.837l-1.958-.366a5.649,5.649,0,0,0-2.1-.019,3.058,3.058,0,0,0-1.8,1.166,5.163,5.163,0,0,0-.851,1.892,9.087,9.087,0,0,0-.258,1.982c-.013.328-.037.654-.04.979l.035.971a19.077,19.077,0,0,0,1.823,7.15,19.413,19.413,0,0,0,8.458,8.979c1.582.849,3.138,1.282,4.4,1.861a8.283,8.283,0,0,1,2.916,1.977,4.9,4.9,0,0,1,1.283,2.692" transform="translate(263.543 0)" fill="#455a64"/>
              <g id="Grupo_1111178" data-name="Grupo 1111178" transform="translate(297.984 112.625)" opacity="0.2">
                <g id="Grupo_1111177" data-name="Grupo 1111177">
                  <g id="Grupo_1111176" data-name="Grupo 1111176" clip-path="url(#clip-path-9)">
                    <path id="Trazado_897902" data-name="Trazado 897902" d="M37.591,113.439c1.01-1.191,2.915-.881,4.361-.292a19.411,19.411,0,0,1,11.754,21.565c-3.6-2.7-9.14-4.616-12.553-7.555s-4.092-6.832-4.189-11.334a3.525,3.525,0,0,1,.627-2.384" transform="translate(-36.962 -112.625)" fill="#fff"/>
                  </g>
                </g>
              </g>
              <g id="Grupo_1111181" data-name="Grupo 1111181" transform="translate(56.179 72.259)" opacity="0.3">
                <g id="Grupo_1111180" data-name="Grupo 1111180" transform="translate(0)">
                  <g id="Grupo_1111179" data-name="Grupo 1111179" transform="translate(0)" clip-path="url(#clip-path-10)">
                    <path id="Trazado_897903" data-name="Trazado 897903" d="M295.824,72.259s1.151,20.345-16.758,29.593-24.393,18.47-24.393,18.47-1.059-12.247,15.3-21.135c2.322-1.262,4.237-3.059,6.089-4.043,11.2-5.951,14.735-7.512,19.763-22.885" transform="translate(-254.659 -72.259)"/>
                  </g>
                </g>
              </g>
              <g id="Grupo_1111184" data-name="Grupo 1111184" transform="translate(199.659 62.198)" opacity="0.3">
                <g id="Grupo_1111183" data-name="Grupo 1111183" transform="translate(0)">
                  <g id="Grupo_1111182" data-name="Grupo 1111182" transform="translate(0)" clip-path="url(#clip-path-11)">
                    <path id="Trazado_897904" data-name="Trazado 897904" d="M142.56,84.676c1.254-8.278,3.3-17.205,9.8-22.478-4.424,12.232-5.5,24.227-5.033,37.226.217,6.122-.394,12.879,2.977,18.1-5.361-2.805-7.032-8.852-8.192-14.79s-.457-12.072.449-18.055" transform="translate(-141.505 -62.198)"/>
                  </g>
                </g>
              </g>
            </g>
          </g>
        </g>
      </g>
      <path id="Trazado_897905" data-name="Trazado 897905" d="M33.351,0,25.875,14.225,22.476,7.2,20.21,15.925,12.564,2.33,8.737,19.04,0,12.577V22.721H47.538V15.358L42.5,17.34V1.1L33.351,13.942Z" transform="translate(502.512 1975)" fill="#115721"/>
      <rect id="Rectángulo_404489" data-name="Rectángulo 404489" width="368" height="10" transform="translate(203.051 1995.149)" fill="#115721"/>
    </g>
  </g>
</svg>
