<svg xmlns="http://www.w3.org/2000/svg" width="90" height="90" viewBox="0 0 90 90">
  <g id="Grupo_1110276" data-name="Grupo 1110276" transform="translate(-536.051 -2336)">
    <rect id="Rectángulo_403743" data-name="Rectángulo 403743" width="90" height="90" rx="8" transform="translate(536.051 2336)" fill="#456345"/>
    <g id="intestino-delgado" transform="translate(528.315 2347.001)">
      <path id="Trazado_897470" data-name="Trazado 897470" d="M82.794,43.842c3.624-1.187,5.909-5.4,4.363-9.935a9.623,9.623,0,0,0-8.171-6.669c3.94-.713,7.561-3.006,7.1-6.968a6.559,6.559,0,0,0-6.575-5.739c-8.984.038-6.847.036-9.859.042a10.3,10.3,0,0,1-.373-4.447,1.122,1.122,0,0,0-1.029-1.26l-4.371-.324a1.125,1.125,0,0,0-1.2,1.007,21.117,21.117,0,0,0,.076,5.053c-.1,0,.158.011-20.791.088A12.51,12.51,0,0,0,31.3,20.77a13.192,13.192,0,0,0-1.124,2.521,11.1,11.1,0,0,0-.321,1.258,9.982,9.982,0,0,0,4.391,10.5c.155.109.57.362.584.37A14.8,14.8,0,0,0,37.044,36.5c-7.6,4.446-7.457,13.036-1.525,16.928a8.609,8.609,0,0,0,.961.541,12.182,12.182,0,0,0-3.028,19.12,1.128,1.128,0,0,0,.8.356l4.018.08a1.124,1.124,0,0,0,1.087-1.475A5.686,5.686,0,0,1,39.347,68c5.736-13,36.661,6.656,46.687-5.064,4.255-4.973,3.476-14.35-3.241-19.091Z" transform="translate(-6.804 -7.342)" fill="#ffa4b8"/>
      <g id="Grupo_1110274" data-name="Grupo 1110274" transform="translate(22.85 1.198)">
        <path id="Trazado_897471" data-name="Trazado 897471" d="M50.747,210.285c-5.047,2.951-6.653,7.68-5.491,11.666a1.261,1.261,0,0,1-2.131,1.226c-3.786-4.125-3.492-11.322,3.42-15.354l.11.012A13.079,13.079,0,0,0,50.747,210.285Z" transform="translate(-39.156 -179.867)" fill="#ffbfcb"/>
        <path id="Trazado_897472" data-name="Trazado 897472" d="M63.39,54.583c-18.449.078-17.687.034-18.869.187-7.61.99-12.082,8.617-10.208,14.789a1.123,1.123,0,0,1-1.87,1.127c-6.45-6.7-.9-18.8,9.549-18.835,22.5-.083,20.688-.088,20.791-.088A19.121,19.121,0,0,0,63.39,54.583Z" transform="translate(-29.684 -45.699)" fill="#ffbfcb"/>
        <path id="Trazado_897473" data-name="Trazado 897473" d="M275.615,25.209a1.055,1.055,0,0,1-.545,2.029,12.451,12.451,0,0,1-2.544-.74c-5.223-2.187-9.012-8.8-8.167-16.948a1.123,1.123,0,0,1,1.2-1.007l.526.039a1.052,1.052,0,0,1,.976,1.08c-.207,6.458,2.63,13.265,8.555,15.547Z" transform="translate(-231.336 -8.54)" fill="#ffbfcb"/>
        <path id="Trazado_897474" data-name="Trazado 897474" d="M41.808,334.176a12.171,12.171,0,0,0-4.835,16.662.538.538,0,0,1-.845.649,12.18,12.18,0,0,1,3.015-19.135c.074.036.15.072.226.1A9.484,9.484,0,0,0,41.808,334.176Z" transform="translate(-32.317 -286.927)" fill="#ffbfcb"/>
      </g>
      <g id="Grupo_1110275" data-name="Grupo 1110275" transform="translate(21.735 -0.001)">
        <path id="Trazado_897475" data-name="Trazado 897475" d="M34.483,69.166c6.856.989,9.743-3.022,18.4-3.7a32.579,32.579,0,0,1,10.627.956,1.122,1.122,0,0,0,.557-2.174,34.8,34.8,0,0,0-11.358-1.02c-9.033.7-11.789,4.6-17.909,3.713-16.936-2.444-11.816-20.668.359-20.72H49.782A1.149,1.149,0,0,0,50.9,45.066a1.122,1.122,0,0,0-1.122-1.117l-14.626.062C20.263,44.074,14.758,66.32,34.483,69.166Z" transform="translate(-21.735 -37.784)"/>
        <path id="Trazado_897476" data-name="Trazado 897476" d="M265.184,20.19c6.783,2.835,17.641.009,16.789-7.39a7.639,7.639,0,0,0-7.7-6.713h-8.993a9.781,9.781,0,0,1,.067-4.22,1.122,1.122,0,1,0-2.188-.5c-1.495,6.522,2.318,12.887,9.165,11.859A1.122,1.122,0,0,0,272,11a5.438,5.438,0,0,1-5.862-2.675h8.152a5.4,5.4,0,0,1,5.456,4.727c.265,2.3-1.177,3.847-3.246,4.822a13.829,13.829,0,0,1-10.448.24c-5.405-2.259-8.5-9.336-7.352-16.828A1.122,1.122,0,1,0,256.48.952c-1.437,9.4,2.962,16.838,8.7,19.238Z" transform="translate(-223.313 0.001)"/>
        <path id="Trazado_897477" data-name="Trazado 897477" d="M116.535,117.638a1.122,1.122,0,0,0,.306,2.2,62.126,62.126,0,0,1,18.477-2.273,1.122,1.122,0,0,0,.074-2.243A61.611,61.611,0,0,0,116.535,117.638Z" transform="translate(-102.534 -99.117)"/>
        <path id="Trazado_897478" data-name="Trazado 897478" d="M149.623,173.253a1.122,1.122,0,0,0,.777,2.105c21.468-7.926,31.916,4.4,38.878-3.784,2.829-3.324,2.631-8.532-.471-12.383a1.122,1.122,0,1,0-1.748,1.408c2.081,2.584,2.924,6.684.509,9.521C182,176.666,171.131,165.312,149.623,173.253Z" transform="translate(-131.052 -136.5)"/>
        <path id="Trazado_897479" data-name="Trazado 897479" d="M138.6,290.843a1.122,1.122,0,0,0-2.027.965c2.027,4.259,1.575,9.419-1.1,12.547-9.495,11.1-40.616-8.818-46.862,5.341-.788,1.786-.575,3.972.632,6.5a1.122,1.122,0,1,0,2.025-.969c-.912-1.906-1.115-3.46-.6-4.621,3.821-8.663,21.941-.478,34.925-.479,4.7,0,8.806-1.055,11.589-4.309C140.408,302.033,140.993,295.877,138.6,290.843Z" transform="translate(-78.826 -249.492)"/>
        <path id="Trazado_897480" data-name="Trazado 897480" d="M32.358,247.335c10.259,4.249,29.457-7.266,36.453-3.156a5.147,5.147,0,0,1,2.326,3.389,1.122,1.122,0,0,0,2.175-.556,7.37,7.37,0,0,0-3.364-4.768c-8.577-5.038-29.215,8.09-38,2.351a8.065,8.065,0,0,1-2.728-10.923,1.122,1.122,0,1,0-1.956-1.1A10.312,10.312,0,0,0,30.179,246.1a13.3,13.3,0,0,0-1.366,20.244,1.122,1.122,0,0,0,1.58-1.594,11.06,11.06,0,0,1,1.966-17.411Z" transform="translate(-24.353 -199.454)"/>
      </g>
    </g>
  </g>
</svg>
