<svg xmlns="http://www.w3.org/2000/svg" width="90" height="90" viewBox="0 0 90 90">
  <g id="Grupo_1110278" data-name="Grupo 1110278" transform="translate(-536.051 -2485)">
    <rect id="Rectángulo_403744" data-name="Rectángulo 403744" width="90" height="90" rx="8" transform="translate(536.051 2485)" fill="#456345"/>
    <g id="diarrea_1_" data-name="diarrea (1)" transform="translate(425.051 2394.378)">
      <g id="Grupo_1110277" data-name="Grupo 1110277" transform="translate(126.453 100.351)">
        <path id="Trazado_897481" data-name="Trazado 897481" d="M178.073,116.593a19.817,19.817,0,0,0-16.406-2.156A14.224,14.224,0,0,1,164.011,106h-9.187a32.824,32.824,0,0,0-2.344,18.937,14.876,14.876,0,0,1-.469,7.031c-1.125,3.469-3.094,5.344-7.218,6.937a15.463,15.463,0,0,0-9,15.468,19.466,19.466,0,0,0,2.344,7.5,33.037,33.037,0,0,0-6.937,14.343h9.562a24.82,24.82,0,0,1,3.656-7.406c.187.094.375.281.562.375,16.874,10.593,32.249-1.594,39-12.281,8.531-13.406,8.25-32.343-5.906-40.311Z" transform="translate(-131.2 -106)" fill="#ffdccd"/>
        <path id="Trazado_897482" data-name="Trazado 897482" d="M197.535,236.981a24.463,24.463,0,0,1-9.656-2.062,5.31,5.31,0,0,0-4.312-.094h-.094a8.982,8.982,0,0,0-5.156,8.812,14.638,14.638,0,0,0,2.344,6.375,12.472,12.472,0,0,0,3.375,3.281,1.645,1.645,0,0,1,.469.375,18.6,18.6,0,0,0,9.656,3c8.718,0,16.312-7.125,20.156-13.218,3.937-6.281,5.531-13.968,4.312-20.249a23.068,23.068,0,0,1-21.093,13.781Z" transform="translate(-167.254 -195.732)" fill="#ffb354"/>
      </g>
      <path id="Trazado_897483" data-name="Trazado 897483" d="M160.577,101.289a14.067,14.067,0,0,0-1.969,5.437c11.718-2.344,24.187,5.812,27.093,18.093,2.156,8.625.281,18.937-5.062,27.468-8.25,13.125-24.374,22.687-40.5,13.218a19.741,19.741,0,0,0-2.531,5.531,1.7,1.7,0,0,1-2.062,1.125,1.657,1.657,0,0,1-1.125-2.062,24.848,24.848,0,0,1,3.937-7.875,1.638,1.638,0,0,1,2.25-.375c13.312,9.187,28.78,1.969,37.217-11.343,4.875-7.781,6.656-17.062,4.687-24.937-2.625-10.968-14.249-18.656-25.124-15.281a1.678,1.678,0,0,1-2.156-1.5,16.628,16.628,0,0,1,2.531-9.375,1.668,1.668,0,0,1,2.25-.562,1.878,1.878,0,0,1,.562,2.437Zm-34.4,70.966a1.679,1.679,0,0,0,1.969-1.312,31.156,31.156,0,0,1,6.562-13.593,1.572,1.572,0,0,0,.188-1.781,19.465,19.465,0,0,1-2.156-6.844,13.613,13.613,0,0,1,8.062-13.781,18.071,18.071,0,0,0,3.562-1.781,1.651,1.651,0,0,0,.375-2.25,1.72,1.72,0,0,0-2.156-.469c-1.5.844-2.625,1.312-3.094,1.594-6.375,3.375-10.5,9.843-9.937,17.062a21.421,21.421,0,0,0,2.062,7.125,34.4,34.4,0,0,0-6.562,14.156,1.433,1.433,0,0,0,1.125,1.875Zm20.249-43.78a1.633,1.633,0,0,0,2.07-.922c.094-.187.193-.487.274-.672a1.645,1.645,0,0,0-1.031-2.062,1.685,1.685,0,0,0-2.062,1.031c-.006,0-.193.561-.187.562A1.6,1.6,0,0,0,146.421,128.475Zm4.219-29.624a1.613,1.613,0,0,0-2.156.844,33.6,33.6,0,0,0-2.437,19.874,1.611,1.611,0,1,0,3.187-.469,31.611,31.611,0,0,1,2.25-18.093,1.643,1.643,0,0,0-.844-2.156Zm-8.625,39a10.631,10.631,0,0,0-6.094,10.406c1.031,9,9.375,14.343,17.531,14.437a1.687,1.687,0,0,0,0-3.375c-6.375-.094-13.5-4.125-14.343-11.531a7.26,7.26,0,0,1,4.219-7.125,3.719,3.719,0,0,1,3,.094,24.5,24.5,0,0,0,30.374-7.687,29.521,29.521,0,0,1-4.406,13.968,30.4,30.4,0,0,1-7.968,8.625,1.65,1.65,0,0,0-.281,2.344,1.734,1.734,0,0,0,2.25.375,32.94,32.94,0,0,0,8.906-9.468c4.219-6.656,5.906-14.718,4.5-21.468a1.7,1.7,0,0,0-1.969-1.312,1.769,1.769,0,0,0-1.219.937A21.466,21.466,0,0,1,148.3,138.225C146.14,137.287,144.077,136.912,142.015,137.85Zm17.624,23.905c.209-.065.375-.094.656-.187a1.593,1.593,0,0,0,.937-2.156,1.665,1.665,0,0,0-2.156-.937,2.664,2.664,0,0,0-.562.187,1.685,1.685,0,0,0-1.031,2.062,1.709,1.709,0,0,0,2.156,1.031Zm6-34.405a2.156,2.156,0,1,0,2.156-2.156A2.181,2.181,0,0,0,165.639,127.35Zm3.656-10.312a1.5,1.5,0,1,0-1.5,1.5A1.481,1.481,0,0,0,169.3,117.038ZM157.2,129.507a1.5,1.5,0,1,0,1.5,1.5A1.481,1.481,0,0,0,157.2,129.507Zm-.281-7.218a2.156,2.156,0,1,0-2.156-2.156A2.181,2.181,0,0,0,156.921,122.288Z" transform="translate(0)"/>
    </g>
  </g>
</svg>
