<svg xmlns="http://www.w3.org/2000/svg" xmlns:xlink="http://www.w3.org/1999/xlink" width="73" height="73" viewBox="0 0 73 73">
  <defs>
    <clipPath id="clip-path">
      <rect id="Rectángulo_404458" data-name="Rectángulo 404458" width="59.898" height="37.769" fill="none"/>
    </clipPath>
    <clipPath id="clip-path-3">
      <rect id="Rectángulo_404453" data-name="Rectángulo 404453" width="59.243" height="36.979" fill="none"/>
    </clipPath>
    <clipPath id="clip-path-4">
      <rect id="Rectángulo_404454" data-name="Rectángulo 404454" width="59.898" height="37.707" fill="none"/>
    </clipPath>
    <clipPath id="clip-path-5">
      <rect id="Rectángulo_404455" data-name="Rectángulo 404455" width="59.027" height="36.836" fill="none"/>
    </clipPath>
    <clipPath id="clip-path-6">
      <rect id="Rectángulo_404456" data-name="Rectángulo 404456" width="50.637" height="36.626" fill="none"/>
    </clipPath>
  </defs>
  <g id="Grupo_1111087" data-name="Grupo 1111087" transform="translate(-239.051 -3049)">
    <path id="Trazado_896627" data-name="Trazado 896627" d="M36.5,0A36.5,36.5,0,1,1,0,36.5,36.5,36.5,0,0,1,36.5,0Z" transform="translate(239.051 3049)" fill="#e2dacc"/>
    <g id="Grupo_1111086" data-name="Grupo 1111086" transform="translate(246.051 3066)">
      <g id="Grupo_1111083" data-name="Grupo 1111083" clip-path="url(#clip-path)">
        <g id="Grupo_1111082" data-name="Grupo 1111082" transform="translate(0 0)">
          <g id="Grupo_1111081" data-name="Grupo 1111081" clip-path="url(#clip-path)">
            <g id="Grupo_1111071" data-name="Grupo 1111071" transform="translate(0.319 0)" opacity="0.5" style="mix-blend-mode: multiply;isolation: isolate">
              <g id="Grupo_1111070" data-name="Grupo 1111070" transform="translate(0 0)">
                <g id="Grupo_1111069" data-name="Grupo 1111069" clip-path="url(#clip-path-3)">
                  <path id="Trazado_897730" data-name="Trazado 897730" d="M56.851,13.324c1.075-.028,2.142-.075,3.189-.1a17.57,17.57,0,0,1-.854-2.879c-.535.027-1.071.049-1.607.059l-.726-.451c-2.62-1.88-4.91-5.154-7.865-6.188a64.31,64.31,0,0,0-6.8-2.1c-7.531-1.727-15.267-.6-22.634,1.323-1.392.363-2.786.759-4.156,1.225a5.207,5.207,0,0,0-.064-1.708,3.669,3.669,0,0,0-.524-1.6c-.09-.143-.191-.274-.29-.406a6.627,6.627,0,0,1-1.67,2.264A5.1,5.1,0,0,1,12.779,4.6c-.051.237-.115.471-.188.7A22.774,22.774,0,0,0,7.2,8.545,15.783,15.783,0,0,0,1.251,21.22a9.44,9.44,0,0,0,1.541,3.671A11.326,11.326,0,0,0,4.251,28.8c.75,2.557,2.207,6.135,4.644,7a18.321,18.321,0,0,0,9.374,1.017c.314.045.627.093.942.128a28.269,28.269,0,0,0,3.795-.422c3.313-.6,6.764-1.687,8.975-4.372a8.111,8.111,0,0,0,.708-1.014c3.271,2.869,7.207,5.151,11.385,4.312,7.883-1.584,9.251-10.275,5.245-16.878.914,1.324,2.013,2.527,3.44,2.7A3.753,3.753,0,0,0,56.4,18.657a10.652,10.652,0,0,0,.354-4.928Z" transform="translate(-1.015 -0.282)" fill="none" stroke="#d99c9c" stroke-linecap="round" stroke-linejoin="round" stroke-width="1"/>
                </g>
              </g>
            </g>
            <path id="Trazado_897731" data-name="Trazado 897731" d="M56.851,13.324c1.075-.028,2.142-.075,3.189-.1a17.57,17.57,0,0,1-.854-2.879c-.535.027-1.071.049-1.607.059l-.726-.451c-2.62-1.88-4.91-5.154-7.865-6.188a64.31,64.31,0,0,0-6.8-2.1c-7.531-1.727-15.267-.6-22.634,1.323-1.392.363-2.786.759-4.156,1.225a5.207,5.207,0,0,0-.064-1.708,3.669,3.669,0,0,0-.524-1.6c-.09-.143-.191-.274-.29-.406a6.627,6.627,0,0,1-1.67,2.264A5.1,5.1,0,0,1,12.779,4.6c-.051.237-.115.471-.188.7A22.774,22.774,0,0,0,7.2,8.545,15.783,15.783,0,0,0,1.251,21.22a9.44,9.44,0,0,0,1.541,3.671A11.326,11.326,0,0,0,4.251,28.8c.75,2.557,2.207,6.135,4.644,7a18.321,18.321,0,0,0,9.374,1.017c.314.045.627.093.942.128a28.269,28.269,0,0,0,3.795-.422c3.313-.6,6.764-1.687,8.975-4.372a8.111,8.111,0,0,0,.708-1.014c3.271,2.869,7.207,5.151,11.385,4.312,7.883-1.584,9.251-10.275,5.245-16.878.914,1.324,2.013,2.527,3.44,2.7A3.753,3.753,0,0,0,56.4,18.657a10.652,10.652,0,0,0,.354-4.928Z" transform="translate(-0.696 -0.282)" fill="#ffe0d1"/>
            <g id="Grupo_1111074" data-name="Grupo 1111074" transform="translate(0 0.062)" opacity="0.3" style="mix-blend-mode: multiply;isolation: isolate">
              <g id="Grupo_1111073" data-name="Grupo 1111073">
                <g id="Grupo_1111072" data-name="Grupo 1111072" clip-path="url(#clip-path-4)">
                  <path id="Trazado_897732" data-name="Trazado 897732" d="M11.386,9.989c5.238-3.437,11.643-6.2,17.869-6.672S44.261,3.325,50.3,6.9c2.2,1.307,5.089,6.609,6.457,7.07a9.037,9.037,0,0,0,3.273-.1,17.145,17.145,0,0,1-.961-3.1c-.826-.127-1.688-.291-2.161-.331-.912-.077-6.381-5.3-6.381-5.3-13.37-6.532-23.321-3-25.675-3S15.81,4.368,15.886,3.523c.041-.452-.682-1.411-1.64-2.381A6.621,6.621,0,0,1,12.968,2.9a4.577,4.577,0,0,1-.2,2.854C12.088,7.365,3.96,12.744,1.909,16.51s-.076,6.685.532,8.684.76,6.378,4.254,9.913,7.824,3,14.813,2.536a15.945,15.945,0,0,0,10.939-5.72s6,5.8,11.363,4.354,4.892-3.014,6.943-6.626-1.342-9.529-1.342-9.529,4.254,2.766,6.7-.8-.814-5.383-.814-5.383a4.378,4.378,0,0,1-1.363,5.59,4.263,4.263,0,0,1-5.593-1.062,22.6,22.6,0,0,1,.729,8.26,9.292,9.292,0,0,1-1.754,5.064c-1.753,2.133-4.863,2.71-7.535,2.085a19.458,19.458,0,0,1-7.178-3.93,1.645,1.645,0,0,0-.875-.429,1.7,1.7,0,0,0-1.023.456,21.956,21.956,0,0,1-17.778,3.7,5.209,5.209,0,0,1-2.5-1.145C8.946,31.1,9.29,28.679,9.748,26.67c-1.761,1.239-4.166-1.137-4.757-1.975a6.237,6.237,0,0,1-.853-2.933c-.321-2.769,1.525-4.545,2.709-7.063A12.108,12.108,0,0,1,11.386,9.989Z" transform="translate(-0.565 -0.707)" fill="none" stroke="#f2b97b" stroke-linecap="round" stroke-linejoin="round" stroke-width="2"/>
                </g>
              </g>
            </g>
            <g id="Grupo_1111077" data-name="Grupo 1111077" transform="translate(0.436 0.497)" opacity="0.3" style="mix-blend-mode: multiply;isolation: isolate">
              <g id="Grupo_1111076" data-name="Grupo 1111076">
                <g id="Grupo_1111075" data-name="Grupo 1111075" clip-path="url(#clip-path-5)">
                  <path id="Trazado_897733" data-name="Trazado 897733" d="M11.386,9.989c5.238-3.437,11.643-6.2,17.869-6.672S44.261,3.325,50.3,6.9c2.2,1.307,5.089,6.609,6.457,7.07a9.037,9.037,0,0,0,3.273-.1,17.145,17.145,0,0,1-.961-3.1c-.826-.127-1.688-.291-2.161-.331-.912-.077-6.381-5.3-6.381-5.3-13.37-6.532-23.321-3-25.675-3S15.81,4.368,15.886,3.523c.041-.452-.682-1.411-1.64-2.381A6.621,6.621,0,0,1,12.968,2.9a4.577,4.577,0,0,1-.2,2.854C12.088,7.365,3.96,12.744,1.909,16.51s-.076,6.685.532,8.684.76,6.378,4.254,9.913,7.824,3,14.813,2.536a15.945,15.945,0,0,0,10.939-5.72s6,5.8,11.363,4.354,4.892-3.014,6.943-6.626-1.342-9.529-1.342-9.529,4.254,2.766,6.7-.8-.814-5.383-.814-5.383a4.378,4.378,0,0,1-1.363,5.59,4.263,4.263,0,0,1-5.593-1.062,22.6,22.6,0,0,1,.729,8.26,9.292,9.292,0,0,1-1.754,5.064c-1.753,2.133-4.863,2.71-7.535,2.085a19.458,19.458,0,0,1-7.178-3.93,1.645,1.645,0,0,0-.875-.429,1.7,1.7,0,0,0-1.023.456,21.956,21.956,0,0,1-17.778,3.7,5.209,5.209,0,0,1-2.5-1.145C8.946,31.1,9.29,28.679,9.748,26.67c-1.761,1.239-4.166-1.137-4.757-1.975a6.237,6.237,0,0,1-.853-2.933c-.321-2.769,1.525-4.545,2.709-7.063a12.108,12.108,0,0,1,4.54-4.71" transform="translate(-1 -1.142)" fill="#f2b97b"/>
                </g>
              </g>
            </g>
            <g id="Grupo_1111080" data-name="Grupo 1111080" transform="translate(2.26 0.606)" opacity="0.3" style="mix-blend-mode: multiply;isolation: isolate">
              <g id="Grupo_1111079" data-name="Grupo 1111079">
                <g id="Grupo_1111078" data-name="Grupo 1111078" clip-path="url(#clip-path-6)">
                  <path id="Trazado_897734" data-name="Trazado 897734" d="M53.894,5.856C44.816.166,34.723,1.413,30.816,1.724A55.36,55.36,0,0,0,15.452,5.161c-.386.149-.767.313-1.147.486a21.247,21.247,0,0,0-4.276,6.63C9.167,14.744,9.511,17.468,8.939,20a6.066,6.066,0,0,1-2.445,3.75c-2.076,1.386-1.179,5.065-.662,7.309.774,3.359,3.052,3.7,5.373,4.787a29.846,29.846,0,0,0,6.513,2.148,30.282,30.282,0,0,0,4.487-.157c3.938-.431,8.085-1.479,10.925-4.7,2.33-2.641,3.2-6.471,3.044-10.056-.174-4.033-.1-5.836,3.213-8.808C41.268,12.582,53.7,8.34,55.826,7.8a11.4,11.4,0,0,0-1.774-1.792,1.077,1.077,0,0,0-.159-.151M19.432,10.706a.2.2,0,0,1,.267-.137,10.606,10.606,0,0,1,2.968,2.671c.462.528.945,1.031,1.416,1.546a11.747,11.747,0,0,1,2.857,3.067c.2.293.527.875.1,1.138-.569.35-1.322-.018-1.877-.242-2.634-1.064-6.678-4.494-5.728-8.042M13.344,32.862c-2.33,1.62-5.124-1.617-5.7-3.876A5.028,5.028,0,0,1,8.8,24.233a2,2,0,0,1,2.884-.344c1.366.341,2.249,1.813,2.677,3.32.483,1.7.569,4.555-1.014,5.654m1.317-14.146a9.484,9.484,0,0,1-.121-9.59c.685-1.045,2.1-2.458,3.227-1.287A1.611,1.611,0,0,1,18.045,8.9a.207.207,0,0,1,.029.145c-.024.17-.041.339-.053.506V9.57c-.167,2.569,1.086,4.9,2.074,7.159.365.834.674,1.7.976,2.559a3.411,3.411,0,0,1,.287,1.813c-.348,1.408-2.2.952-3.127.669a6.712,6.712,0,0,1-3.57-3.052M28.378,33.249c-2.888,1.816-7.3.849-9.767-1.331-2.427-2.148-2.913-7.095.861-7.763,1.743-.309,3.572.689,5.019,1.634a14.3,14.3,0,0,1,3.523,3.233c1.464,1.325,2.475,2.9.363,4.226m2.113-4.579c-3.81-.8-7.906-5.183-8.477-9.408-.019-.141.082-.29.222-.271a2.981,2.981,0,0,1,1.261.528,10.15,10.15,0,0,0,2.468,1.27c1.566.513,3.364.155,4.843.894a3.5,3.5,0,0,1,1.7,2.282,5.828,5.828,0,0,1,.95,3.187c-.054,1.742-1.8,1.762-2.966,1.518" transform="translate(-5.189 -1.391)" fill="#f2b97b"/>
                </g>
              </g>
            </g>
          </g>
        </g>
      </g>
    </g>
  </g>
</svg>
