<svg xmlns="http://www.w3.org/2000/svg" width="82.073" height="82.073" viewBox="0 0 82.073 82.073">
  <g id="Grupo_1111198" data-name="Grupo 1111198" transform="translate(-758.051 -2237)">
    <rect id="Rectángulo_403795" data-name="Rectángulo 403795" width="82.073" height="82.073" rx="41.036" transform="translate(758.051 2237)" fill="#2a3c2a"/>
    <g id="cesped_2_" data-name="cesped (2)" transform="translate(764.052 2166.502)">
      <path id="Trazado_897910" data-name="Trazado 897910" d="M415.177,205.518h-6.222s1.116-16.688,9.576-22.793a.138.138,0,0,1,.217.14C418.371,184.59,415,195.233,415.177,205.518Z" transform="translate(-352.5 -81.196)" fill="#7cb342"/>
      <path id="Trazado_897911" data-name="Trazado 897911" d="M348.128,130.788h6.222s.651-24.191-7.8-34.736c-.092-.115-.26-.027-.24.126A269.244,269.244,0,0,1,348.128,130.788Z" transform="translate(-298.502 -6.466)" fill="#8bc34a"/>
      <path id="Trazado_897912" data-name="Trazado 897912" d="M306.247,213.327h6.222s-.781-15.437-9.241-21.542a.138.138,0,0,0-.217.14C303.388,193.649,306.425,203.041,306.247,213.327Z" transform="translate(-261.178 -89.004)" fill="#7cb342"/>
      <path id="Trazado_897913" data-name="Trazado 897913" d="M384.042,163.431h-6.222s-.651-20.557,7.8-29.516a.138.138,0,0,1,.238.114A194.9,194.9,0,0,0,384.042,163.431Z" transform="translate(-325.652 -39.108)" fill="#9ccc65"/>
      <path id="Trazado_897914" data-name="Trazado 897914" d="M76.111,323.94V314c-2.859,0-2.859,2.359-5.718,2.359S67.533,314,64.674,314s-2.859,2.359-5.718,2.359S56.1,314,53.239,314s-2.859,2.359-5.717,2.359S44.662,314,41.8,314s-2.858,2.359-5.717,2.359S33.228,314,30.369,314s-2.859,2.359-5.718,2.359S21.793,314,18.934,314s-2.859,2.359-5.717,2.359S10.359,314,7.5,314v9.94Z" transform="translate(-6.465 -194.371)" fill="#9ccc65"/>
      <g id="Grupo_1111197" data-name="Grupo 1111197" transform="translate(1.035 119.629)">
        <path id="Trazado_897915" data-name="Trazado 897915" d="M161.807,316.359a3.617,3.617,0,0,0,2.071-.582c-1.087-.7-1.713-1.777-3.646-1.777a3.618,3.618,0,0,0-2.071.582C159.247,315.281,159.873,316.359,161.807,316.359Z" transform="translate(-137.361 -314)" fill="#8bc34a"/>
        <path id="Trazado_897916" data-name="Trazado 897916" d="M244.634,316.359a3.618,3.618,0,0,0,2.071-.582c-1.087-.7-1.713-1.777-3.647-1.777a3.617,3.617,0,0,0-2.071.582C242.074,315.281,242.7,316.359,244.634,316.359Z" transform="translate(-208.754 -314)" fill="#8bc34a"/>
        <path id="Trazado_897917" data-name="Trazado 897917" d="M327.466,316.359a3.618,3.618,0,0,0,2.071-.582c-1.087-.7-1.713-1.777-3.647-1.777a3.618,3.618,0,0,0-2.071.582C324.906,315.281,325.532,316.359,327.466,316.359Z" transform="translate(-280.151 -314)" fill="#8bc34a"/>
        <path id="Trazado_897918" data-name="Trazado 897918" d="M410.3,316.359a3.619,3.619,0,0,0,2.071-.582c-1.087-.7-1.714-1.777-3.648-1.777a3.618,3.618,0,0,0-2.071.582C407.742,315.28,408.369,316.359,410.3,316.359Z" transform="translate(-351.552 -314)" fill="#8bc34a"/>
        <path id="Trazado_897919" data-name="Trazado 897919" d="M78.974,316.359a3.619,3.619,0,0,0,2.071-.582c-1.087-.7-1.713-1.777-3.647-1.777a3.618,3.618,0,0,0-2.071.582C76.414,315.281,77.04,316.359,78.974,316.359Z" transform="translate(-65.963 -314)" fill="#8bc34a"/>
        <path id="Trazado_897920" data-name="Trazado 897920" d="M474.5,316.046v7.893h4.141V314C476.434,314,475.93,315.4,474.5,316.046Z" transform="translate(-410.031 -314)" fill="#8bc34a"/>
        <path id="Trazado_897921" data-name="Trazado 897921" d="M9.076,316.359a3.618,3.618,0,0,0,2.071-.582C10.06,315.078,9.433,314,7.5,314v2.047a3.752,3.752,0,0,0,1.576.312Z" transform="translate(-7.5 -314)" fill="#8bc34a"/>
      </g>
      <path id="Trazado_897922" data-name="Trazado 897922" d="M74.04,390.142H9.571A2.071,2.071,0,0,1,7.5,388.071V386H76.111v2.071A2.071,2.071,0,0,1,74.04,390.142Z" transform="translate(-6.465 -256.432)" fill="#d67b42"/>
      <path id="Trazado_897923" data-name="Trazado 897923" d="M461.571,386v2.071a2.071,2.071,0,0,1-2.071,2.071h4.142a2.071,2.071,0,0,0,2.071-2.071V386Z" transform="translate(-396.067 -256.432)" fill="#be652b"/>
      <path id="Trazado_897924" data-name="Trazado 897924" d="M166.684,243.376h-6.222s1.116-16.7,9.576-22.816a.138.138,0,0,1,.217.14C169.878,222.427,166.507,233.08,166.684,243.376Z" transform="translate(-138.311 -113.808)" fill="#7cb342"/>
      <path id="Trazado_897925" data-name="Trazado 897925" d="M99.635,168.571h6.222s.651-24.215-7.8-34.771c-.092-.115-.26-.027-.24.126A269.731,269.731,0,0,1,99.635,168.571Z" transform="translate(-84.314 -39.002)" fill="#8bc34a"/>
      <path id="Trazado_897926" data-name="Trazado 897926" d="M57.754,251.192h6.222s-.781-15.453-9.241-21.564a.138.138,0,0,0-.217.14C54.9,231.5,57.932,240.9,57.754,251.192Z" transform="translate(-46.989 -121.624)" fill="#7cb342"/>
      <path id="Trazado_897927" data-name="Trazado 897927" d="M135.55,201.246h-6.222s-.651-20.577,7.8-29.546a.138.138,0,0,1,.238.114A195.245,195.245,0,0,0,135.55,201.246Z" transform="translate(-111.465 -71.678)" fill="#9ccc65"/>
      <path id="Trazado_897928" data-name="Trazado 897928" d="M69.645,118.594a5.018,5.018,0,0,0-3.518,1.416,3.018,3.018,0,0,1-2.2.943c-.052,0-.1,0-.151,0,.066-1.28.18-2.614.341-3.98a1.035,1.035,0,1,0-2.056-.242c-.133,1.126-.234,2.232-.305,3.306l-.028-.023a5.468,5.468,0,0,0-2.288-1.276c.028-1.727.077-3.394.142-4.989a25.684,25.684,0,0,1,4.895-9.4c-.518,1.986-1.2,4.775-1.761,7.964a1.035,1.035,0,1,0,2.039.36c.728-4.121,1.659-7.577,2.16-9.434.166-.618.287-1.065.349-1.348a1.174,1.174,0,0,0-1.837-1.192,18.809,18.809,0,0,0-5.489,6.7c.471-6.593,1.114-11.131,1.293-12.315a1.174,1.174,0,0,0-2.016-.981,23.777,23.777,0,0,0-4.649,7.8c-1.363-5.574-3.277-9.923-5.71-12.958a1.156,1.156,0,0,0-1.364-.345,1.2,1.2,0,0,0-.709,1.252c.277,2.163,1.1,9.149,1.538,19.041a19.072,19.072,0,0,0-5.664-6.946,1.174,1.174,0,0,0-1.835,1.2c.061.277.174.7.331,1.281a80.2,80.2,0,0,1,2.743,15.086c-.233.167-.443.339-.639.5a3.038,3.038,0,0,1-4.4,0,5.076,5.076,0,0,0-7.035,0,3.144,3.144,0,0,1-1.843.926A99.377,99.377,0,0,1,32.6,108.471c.169-.627.29-1.08.35-1.354a1.173,1.173,0,0,0-1.833-1.2,18.81,18.81,0,0,0-5.491,6.71c.466-6.536,1.1-11.049,1.295-12.333a1.174,1.174,0,0,0-2.016-.978,23.636,23.636,0,0,0-4.654,7.786c-1.363-5.57-3.275-9.916-5.705-12.951a1.157,1.157,0,0,0-1.363-.345,1.2,1.2,0,0,0-.709,1.252c.118.922.428,3.472.757,7.21a1.035,1.035,0,1,0,2.063-.181c-.117-1.334-.232-2.519-.337-3.535a43.723,43.723,0,0,1,4.021,12.471,57.837,57.837,0,0,0-1.412,6.993c-.247,1.731-.414,3.37-.527,4.843-.146-.658-.312-1.343-.5-2.048-.082-.3-.167-.6-.253-.894-.109-4.479-.323-8.988-.637-13.4a1.035,1.035,0,0,0-2.066.147c.174,2.455.317,4.939.428,7.431a19.01,19.01,0,0,0-5.659-6.923,1.173,1.173,0,0,0-1.835,1.2c.061.277.174.7.331,1.282A87.549,87.549,0,0,1,9.06,119.92l-.109.089a3.038,3.038,0,0,1-4.4,0,5.016,5.016,0,0,0-3.518-1.416A1.035,1.035,0,0,0,0,119.629v12.01a3.11,3.11,0,0,0,3.106,3.107H39.811a1.035,1.035,0,1,0,0-2.071H3.105a1.036,1.036,0,0,1-1.035-1.035V130.6H68.61v1.035a1.036,1.036,0,0,1-1.035,1.035H44.228a1.035,1.035,0,1,0,0,2.071H67.575a3.11,3.11,0,0,0,3.106-3.106v-12.01a1.035,1.035,0,0,0-1.035-1.035ZM57.52,113.461a1.042,1.042,0,0,0,0,.117c-.067,1.624-.117,3.321-.147,5.08a5.226,5.226,0,0,0-2.678,1.352,3.56,3.56,0,0,1-1.452.859,71.133,71.133,0,0,1,1.372-11.715,33.634,33.634,0,0,1,4.13-11.067c-.4,3.322-.942,8.725-1.219,15.374Zm-4.232-7.648a64.333,64.333,0,0,0-1.942,11.812c-.207-.937-.456-1.926-.756-2.943-.228-9.374-.862-16.891-1.325-21.344A43.639,43.639,0,0,1,53.289,105.812Zm-9.692-.247c3.583,3.97,5.258,9.938,6.014,13.915a4.656,4.656,0,0,0-2.838-.886,5.423,5.423,0,0,0-.868.068,79.7,79.7,0,0,0-2.308-13.1ZM2.07,120.837a4.231,4.231,0,0,1,1.164.77,5.016,5.016,0,0,0,3.518,1.416,4.643,4.643,0,0,0,2.615-.737,58.078,58.078,0,0,1,.369,6.247H2.07Zm9.737,7.7a74.171,74.171,0,0,0-2.516-17.745c4.912,5.433,6.248,14.609,6.57,17.745Zm7.081,0c.008-3.749.412-17.123,5.544-25.219-.4,3.335-.942,8.728-1.218,15.382a1.039,1.039,0,0,0-.005.126c-.123,3.006-.192,6.267-.17,9.712H18.889Zm6.223,0c-.022-3.387.044-6.595.164-9.553a25.724,25.724,0,0,1,4.9-9.415,80.549,80.549,0,0,0-2.839,18.968H25.111Zm4.292,0c.01-1.85.13-3.707.321-5.512a5.03,5.03,0,0,0,3.414-1.413,3.038,3.038,0,0,1,4.4,0,5.077,5.077,0,0,0,7.035,0,3.038,3.038,0,0,1,4.4,0,6.28,6.28,0,0,0,1.652,1.07l.052.021a4.671,4.671,0,0,0,1.361.306l.047,0c.131.009.264.015.405.015a5.017,5.017,0,0,0,3.518-1.416,3.018,3.018,0,0,1,2.2-.943c.058,0,.113,0,.168,0h0a3.06,3.06,0,0,1,2.03.939,5.863,5.863,0,0,0,1.916,1.168,1.055,1.055,0,0,0,.108.036,5.15,5.15,0,0,0,5.013-1.2,4.234,4.234,0,0,1,1.165-.77v7.7Z"/>
    </g>
  </g>
</svg>
