<svg xmlns="http://www.w3.org/2000/svg" xmlns:xlink="http://www.w3.org/1999/xlink" width="73" height="73" viewBox="0 0 73 73">
  <defs>
    <clipPath id="clip-path">
      <rect id="Rectángulo_404466" data-name="Rectángulo 404466" width="35.259" height="48.477" fill="none"/>
    </clipPath>
    <clipPath id="clip-path-2">
      <rect id="Rectángulo_404465" data-name="Rectángulo 404465" width="35.259" height="48.476" fill="none"/>
    </clipPath>
    <clipPath id="clip-path-3">
      <rect id="Rectángulo_404459" data-name="Rectángulo 404459" width="34.14" height="47.855" fill="none"/>
    </clipPath>
    <clipPath id="clip-path-4">
      <rect id="Rectángulo_404460" data-name="Rectángulo 404460" width="27.268" height="23.374" fill="none"/>
    </clipPath>
    <clipPath id="clip-path-5">
      <rect id="Rectángulo_404461" data-name="Rectángulo 404461" width="30.898" height="27.468" fill="none"/>
    </clipPath>
    <clipPath id="clip-path-6">
      <rect id="Rectángulo_404462" data-name="Rectángulo 404462" width="24.782" height="20.887" fill="none"/>
    </clipPath>
    <clipPath id="clip-path-7">
      <rect id="Rectángulo_404463" data-name="Rectángulo 404463" width="28.411" height="24.981" fill="none"/>
    </clipPath>
    <clipPath id="clip-path-8">
      <rect id="Rectángulo_404464" data-name="Rectángulo 404464" width="20.504" height="14.021" fill="none"/>
    </clipPath>
  </defs>
  <g id="Grupo_1111085" data-name="Grupo 1111085" transform="translate(-445.051 -3049)">
    <path id="Trazado_896628" data-name="Trazado 896628" d="M36.5,0A36.5,36.5,0,1,1,0,36.5,36.5,36.5,0,0,1,36.5,0Z" transform="translate(445.051 3049)" fill="#e2dacc"/>
    <g id="Grupo_1111109" data-name="Grupo 1111109" transform="translate(463.921 3061.262)">
      <g id="Grupo_1111108" data-name="Grupo 1111108" clip-path="url(#clip-path)">
        <g id="Grupo_1111107" data-name="Grupo 1111107" transform="translate(0 0)">
          <g id="Grupo_1111106" data-name="Grupo 1111106" clip-path="url(#clip-path-2)">
            <g id="Grupo_1111090" data-name="Grupo 1111090" transform="translate(0 0.621)" opacity="0.5" style="mix-blend-mode: multiply;isolation: isolate">
              <g id="Grupo_1111089" data-name="Grupo 1111089">
                <g id="Grupo_1111088" data-name="Grupo 1111088" clip-path="url(#clip-path-3)">
                  <path id="Trazado_897735" data-name="Trazado 897735" d="M33.4,24.835a72.781,72.781,0,0,0-3.858-7.045c-.3-.481-3.162-4.48-2.75-4.091-.926-1.117-1.89-2.206-2.895-3.249-1.216-1.261-2.493-2.421-3.784-3.6-.4-.361-.653-.611-.821-.786-.19-.088-.476-.236-.914-.486-1.756-1-3.429-2.085-5.242-2.992-.935-.337-1.875-.659-2.831-.931C9.592,1.45,7.208,1.113,7,1,6.615,1,6.219,1,5.829,1l-.242.259c.285-.259.24-.113-.645.7a6.207,6.207,0,0,0-.643.969c-.455.864-.749,1.483-.877,1.748-.333.946-.654,1.9-.933,2.866-.443,1.539-.814,3.1-1.132,4.665-.111.542-.293,1.791-.4,2.438A97.613,97.613,0,0,0,.56,27.54c2.913,5.174,5.85,10.388,8.995,15.4.2.323.419.633.628.951-.292-.537,1.293,1.522,1.791,2.086.553.285,1.761.9,2.288,1.207a44.457,44.457,0,0,0-3.574-7.331c2.609,3.779,5.747,7.217,9.821,7.7,4.465.533,8.6-2.979,10.386-7.459,1.758-4.418,1.444-9.313,1.01-14.068l.288-1.156C32.6,24.863,32.995,24.848,33.4,24.835Z" transform="translate(0.122 -0.378)" fill="none" stroke="#d99c9c" stroke-linecap="round" stroke-linejoin="round" stroke-width="1"/>
                </g>
              </g>
            </g>
            <path id="Trazado_897736" data-name="Trazado 897736" d="M33.4,24.835a72.781,72.781,0,0,0-3.858-7.045c-.3-.481-3.162-4.48-2.75-4.091-.926-1.117-1.89-2.206-2.895-3.249-1.216-1.261-2.493-2.421-3.784-3.6-.4-.361-.653-.611-.821-.786-.19-.088-.476-.236-.914-.486-1.756-1-3.429-2.085-5.242-2.992-.935-.337-1.875-.659-2.831-.931C9.592,1.45,7.208,1.113,7,1,6.615,1,6.219,1,5.829,1l-.242.259c.285-.259.24-.113-.645.7a6.207,6.207,0,0,0-.643.969c-.455.864-.749,1.483-.877,1.748-.333.946-.654,1.9-.933,2.866-.443,1.539-.814,3.1-1.132,4.665-.111.542-.293,1.791-.4,2.438A97.613,97.613,0,0,0,.56,27.54c2.913,5.174,5.85,10.388,8.995,15.4.2.323.419.633.628.951-.292-.537,1.293,1.522,1.791,2.086.553.285,1.761.9,2.288,1.207a44.457,44.457,0,0,0-3.574-7.331c2.609,3.779,5.747,7.217,9.821,7.7,4.465.533,8.6-2.979,10.386-7.459,1.758-4.418,1.444-9.313,1.01-14.068l.288-1.156c.4-.011.8-.026,1.2-.039" transform="translate(0.122 0.243)" fill="#ffe0d1"/>
            <g id="Grupo_1111093" data-name="Grupo 1111093" transform="translate(7.139 24.59)" opacity="0.3" style="mix-blend-mode: multiply;isolation: isolate">
              <g id="Grupo_1111092" data-name="Grupo 1111092">
                <g id="Grupo_1111091" data-name="Grupo 1111091" clip-path="url(#clip-path-4)">
                  <path id="Trazado_897737" data-name="Trazado 897737" d="M8.663,39.079c-.291-.537,1.293,1.522,1.791,2.086l.97.5C10.51,39.668,9.8,38.434,9.8,38.434s12.145,7.9,19.123-2.289S26.6,20.777,26.6,20.777A12.5,12.5,0,0,1,22.71,36.735,12.172,12.172,0,0,1,6.741,33.7c.354,1.265.655,2.543.93,3.827.123.2.241.4.364.6C8.238,38.451,8.456,38.762,8.663,39.079Z" transform="translate(-5.498 -19.532)" fill="none" stroke="#f2b97b" stroke-linecap="round" stroke-linejoin="round" stroke-width="2"/>
                </g>
              </g>
            </g>
            <g id="Grupo_1111096" data-name="Grupo 1111096" transform="translate(4.361 0)" opacity="0.3" style="mix-blend-mode: multiply;isolation: isolate">
              <g id="Grupo_1111095" data-name="Grupo 1111095" transform="translate(0 0)">
                <g id="Grupo_1111094" data-name="Grupo 1111094" clip-path="url(#clip-path-5)">
                  <path id="Trazado_897738" data-name="Trazado 897738" d="M32.9,25.892a71.34,71.34,0,0,0-4.337-8.1c-.3-.481-3.162-4.48-2.75-4.091-.926-1.117-1.89-2.206-2.895-3.248-1.216-1.261-2.493-2.422-3.784-3.6-.4-.362-.653-.612-.821-.787-.19-.088-.476-.236-.914-.486-1.756-1-3.429-2.084-5.242-2.992-.935-.337-1.875-.659-2.831-.93-.709-.2-3.092-.538-3.3-.648C5.64,1,5.243,1,4.854,1l-.242.259c.208-.189.236-.159-.1.187a59.209,59.209,0,0,1,8.371,4.062c6.289,3.73,14.531,18.869,18.435,20.186a6.772,6.772,0,0,0,1.605.286C32.9,25.926,32.893,25.891,32.9,25.892Z" transform="translate(-3.264 0.243)" fill="none" stroke="#f2b97b" stroke-linecap="round" stroke-linejoin="round" stroke-width="2"/>
                </g>
              </g>
            </g>
            <g id="Grupo_1111099" data-name="Grupo 1111099" transform="translate(8.382 25.833)" opacity="0.3" style="mix-blend-mode: multiply;isolation: isolate">
              <g id="Grupo_1111098" data-name="Grupo 1111098">
                <g id="Grupo_1111097" data-name="Grupo 1111097" clip-path="url(#clip-path-6)">
                  <path id="Trazado_897739" data-name="Trazado 897739" d="M8.663,39.079c-.291-.537,1.293,1.522,1.791,2.086l.97.5C10.51,39.668,9.8,38.434,9.8,38.434s12.145,7.9,19.123-2.289S26.6,20.777,26.6,20.777A12.5,12.5,0,0,1,22.71,36.735,12.172,12.172,0,0,1,6.741,33.7c.354,1.265.655,2.543.93,3.827.123.2.241.4.364.6.2.323.42.634.628.951" transform="translate(-6.741 -20.776)" fill="#f2b97b"/>
                </g>
              </g>
            </g>
            <g id="Grupo_1111102" data-name="Grupo 1111102" transform="translate(5.604 1.243)" opacity="0.3" style="mix-blend-mode: multiply;isolation: isolate">
              <g id="Grupo_1111101" data-name="Grupo 1111101">
                <g id="Grupo_1111100" data-name="Grupo 1111100" clip-path="url(#clip-path-7)">
                  <path id="Trazado_897740" data-name="Trazado 897740" d="M32.9,25.892a71.34,71.34,0,0,0-4.337-8.1c-.3-.481-3.162-4.48-2.75-4.091-.926-1.117-1.89-2.206-2.895-3.248-1.216-1.261-2.493-2.422-3.784-3.6-.4-.362-.653-.612-.821-.787-.19-.088-.476-.236-.914-.486-1.756-1-3.429-2.084-5.242-2.992-.935-.337-1.875-.659-2.831-.93-.709-.2-3.092-.538-3.3-.648C5.64,1,5.243,1,4.854,1l-.242.259c.208-.189.236-.159-.1.187a59.209,59.209,0,0,1,8.371,4.062c6.289,3.73,14.531,18.869,18.435,20.186a6.772,6.772,0,0,0,1.605.286c-.017-.055-.025-.09-.019-.088" transform="translate(-4.507 -1)" fill="#f2b97b"/>
                </g>
              </g>
            </g>
            <g id="Grupo_1111105" data-name="Grupo 1111105" transform="translate(1.05 1.243)" opacity="0.3" style="mix-blend-mode: multiply;isolation: isolate">
              <g id="Grupo_1111104" data-name="Grupo 1111104">
                <g id="Grupo_1111103" data-name="Grupo 1111103" clip-path="url(#clip-path-8)">
                  <path id="Trazado_897741" data-name="Trazado 897741" d="M20.025,6.847c-.4-.362-.652-.612-.819-.787-.191-.087-.476-.236-.915-.486-1.756-1-3.429-2.084-5.242-2.992-.935-.337-1.874-.658-2.83-.93-.709-.2-3.094-.538-3.3-.648C6.531,1,6.135,1,5.745,1L5.5,1.26c.285-.257.24-.112-.644.7a6.2,6.2,0,0,0-.644.97c-.455.863-.747,1.482-.877,1.748-.332.946-.654,1.9-.933,2.866-.443,1.538-.814,3.095-1.132,4.665C1.165,12.755.982,14,.88,14.65c-.012.124-.024.247-.035.371C9.28,11.93,17.47,9.205,21.349,8.069c-.44-.408-.879-.814-1.324-1.222" transform="translate(-0.845 -1)" fill="#f2b97b"/>
                </g>
              </g>
            </g>
          </g>
        </g>
      </g>
    </g>
  </g>
</svg>
