<svg xmlns="http://www.w3.org/2000/svg" width="82.073" height="82.073" viewBox="0 0 82.073 82.073">
  <g id="Grupo_1111202" data-name="Grupo 1111202" transform="translate(-1073.051 -2237)">
    <rect id="Rectángulo_403798" data-name="Rectángulo 403798" width="82.073" height="82.073" rx="41.036" transform="translate(1073.051 2237)" fill="none"/>
    <g id="cesped_3_" data-name="cesped (3)" transform="translate(1081.301 2246.998)">
      <g id="Grupo_1111200" data-name="Grupo 1111200" transform="translate(10.48 3.835)">
        <path id="Trazado_897929" data-name="Trazado 897929" d="M101.557,41.708c-9.261,13.545-8.806,37.2-8.806,37.2h6.634C98.551,63.926,101.557,41.708,101.557,41.708Z" transform="translate(-56.532 -24.092)" fill="#9adb07"/>
        <path id="Trazado_897930" data-name="Trazado 897930" d="M80.49,24c-8.3,19.424-7.9,45.64-7.9,45.64h6.634C78.384,51.051,80.49,24,80.49,24Z" transform="translate(-45.979 -14.824)" fill="#9adb07"/>
        <g id="Grupo_1111199" data-name="Grupo 1111199">
          <path id="Trazado_897931" data-name="Trazado 897931" d="M58.5,59.566c0-18.113,2.3-41.231,9.613-54.816-3.178,25.835-1.668,54.816-1.668,54.816Z" transform="translate(-38.609 -4.75)" fill="#8ec100"/>
          <path id="Trazado_897932" data-name="Trazado 897932" d="M90.656,35.25c-8.3,17.142-7.9,40.278-7.9,40.278h6.634C88.551,59.122,90.656,35.25,90.656,35.25Z" transform="translate(-51.3 -20.712)" fill="#8ec100"/>
          <path id="Trazado_897933" data-name="Trazado 897933" d="M16.771,41.708c9.261,13.545,8.806,37.2,8.806,37.2H18.943c.834-14.982-2.172-37.2-2.172-37.2Z" transform="translate(-16.771 -24.092)" fill="#8ec100"/>
          <path id="Trazado_897934" data-name="Trazado 897934" d="M38.828,24c8.3,19.424,7.9,45.64,7.9,45.64H40.1C40.933,51.051,38.828,24,38.828,24Z" transform="translate(-28.314 -14.824)" fill="#8ec100"/>
        </g>
        <path id="Trazado_897935" data-name="Trazado 897935" d="M49.82,14.75c9.1,21.3,8.669,50.049,8.669,50.049H51.214C52.129,44.414,49.82,14.75,49.82,14.75Z" transform="translate(-34.067 -9.983)" fill="#9adb07"/>
        <path id="Trazado_897936" data-name="Trazado 897936" d="M28.662,35.25c8.3,17.142,7.9,40.278,7.9,40.278H29.933C30.767,59.122,28.662,35.25,28.662,35.25Z" transform="translate(-22.994 -20.712)" fill="#9adb07"/>
      </g>
      <g id="Grupo_1111201" data-name="Grupo 1111201" transform="translate(4.75 3.002)">
        <path id="Trazado_897937" data-name="Trazado 897937" d="M105.826,88.684a.832.832,0,0,0-.874.793q-.059,1.231-.1,2.467a.834.834,0,0,0,.8.864h.031a.835.835,0,0,0,.833-.8c.029-.816.064-1.633.1-2.446a.835.835,0,0,0-.793-.873Z" transform="translate(-57.135 -47.842)" fill="#220401"/>
        <path id="Trazado_897938" data-name="Trazado 897938" d="M60.4,57.817H54.124c-.1-2.088-.127-4.418-.09-6.94a.835.835,0,0,0-.822-.846H53.2a.834.834,0,0,0-.834.822c-.036,2.526-.007,4.862.088,6.964H49.361c-.251-5.639-.169-12.119.044-18.172A55.212,55.212,0,0,1,54.2,25.279c-.434,3.766-1.062,9.813-1.46,16.28a.835.835,0,0,0,.782.884h.052a.835.835,0,0,0,.832-.783c.649-10.565,1.918-20,1.931-20.1a.834.834,0,0,0-1.515-.582,41.923,41.923,0,0,0-5.053,10.68c.409-7.539.893-13.1.9-13.215a.834.834,0,0,0-1.582-.437,67.161,67.161,0,0,0-4.242,11.6c.423-9.331.969-16.439.976-16.532a.834.834,0,0,0-1.6-.392,90.954,90.954,0,0,0-5.272,17.875c.231-8.381.766-17.71,1.862-26.619a.834.834,0,0,0-1.562-.5,57.522,57.522,0,0,0-4.16,10.248.835.835,0,1,0,1.6.492q.89-2.886,1.915-5.4c-1.2,12.094-1.485,24.477-1.465,33.886l0,.027a.813.813,0,0,0,0,.191c.019,7.37.223,12.881.311,14.937H35.737a172.094,172.094,0,0,0-2.543-27.69c.62-4.147,1.382-8.033,2.267-11.55a.835.835,0,1,0-1.621-.407c-.572,2.288-1.1,4.727-1.565,7.289A94.982,94.982,0,0,0,27,8.274a.834.834,0,0,0-1.6.392c.012.157.658,8.559,1.126,19.414a86.042,86.042,0,0,0-4.767-15.4.834.834,0,0,0-1.6.392c.007.092.553,7.2.976,16.531a67.192,67.192,0,0,0-4.242-11.6.834.834,0,0,0-1.582.437c.01.115.5,5.682.906,13.227-.318-.977-.653-1.925-1.005-2.834a.834.834,0,1,0-1.555.6,63.165,63.165,0,0,1,2.92,10.2c.213,6.054.3,12.531.044,18.17H13.53c.5-11.024-.95-25.632-1.743-32.539l.151.294a.834.834,0,1,0,1.487-.756,34.469,34.469,0,0,0-2.258-3.834.834.834,0,0,0-1.515.582c.03.218,2.883,21.538,2.207,36.253H5.584a.834.834,0,1,0,0,1.668H60.4a.834.834,0,0,0,0-1.668ZM22.211,18.57A112.318,112.318,0,0,1,26.93,40.576c.116,5.9.115,11.878-.1,17.241h-1.94a123.912,123.912,0,0,0-1.747-19.079c0-.018,0-.035,0-.053-.22-7.857-.63-15.278-.935-20.114Zm.051,39.247H18.293c.248-5.664.166-12.155-.048-18.216a.814.814,0,0,0,0-.1c-.225-6.349-.593-12.221-.874-16.167C22.746,37.5,23.191,53.99,23.221,57.817Zm8.108,0H28.5c.215-5.378.214-11.37.1-17.272v-.016a.274.274,0,0,0,0-.048c-.2-10.335-.763-20.387-1.144-26.372,6.18,18.036,6.6,39.3,6.621,43.708ZM38.8,42.76a118.851,118.851,0,0,1,4.972-24.167c-.3,4.837-.715,12.246-.931,20.093,0,.018,0,.035,0,.053A123.913,123.913,0,0,0,41.1,57.817H39.113c-.086-1.987-.3-7.566-.313-15.057Zm7.9,15.057H42.764c.027-3.825.469-20.311,5.851-34.486-.281,3.945-.648,9.819-.874,16.167a.831.831,0,0,0,0,.1c-.214,6.062-.3,12.552-.048,18.216Z" transform="translate(-4.75 -3.002)" fill="#220401"/>
      </g>
    </g>
  </g>
</svg>
