<svg xmlns="http://www.w3.org/2000/svg" xmlns:xlink="http://www.w3.org/1999/xlink" width="73" height="73" viewBox="0 0 73 73">
  <defs>
    <clipPath id="clip-path">
      <rect id="Rectángulo_404448" data-name="Rectángulo 404448" width="45.803" height="56.11" fill="none"/>
    </clipPath>
    <clipPath id="clip-path-2">
      <rect id="Rectángulo_404447" data-name="Rectángulo 404447" width="45.802" height="56.11" fill="none"/>
    </clipPath>
    <clipPath id="clip-path-3">
      <rect id="Rectángulo_404446" data-name="Rectángulo 404446" width="45.476" height="54.519" fill="none"/>
    </clipPath>
  </defs>
  <g id="Grupo_1111068" data-name="Grupo 1111068" transform="translate(-869.051 -3049)">
    <path id="Trazado_896630" data-name="Trazado 896630" d="M36.5,0A36.5,36.5,0,1,1,0,36.5,36.5,36.5,0,0,1,36.5,0Z" transform="translate(869.051 3049)" fill="#e2dacc"/>
    <g id="Grupo_1111051" data-name="Grupo 1111051" transform="translate(883.051 3057)">
      <g id="Grupo_1111056" data-name="Grupo 1111056" clip-path="url(#clip-path)">
        <g id="Grupo_1111055" data-name="Grupo 1111055" transform="translate(0 0)">
          <g id="Grupo_1111054" data-name="Grupo 1111054" clip-path="url(#clip-path-2)">
            <path id="Trazado_897723" data-name="Trazado 897723" d="M12.275,1.341c3.795,2.223,7.831,5.54,6.509,9.733-.494,1.564-1.56,2.9-2.006,4.482s.065,3.674,1.651,4.089c1.261.328,2.785-.515,3.815.282,1.143.884.435,2.7.707,4.121.463,2.424,3.9,3.112,6.041,1.887s3.351-3.551,4.739-5.591,3.392-4.049,5.859-4c2.291.05,4.213,1.968,4.957,4.135a14.883,14.883,0,0,1,.238,6.806,78.6,78.6,0,0,1-4.2,16.819,20.837,20.837,0,0,1-4.1,7.347c-4.586,4.79-12.562,4.9-18.457,1.861S7.925,44.777,4.33,39.2C2.6,36.527.923,33.651.718,30.472s1.545-6.708,4.635-7.485C1.394,21.612-.224,16.554.8,12.491S4.564,4.261,7.393,1.172c0,0,1.831-1.618,4.882.169" transform="translate(0.122 0.122)" fill="#fbc7bb"/>
            <path id="Trazado_897724" data-name="Trazado 897724" d="M12.275,1.341c3.795,2.223,7.831,5.54,6.509,9.733-.494,1.564-1.56,2.9-2.006,4.482s.065,3.674,1.651,4.089c1.261.328,2.785-.515,3.815.282,1.143.884.435,2.7.707,4.121.463,2.424,3.9,3.112,6.041,1.887s3.351-3.551,4.739-5.591,3.392-4.049,5.859-4c2.291.05,4.213,1.968,4.957,4.135a14.883,14.883,0,0,1,.238,6.806,78.6,78.6,0,0,1-4.2,16.819,20.837,20.837,0,0,1-4.1,7.347c-4.586,4.79-12.562,4.9-18.457,1.861S7.925,44.777,4.33,39.2C2.6,36.527.923,33.651.718,30.472s1.545-6.708,4.635-7.485C1.394,21.612-.224,16.554.8,12.491S4.564,4.261,7.393,1.172C7.393,1.172,9.224-.447,12.275,1.341Z" transform="translate(0.122 0.122)" fill="none" stroke="#d99c9c" stroke-miterlimit="10" stroke-width="1"/>
            <g id="Grupo_1111053" data-name="Grupo 1111053" transform="translate(0.237 1.105)" opacity="0.5" style="mix-blend-mode: multiply;isolation: isolate">
              <g id="Grupo_1111052" data-name="Grupo 1111052">
                <g id="Grupo_1111051-2" data-name="Grupo 1111051" clip-path="url(#clip-path-3)">
                  <path id="Trazado_897725" data-name="Trazado 897725" d="M40.348,45.063C41.915,39.6,43.369,34.122,44.63,28.58c.657-2.889,1.423-5.967.815-8.927-.933-4.539-5.9-5.213-9.156-2.58-3.127,2.526-4.074,7.1-7.625,9.181-1.506.881-2.6.275-3.812-.79a3.867,3.867,0,0,0-.7-.631c-.325-.157-.158-.163-.021.044.257.388-.122-.43-.173-.623a21.962,21.962,0,0,0-.677-2.5,5.624,5.624,0,0,0-4.509-3.542c-.387-.083-.779-.149-1.163-.243-.162-.039-.323-.078-.484-.119-.922-.24-.077-.024-.116,0-.164.088-1-1.137.183.414-.721-.945.53.665.5.678-.006,0,.219-1.388.231-1.442.561-2.343,1.481-4.594,1.527-7.038a9.211,9.211,0,0,0-2.656-6.551C13.51.461,7.753-.372,4.216,3.185,1.241,6.178.229,11.254.191,15.309a16.148,16.148,0,0,0,1.168,6.457C2.51,24.479,4.527,25.8,7.284,26.618L5.91,21.42a17.767,17.767,0,0,0-2.174,2.705,11.3,11.3,0,0,0-2.658,4.737c-.942,4.917,2.914,9.129,5.21,13.1C10.771,49.723,18.15,56.777,27.78,55.179c5.473-.908,10.82-4.742,12.568-10.116,1.24-3.815-4.763-5.449-6-1.653-1.264,3.885-6.34,6.05-10.149,5.82-3.883-.235-7.13-3.071-9.542-5.972a36.884,36.884,0,0,1-3.674-5.638c-1.08-1.929-2.632-3.689-3.513-5.717A2.635,2.635,0,0,1,7.262,29.8a8.726,8.726,0,0,1,.59-.918c-.486.928-.09.118.111-.138a19.164,19.164,0,0,1,2.346-2.922c1.862-1.565.711-4.582-1.372-5.2-1.408-.417-1.744-.7-2.1-1.9a12.464,12.464,0,0,1-.373-4.636,16.636,16.636,0,0,1,.915-4.224,6.634,6.634,0,0,1,.684-1.483,6.383,6.383,0,0,1,.5-.779c-.372.471.333-.295.429-.372-.595.473.081,0,.327-.076a1.894,1.894,0,0,1,.927-.091,3.444,3.444,0,0,1,1.642.745,3.347,3.347,0,0,1,1.276,3.416c-.535,3.6-3.755,8.988.267,11.7a11.408,11.408,0,0,0,4.014,1.351c.066.016.85.262.873.24-.143.141-1.041-.56-.914-.817a9.244,9.244,0,0,0,.6,2.381c.953,3.533,4.918,6.521,8.523,6.831,4.529.389,8.014-3.016,10.44-6.413.892-1.249,1.549-2.689,2.516-3.88a10.7,10.7,0,0,1,.883-.894c-.047.045.384-.153.358-.117-.08.109-.111.146-.407.009a1.558,1.558,0,0,1-.7-.366q-.4-.549-.139-.1c-.415-.032.044-.536-.035.162.086-.765,0,.35,0,.526,0,.292-.012.585-.032.874-.007.122-.149,1.314-.052.633-.185,1.306-.5,2.595-.795,3.881-1.243,5.443-2.676,10.823-4.215,16.19-1.107,3.853,4.893,5.5,6,1.653" transform="translate(-0.19 -0.888)" fill="#d99c9c"/>
                </g>
              </g>
            </g>
            <path id="Trazado_897726" data-name="Trazado 897726" d="M11.033,5.4c0,2.552-1.509,4.622-3.37,4.622S4.3,7.948,4.3,5.4,5.8.773,7.663.773s3.37,2.07,3.37,4.622" transform="translate(1.047 0.188)" fill="#c78585"/>
          </g>
        </g>
      </g>
    </g>
  </g>
</svg>
