<svg xmlns="http://www.w3.org/2000/svg" width="90" height="90" viewBox="0 0 90 90">
  <g id="Grupo_1111207" data-name="Grupo 1111207" transform="translate(-755.051 -5119)">
    <g id="Grupo_1098742" data-name="Grupo 1098742" transform="translate(-448.27 4730.258)">
      <g id="Rect치ngulo_400898" data-name="Rect치ngulo 400898" transform="translate(1203.32 388.742)" fill="#fff" stroke="#fff" stroke-width="3" opacity="0.859">
        <rect width="90" height="90" rx="45" stroke="none"/>
        <rect x="1.5" y="1.5" width="87" height="87" rx="43.5" fill="none"/>
      </g>
      <g id="Rect치ngulo_400907" data-name="Rect치ngulo 400907" transform="translate(1203.32 388.742)" fill="none" stroke="#fff" stroke-width="3">
        <rect width="90" height="90" rx="45" stroke="none"/>
        <rect x="1.5" y="1.5" width="87" height="87" rx="43.5" fill="none"/>
      </g>
    </g>
    <g id="vitamina-d" transform="translate(770.051 5134)">
      <path id="XMLID_472_" d="M36.2,57.5l-6.316,4.511-3.5-6.929L18.7,56.143l.125-7.76-7.3-2.635,3.717-6.813L10,33.209,16.457,28.9l-1.978-7.5,7.719-.811,1.736-7.565,7.212,2.869L36.2,10l5.052,5.891,7.212-2.869L50.2,20.587l7.719.811-1.979,7.5,6.457,4.305-5.239,5.726,3.717,6.813-7.3,2.635.125,7.76-7.689-1.06-3.5,6.929Z" transform="translate(-8.841 -8.84)" fill="#ffd89e"/>
      <circle id="XMLID_1449_" cx="16.794" cy="16.794" r="16.794" transform="translate(10.562 10.604)" fill="#ffcb7c"/>
      <path id="XMLID_3070_" d="M305.091,156.4H285.533a1.354,1.354,0,0,0-1.354,1.354v4.533a1.354,1.354,0,0,0,1.354,1.354h19.558a1.354,1.354,0,0,0,1.354-1.354v-4.533A1.354,1.354,0,0,0,305.091,156.4Z" transform="translate(-251.223 -138.265)" fill="#ff6977"/>
      <path id="XMLID_3069_" d="M305.091,156.4H285.533a1.354,1.354,0,0,0-1.354,1.354v4.533a1.354,1.354,0,0,0,1.354,1.354h19.558a1.354,1.354,0,0,0,1.354-1.354v-4.533A1.354,1.354,0,0,0,305.091,156.4Z" transform="translate(-251.223 -138.265)" fill="#b3b0b5"/>
      <path id="XMLID_3068_" d="M282.38,219.786v-.944H262.821v.947a3.819,3.819,0,0,1-2.167,3.443,3.819,3.819,0,0,0-2.167,3.443v21.383a3.621,3.621,0,0,0,3.621,3.621h21a3.621,3.621,0,0,0,3.621-3.621V226.68a3.82,3.82,0,0,0-2.171-3.446l-.006,0A3.819,3.819,0,0,1,282.38,219.786Z" transform="translate(-228.511 -193.463)" fill="#fff"/>
      <circle id="XMLID_1681_" cx="9.278" cy="9.278" r="9.278" transform="translate(34.812 33.516)" fill="#ffcb7c"/>
      <path id="XMLID_1100_" d="M56.54,28.722a2.673,2.673,0,0,1-1.512-2.4v-.069a2.516,2.516,0,0,0,1.354-2.229V19.492a2.517,2.517,0,0,0-2.514-2.514H49.109L50.2,12.854a1.16,1.16,0,0,0-1-1.449L42.3,10.68l-1.55-6.757A1.16,1.16,0,0,0,39.192,3.1L32.75,5.667,28.237.4a1.16,1.16,0,0,0-1.761,0L21.963,5.667,15.522,3.1a1.16,1.16,0,0,0-1.559.818L12.412,10.68l-6.895.725a1.16,1.16,0,0,0-1,1.449l1.767,6.7L.516,23.4A1.16,1.16,0,0,0,.3,25.152l4.68,5.114-3.32,6.086A1.16,1.16,0,0,0,2.288,38l6.521,2.354L8.7,47.284a1.16,1.16,0,0,0,1.318,1.167l6.868-.946,3.123,6.19a1.16,1.16,0,0,0,1.71.421l5.641-4.03,1.46,1.043V54.6a4.786,4.786,0,0,0,4.78,4.78h21a4.786,4.786,0,0,0,4.78-4.78V33.217a5.006,5.006,0,0,0-2.836-4.495Zm-28.51,19a1.16,1.16,0,0,0-1.348,0l-5.215,3.725-2.887-5.722a1.16,1.16,0,0,0-1.194-.626l-6.349.875.1-6.408a1.16,1.16,0,0,0-.766-1.109L4.348,36.276,7.417,30.65a1.16,1.16,0,0,0-.162-1.338L2.928,24.583,8.26,21.028a1.16,1.16,0,0,0,.478-1.261L7.1,13.57l6.374-.67a1.16,1.16,0,0,0,1.009-.894L15.921,5.76l5.955,2.369a1.16,1.16,0,0,0,1.309-.323l4.172-4.865,4.172,4.865a1.159,1.159,0,0,0,1.309.323L38.793,5.76l1.433,6.247a1.16,1.16,0,0,0,1.009.894l6.374.67-.9,3.408H41.978A17.954,17.954,0,1,0,27.357,45.352c.487,0,.975-.02,1.46-.059v2.986ZM31.8,19.492v4.533a2.516,2.516,0,0,0,1.354,2.229v.072a2.674,2.674,0,0,1-1.509,2.4,5,5,0,0,0-2.824,4.489v9.749c-.485.045-.973.07-1.46.07A15.635,15.635,0,1,1,39.012,16.978h-4.7A2.516,2.516,0,0,0,31.8,19.492ZM57.057,54.6A2.464,2.464,0,0,1,54.6,57.058h-21A2.464,2.464,0,0,1,31.136,54.6V33.213a2.673,2.673,0,0,1,1.509-2.4,5,5,0,0,0,2.817-4.277h3.409a1.16,1.16,0,1,0,0-2.319H34.31a.2.2,0,0,1-.194-.194V19.492a.2.2,0,0,1,.194-.194H53.869a.194.194,0,0,1,.194.194v4.533a.194.194,0,0,1-.194.194H49.308a1.16,1.16,0,0,0,0,2.319h3.409a5.007,5.007,0,0,0,2.829,4.279,2.673,2.673,0,0,1,1.512,2.4V54.6Z"/>
      <path id="XMLID_1295_" d="M356.807,319h-1.468a1.16,1.16,0,0,0-1.16,1.16v9.278a1.16,1.16,0,0,0,1.16,1.16h1.468A4.8,4.8,0,0,0,361.6,325.8v-2.009A4.8,4.8,0,0,0,356.807,319Zm2.475,6.8a2.478,2.478,0,0,1-2.475,2.475H356.5v-6.958h.309a2.478,2.478,0,0,1,2.475,2.475Z" transform="translate(-313.105 -282.005)"/>
      <path id="XMLID_1300_" d="M300.616,279a10.437,10.437,0,1,0,10.437,10.437A10.449,10.449,0,0,0,300.616,279Zm0,18.555a8.118,8.118,0,1,1,8.118-8.118A8.127,8.127,0,0,1,300.616,297.555Z" transform="translate(-256.527 -246.644)"/>
      <path id="XMLID_1303_" d="M371.34,211.159a1.16,1.16,0,1,0-.82-.34A1.168,1.168,0,0,0,371.34,211.159Z" transform="translate(-327.25 -184.621)"/>
    </g>
  </g>
</svg>
