<svg xmlns="http://www.w3.org/2000/svg" xmlns:xlink="http://www.w3.org/1999/xlink" width="90" height="90" viewBox="0 0 90 90">
  <defs>
    <clipPath id="clip-path">
      <rect id="Rect치ngulo_404467" data-name="Rect치ngulo 404467" width="40.443" height="39.364" fill="none"/>
    </clipPath>
    <clipPath id="clip-path-2">
      <rect id="Rect치ngulo_404467-2" data-name="Rect치ngulo 404467" width="26.271" height="25.569" fill="none"/>
    </clipPath>
  </defs>
  <g id="Grupo_1111115" data-name="Grupo 1111115" transform="translate(-598.051 -5048)">
    <g id="Grupo_1111111" data-name="Grupo 1111111">
      <path id="Trazado_895728" data-name="Trazado 895728" d="M45,0A45,45,0,1,1,0,45,45,45,0,0,1,45,0Z" transform="translate(598.051 5048)" fill="#374f37"/>
      <g id="cesped" transform="translate(616.051 5023.605)">
        <path id="Trazado_897748" data-name="Trazado 897748" d="M268.93,55.182c-7.355,6.573-11.981,16.526-14.587,25.184a95.755,95.755,0,0,1,3.565,17.656h4.835c0-21.325,4.923-35.419,7.73-41.721A.974.974,0,0,0,268.93,55.182Z" transform="translate(-227.088 -6.724)" fill="#8dce55"/>
        <path id="Trazado_897749" data-name="Trazado 897749" d="M255.475,260.023c-.413,1.169-.79,2.327-1.132,3.462a95.755,95.755,0,0,1,3.565,17.656h2.253A96.294,96.294,0,0,0,255.475,260.023Z" transform="translate(-227.088 -189.844)" fill="#6dc82a"/>
        <path id="Trazado_897750" data-name="Trazado 897750" d="M330.142,190.232s1.786-21.521,13.331-31.839a.724.724,0,0,1,1.146.832c-2.086,4.684-5.745,15.158-5.745,31.008Z" transform="translate(-294.765 -98.934)" fill="#8dce55"/>
        <path id="Trazado_897751" data-name="Trazado 897751" d="M344.619,159.224a.724.724,0,0,0-1.146-.832c-11.546,10.318-13.331,31.839-13.331,31.839h2.518s1.6-19.287,11.566-30.1Q344.43,159.648,344.619,159.224Z" transform="translate(-294.765 -98.934)" fill="#6dc82a"/>
        <path id="Trazado_897752" data-name="Trazado 897752" d="M414.722,279.892s1.186-14.291,8.852-21.142a.481.481,0,0,1,.761.552c-1.385,3.111-3.815,10.066-3.815,20.59h-5.8Z" transform="translate(-370.282 -188.594)" fill="#8dce55"/>
        <path id="Trazado_897753" data-name="Trazado 897753" d="M424.335,259.3a.481.481,0,0,0-.761-.552c-7.667,6.851-8.852,21.142-8.852,21.142h2.143s.967-11.647,6.8-18.953C423.9,260.311,424.129,259.764,424.335,259.3Z" transform="translate(-370.281 -188.595)" fill="#6dc82a"/>
        <path id="Trazado_897754" data-name="Trazado 897754" d="M126.55,98.021s-2.4-28.957-17.937-42.84A.974.974,0,0,0,107.07,56.3c2.807,6.3,7.73,20.4,7.73,41.721h11.75Z" transform="translate(-95.516 -6.724)" fill="#8dce55"/>
        <path id="Trazado_897755" data-name="Trazado 897755" d="M109.264,55.78q-.322-.3-.652-.6A.974.974,0,0,0,107.07,56.3c2.807,6.3,7.73,20.4,7.73,41.721h2.277c0-21.325-4.923-35.419-7.73-41.721A.975.975,0,0,1,109.264,55.78Z" transform="translate(-95.516 -6.724)" fill="#6dc82a"/>
        <path id="Trazado_897756" data-name="Trazado 897756" d="M61.359,190.232s-1.786-21.521-13.331-31.839a.724.724,0,0,0-1.146.832c2.086,4.684,5.745,15.158,5.745,31.008Z" transform="translate(-41.797 -98.934)" fill="#8dce55"/>
        <path id="Trazado_897757" data-name="Trazado 897757" d="M48.027,158.393a.724.724,0,0,0-1.146.832c2.086,4.684,5.745,15.158,5.745,31.008h2.25c0-15.419-3.462-25.749-5.571-30.612Q48.687,158.984,48.027,158.393Z" transform="translate(-41.797 -98.934)" fill="#6dc82a"/>
        <path id="Trazado_897758" data-name="Trazado 897758" d="M17.493,279.892S16.307,265.6,8.641,258.75a.481.481,0,0,0-.761.552c1.385,3.111,3.815,10.066,3.815,20.59h5.8Z" transform="translate(-6.995 -188.594)" fill="#8dce55"/>
        <path id="Trazado_897759" data-name="Trazado 897759" d="M8.642,258.75a.481.481,0,0,0-.761.552c1.385,3.111,3.815,10.066,3.815,20.59h2.17a53.45,53.45,0,0,0-3.116-18.887A17.962,17.962,0,0,0,8.642,258.75Z" transform="translate(-6.996 -188.594)" fill="#6dc82a"/>
        <path id="Trazado_897760" data-name="Trazado 897760" d="M54.336,69.476a1.277,1.277,0,0,0-1.615.08c-3.261,2.914-5.779,7.4-7.485,13.336a70.113,70.113,0,0,1,5.317-22.275,1.528,1.528,0,0,0-2.416-1.758A32.991,32.991,0,0,0,41,68.418a56.711,56.711,0,0,0-3.969,10.157A108.322,108.322,0,0,1,39.91,62.11a.8.8,0,0,0-1.556-.4c-3.572,13.809-3.262,24.484-3.741,28.786H31.724a100.05,100.05,0,0,0-3.452-16.851C31.6,62.7,36.329,54.429,42.341,49.057a.153.153,0,0,1,.219-.011.146.146,0,0,1,.054.2,75.364,75.364,0,0,0-3.2,8.675.8.8,0,0,0,1.538.468A73.757,73.757,0,0,1,44.081,49.9a1.778,1.778,0,0,0-2.812-2.045,43.476,43.476,0,0,0-9.14,12.031,71.4,71.4,0,0,0-4.7,11.092,72.4,72.4,0,0,0-4.3-10.342,44.112,44.112,0,0,0-9.535-12.781A1.778,1.778,0,0,0,10.783,49.9c2.239,5.026,5.664,14.643,7.048,28.675a56.7,56.7,0,0,0-3.97-10.16A32.993,32.993,0,0,0,6.728,58.86a1.528,1.528,0,0,0-2.416,1.758A70.112,70.112,0,0,1,9.629,82.892C7.923,76.957,5.405,72.471,2.144,69.556a1.277,1.277,0,0,0-1.615-.08,1.274,1.274,0,0,0-.416,1.559c1.362,3.058,3.622,9.6,3.74,19.459H2.359a.8.8,0,0,0,0,1.608H52.594a.8.8,0,0,0,0-1.608H51.011c.019-1.536.091-3.063.215-4.549a.8.8,0,1,0-1.6-.135c-.129,1.531-.2,3.1-.222,4.684H45.3c.377-2.963,1.994-12.789,7.363-18.626a47.407,47.407,0,0,0-2.6,10.14.8.8,0,1,0,1.59.237,43.438,43.438,0,0,1,3.095-11.21A1.274,1.274,0,0,0,54.336,69.476ZM12.305,49.046a.154.154,0,0,1,.218.011c10.448,9.337,16.021,27.5,17.583,41.437H20.251c-.047-.423-.119-1.017-.224-1.751-.368-19.927-4.98-33.218-7.775-39.494A.146.146,0,0,1,12.305,49.046ZM5.461,90.494A53.371,53.371,0,0,0,2.2,71.868C7.563,77.7,9.184,87.53,9.562,90.494Zm.472-30.186c5.64,5.205,8.805,13.25,10.473,19.128A74.379,74.379,0,0,1,18.422,88.9q.014.789.019,1.593H11.593C11.475,75.4,8.081,65.242,5.933,60.308ZM36.424,90.494q0-.8.019-1.592c1.42-9.806,5.205-21.871,12.489-28.593C46.784,65.24,43.389,75.4,43.272,90.494H36.424Z"/>
      </g>
    </g>
    <g id="Grupo_1111113" data-name="Grupo 1111113" transform="translate(630.37 5059.678)">
      <g id="Grupo_1111112" data-name="Grupo 1111112" clip-path="url(#clip-path)">
        <path id="Trazado_897761" data-name="Trazado 897761" d="M33.064,38.359c-7.831-3.7-2.267-12.216,2.442-15.195,4.353-2.787,11.786-4.59,15.383,1.23,3.146,5.09,2.963,9.278,9,13.216,4.622,3.014,2.7,10.146-1.251,13.6-4.248,3.618-10.113,4.108-13.632-.892C40.749,44.431,43.081,43.091,33.064,38.359Z" transform="translate(-25.153 -17.731)" fill="#b3a4ee" fill-rule="evenodd"/>
        <path id="Trazado_897762" data-name="Trazado 897762" d="M67.712,94.148A1.586,1.586,0,1,0,69.3,95.735a1.589,1.589,0,0,0-1.587-1.587" transform="translate(-57.058 -81.238)"/>
        <path id="Trazado_897763" data-name="Trazado 897763" d="M29.921,36.054a12.526,12.526,0,0,0,3-1.627l1.236,1.629a.96.96,0,0,0,1.529-1.16l-1.306-1.722a12.608,12.608,0,0,0,2.033-2.758l1.963.732a.959.959,0,1,0,.671-1.8l-1.84-.687a10.575,10.575,0,0,0,.672-4.174l1.634-.043a.959.959,0,1,0-.05-1.918l-1.93.049a6.447,6.447,0,0,0-2.455-3.35l1.625-.813A.96.96,0,1,0,35.84,16.7l-2.519,1.26A13.109,13.109,0,0,1,31.21,15.8l2.205-1.342a.96.96,0,0,0-1-1.64l-2.265,1.378A27.051,27.051,0,0,1,28.94,11.7l1.922-1.75a.96.96,0,1,0-1.293-1.419L28.125,9.848A28.218,28.218,0,0,0,26.4,6.55c-.023-.037-.048-.073-.072-.11l1.511-1.659a.96.96,0,0,0-1.419-1.293l-1.3,1.423a8.132,8.132,0,0,0-2.672-1.821l.422-1.8A.96.96,0,1,0,21,.853l-.4,1.687a11.723,11.723,0,0,0-4.093.016L15.92.671a.96.96,0,0,0-1.83.579L14.643,3a18.274,18.274,0,0,0-3.674,1.565L9.832,2.809A.96.96,0,1,0,8.221,3.853L9.355,5.6A16.38,16.38,0,0,0,6.306,8.591L4.183,7.329A.96.96,0,0,0,3.2,8.98l2.006,1.191a11.921,11.921,0,0,0-1.443,3.4l-2.691-.321a.96.96,0,0,0-.226,1.907l2.7.321c0,.093,0,.186.009.278a6.028,6.028,0,0,0,1.515,3.668l-1.662,1.32a.96.96,0,1,0,1.194,1.5L6.545,20.7a10.132,10.132,0,0,0,1.344.76c1.149.543,2.122,1.035,2.952,1.492L9.223,24.916A.96.96,0,1,0,10.7,26.138l1.809-2.191a9.524,9.524,0,0,1,3.458,3.476l-2.036,1.3a.96.96,0,0,0,1.035,1.617l1.906-1.222a28.716,28.716,0,0,0,1.8,3.032l-1.486,1.891A.959.959,0,1,0,18.7,35.229l1.177-1.5a8.971,8.971,0,0,0,3.1,2.288L22.6,38.24a.96.96,0,0,0,1.891.329l.344-1.984c.15.028.3.051.453.07a8.845,8.845,0,0,0,1.1.069,9.576,9.576,0,0,0,1.678-.155l.812,2.055a.959.959,0,0,0,.893.609.94.94,0,0,0,.352-.069.959.959,0,0,0,.54-1.245Zm-4.394-1.3a7,7,0,0,1-4.866-3.117,27.831,27.831,0,0,1-2.329-3.874c-1.491-2.878-2.391-4.616-9.622-8.032-2.04-.964-3.13-2.339-3.237-4.089-.2-3.184,2.811-7.133,5.713-8.968a14.667,14.667,0,0,1,7.468-2.388,8.538,8.538,0,0,1,1.89.2,6.543,6.543,0,0,1,4.223,3.074,32.565,32.565,0,0,1,2.158,4.326c1.348,3.1,2.622,6.022,6.864,8.789a4.724,4.724,0,0,1,2.164,3.834,10.252,10.252,0,0,1-3.474,7.822,9.211,9.211,0,0,1-6.952,2.42" transform="translate(0 0)"/>
        <path id="Trazado_897764" data-name="Trazado 897764" d="M152.336,125.139a3.64,3.64,0,1,0,3.64,3.64,3.644,3.644,0,0,0-3.64-3.64m0,5.361a1.721,1.721,0,1,1,1.72-1.721,1.723,1.723,0,0,1-1.72,1.721" transform="translate(-128.307 -107.98)"/>
        <path id="Trazado_897765" data-name="Trazado 897765" d="M171.7,203.309a1.371,1.371,0,1,0,1.371,1.371,1.373,1.373,0,0,0-1.371-1.371" transform="translate(-146.976 -175.431)"/>
        <path id="Trazado_897766" data-name="Trazado 897766" d="M111,58.7a4.9,4.9,0,1,0-4.9,4.9,4.907,4.907,0,0,0,4.9-4.9m-4.9,2.981a2.982,2.982,0,1,1,2.982-2.981,2.985,2.985,0,0,1-2.982,2.981" transform="translate(-87.32 -46.421)"/>
        <path id="Trazado_897767" data-name="Trazado 897767" d="M215.572,168.139a1.234,1.234,0,1,0,1.234,1.234,1.236,1.236,0,0,0-1.234-1.234" transform="translate(-184.948 -145.084)"/>
        <path id="Trazado_897768" data-name="Trazado 897768" d="M112.147,60.8a3.942,3.942,0,1,1-3.942,3.942,3.942,3.942,0,0,1,3.942-3.942" transform="translate(-93.368 -52.461)" fill="#9579da" fill-rule="evenodd"/>
        <path id="Trazado_897769" data-name="Trazado 897769" d="M158.384,137.5a2.68,2.68,0,1,0-2.68-2.68,2.685,2.685,0,0,0,2.68,2.68" transform="translate(-134.354 -114.022)" fill="#9579da" fill-rule="evenodd"/>
      </g>
    </g>
    <g id="Grupo_1111114" data-name="Grupo 1111114" transform="translate(616.28 5095.473)">
      <g id="Grupo_1111112-2" data-name="Grupo 1111112" clip-path="url(#clip-path-2)">
        <path id="Trazado_897761-2" data-name="Trazado 897761" d="M31.693,32.117c-5.087-2.4-1.473-7.935,1.586-9.87,2.828-1.81,7.655-2.981,9.992.8,2.043,3.306,1.925,6.027,5.848,8.585,3,1.958,1.756,6.591-.812,8.836-2.759,2.35-6.569,2.668-8.855-.579C36.684,36.062,38.2,35.191,31.693,32.117Z" transform="translate(-26.553 -18.718)" fill="#b3a4ee" fill-rule="evenodd"/>
        <path id="Trazado_897762-2" data-name="Trazado 897762" d="M67.156,94.148a1.031,1.031,0,1,0,1.031,1.031,1.032,1.032,0,0,0-1.031-1.031" transform="translate(-60.235 -85.762)"/>
        <path id="Trazado_897763-2" data-name="Trazado 897763" d="M19.436,23.42a8.136,8.136,0,0,0,1.946-1.057l.8,1.058a.623.623,0,0,0,.993-.754l-.848-1.119a8.19,8.19,0,0,0,1.32-1.791l1.275.476a.623.623,0,1,0,.436-1.168l-1.195-.446a6.869,6.869,0,0,0,.437-2.711l1.062-.028a.623.623,0,1,0-.032-1.246l-1.254.032a4.187,4.187,0,0,0-1.595-2.176l1.056-.528a.623.623,0,1,0-.558-1.115l-1.636.819a8.515,8.515,0,0,1-1.371-1.405l1.433-.872a.623.623,0,0,0-.648-1.065l-1.471.9A17.572,17.572,0,0,1,18.8,7.6l1.248-1.137a.623.623,0,1,0-.84-.922l-.938.854a18.33,18.33,0,0,0-1.12-2.142c-.015-.024-.031-.047-.046-.071l.981-1.078a.624.624,0,0,0-.922-.84l-.842.925a5.282,5.282,0,0,0-1.735-1.183L14.858.838A.623.623,0,1,0,13.644.554l-.257,1.1a7.615,7.615,0,0,0-2.659.011L10.341.436A.623.623,0,0,0,9.152.812l.359,1.136A11.87,11.87,0,0,0,7.125,2.964L6.387,1.825A.623.623,0,1,0,5.34,2.5l.737,1.137A10.64,10.64,0,0,0,4.1,5.58l-1.379-.82A.624.624,0,0,0,2.08,5.833l1.3.774a7.744,7.744,0,0,0-.938,2.207L.7,8.606A.624.624,0,0,0,.551,9.845l1.754.208c0,.061,0,.121.006.181a3.916,3.916,0,0,0,.984,2.383l-1.079.858a.623.623,0,1,0,.776.976l1.261-1a6.582,6.582,0,0,0,.873.493c.747.353,1.379.673,1.918.969L5.991,16.184a.624.624,0,1,0,.962.794l1.175-1.423a6.187,6.187,0,0,1,2.246,2.258l-1.322.847a.624.624,0,0,0,.673,1.05l1.238-.794a18.653,18.653,0,0,0,1.171,1.969l-.965,1.228a.623.623,0,1,0,.98.77l.765-.973A5.827,5.827,0,0,0,14.929,23.4l-.25,1.442a.623.623,0,0,0,1.229.214l.224-1.289c.1.018.2.033.294.046a5.745,5.745,0,0,0,.712.045,6.22,6.22,0,0,0,1.09-.1l.527,1.335a.623.623,0,0,0,.58.4.611.611,0,0,0,.229-.045.623.623,0,0,0,.351-.809Zm-2.854-.847a4.545,4.545,0,0,1-3.161-2.025,18.078,18.078,0,0,1-1.513-2.516c-.968-1.87-1.553-3-6.25-5.218a3.166,3.166,0,0,1-2.1-2.656C3.428,8.09,5.381,5.525,7.266,4.333a9.527,9.527,0,0,1,4.851-1.551,5.546,5.546,0,0,1,1.228.132,4.25,4.25,0,0,1,2.743,2,21.153,21.153,0,0,1,1.4,2.81,11.034,11.034,0,0,0,4.459,5.709,3.069,3.069,0,0,1,1.405,2.49A6.659,6.659,0,0,1,21.1,21a5.983,5.983,0,0,1-4.516,1.572" transform="translate(0 0)"/>
        <path id="Trazado_897764-2" data-name="Trazado 897764" d="M151.06,125.139a2.365,2.365,0,1,0,2.365,2.365,2.367,2.367,0,0,0-2.365-2.365m0,3.482a1.118,1.118,0,1,1,1.118-1.118,1.119,1.119,0,0,1-1.118,1.118" transform="translate(-135.452 -113.993)"/>
        <path id="Trazado_897765-2" data-name="Trazado 897765" d="M171.223,203.309a.891.891,0,1,0,.891.891.892.892,0,0,0-.891-.891" transform="translate(-155.161 -185.201)"/>
        <path id="Trazado_897766-2" data-name="Trazado 897766" d="M107.564,56.982a3.184,3.184,0,1,0-3.184,3.183,3.187,3.187,0,0,0,3.184-3.183m-3.184,1.936a1.937,1.937,0,1,1,1.937-1.936,1.939,1.939,0,0,1-1.937,1.936" transform="translate(-92.183 -49.006)"/>
        <path id="Trazado_897767-2" data-name="Trazado 897767" d="M215.14,168.139a.8.8,0,1,0,.8.8.8.8,0,0,0-.8-.8" transform="translate(-195.247 -153.163)"/>
        <path id="Trazado_897768-2" data-name="Trazado 897768" d="M110.765,60.8a2.56,2.56,0,1,1-2.56,2.56,2.56,2.56,0,0,1,2.56-2.56" transform="translate(-98.567 -55.382)" fill="#9579da" fill-rule="evenodd"/>
        <path id="Trazado_897769-2" data-name="Trazado 897769" d="M157.445,135.623a1.741,1.741,0,1,0-1.741-1.741,1.744,1.744,0,0,0,1.741,1.741" transform="translate(-141.836 -120.371)" fill="#9579da" fill-rule="evenodd"/>
      </g>
    </g>
  </g>
</svg>
