<svg xmlns="http://www.w3.org/2000/svg" width="90" height="90" viewBox="0 0 90 90">
  <g id="Grupo_1111120" data-name="Grupo 1111120" transform="translate(-860.051 -5486)">
    <path id="Trazado_895728" data-name="Trazado 895728" d="M45,0A45,45,0,1,1,0,45,45,45,0,0,1,45,0Z" transform="translate(860.051 5486)" fill="#ff7c32"/>
    <g id="nube_2_" data-name="nube (2)" transform="translate(875.06 5502)">
      <g id="Icons">
        <path id="Trazado_897779" data-name="Trazado 897779" d="M59,33a8.985,8.985,0,0,1-11.94,8.5,6.982,6.982,0,0,1-3.26,2.91A6,6,0,0,0,33,48a5.908,5.908,0,0,0,1.65,4.12A8,8,0,0,1,24.1,49.04,9.991,9.991,0,0,1,7.25,39.8,8,8,0,0,1,8.1,24.05,6.028,6.028,0,0,1,8,23a5.931,5.931,0,0,1,1.54-4,4,4,0,1,0,4.94-5.71,7.978,7.978,0,0,1,12.84-3.25,9.993,9.993,0,0,1,17.64.53,4,4,0,1,0,5.46,5.5A5.989,5.989,0,0,1,53,21a5.876,5.876,0,0,1-.96,3.24A9,9,0,0,1,59,33Z" fill="#9e9e9e"/>
        <path id="Trazado_897780" data-name="Trazado 897780" d="M41.96,10.57A3.995,3.995,0,0,0,45.5,17.7a3.987,3.987,0,0,1-.545-7.135A9.932,9.932,0,0,0,34.51,5.118,9.994,9.994,0,0,1,41.96,10.57Z" fill="#707070"/>
        <path id="Trazado_897781" data-name="Trazado 897781" d="M52.04,24.24A5.876,5.876,0,0,0,53,21a5.989,5.989,0,0,0-2.58-4.93,3.994,3.994,0,0,1-1.534,1.452A5.972,5.972,0,0,1,50,21a5.876,5.876,0,0,1-.96,3.24,8.991,8.991,0,0,1-.56,17.628A8.858,8.858,0,0,0,50,42a9,9,0,0,0,2.04-17.76Z" fill="#707070"/>
        <circle id="Elipse_11656" data-name="Elipse 11656" cx="4" cy="4" r="4" transform="translate(37 23)" fill="#a4c400"/>
        <path id="Trazado_897782" data-name="Trazado 897782" d="M41,23a3.984,3.984,0,0,0-1.5.3,3.992,3.992,0,0,1,0,7.406A4,4,0,1,0,41,23Z" fill="#90ac00"/>
        <circle id="Elipse_11657" data-name="Elipse 11657" cx="3" cy="3" r="3" transform="translate(22 19)" fill="#60a917"/>
        <circle id="Elipse_11658" data-name="Elipse 11658" cx="4" cy="4" r="4" transform="translate(15 34)" fill="#a4c400"/>
        <path id="Trazado_897783" data-name="Trazado 897783" d="M19,34a3.984,3.984,0,0,0-1.5.3,3.992,3.992,0,0,1,0,7.406A4,4,0,1,0,19,34Z" fill="#90ac00"/>
        <circle id="Elipse_11659" data-name="Elipse 11659" cx="2" cy="2" r="2" transform="translate(31 36)" fill="#008a00"/>
        <path id="Trazado_897784" data-name="Trazado 897784" d="M45,48a5.992,5.992,0,0,1-10.35,4.12A5.908,5.908,0,0,1,33,48a6,6,0,0,1,10.8-3.59A5.9,5.9,0,0,1,45,48Z" fill="#a4c400"/>
        <path id="Trazado_897785" data-name="Trazado 897785" d="M43.8,44.41a5.944,5.944,0,0,0-6.293-2.21A5.985,5.985,0,0,1,40.8,44.41,5.9,5.9,0,0,1,42,48a6,6,0,0,1-4.5,5.8,5.988,5.988,0,0,0,6.3-9.39Z" fill="#90ac00"/>
        <path id="Trazado_897786" data-name="Trazado 897786" d="M17,17a4,4,0,1,1-4-4,3.866,3.866,0,0,1,1.48.29A3.994,3.994,0,0,1,17,17Z" fill="#a4c400"/>
        <path id="Trazado_897787" data-name="Trazado 897787" d="M14.48,13.29A3.866,3.866,0,0,0,13,13a3.982,3.982,0,0,0-1.5.3,3.991,3.991,0,0,1,0,7.407,4,4,0,1,0,2.98-7.417Z" fill="#90ac00"/>
        <path id="Trazado_897788" data-name="Trazado 897788" d="M51,14a4,4,0,1,1-4-4A4.006,4.006,0,0,1,51,14Z" fill="#a4c400"/>
        <path id="Trazado_897789" data-name="Trazado 897789" d="M47,10a3.916,3.916,0,0,0-1.49.3,4,4,0,0,1,0,7.4A4,4,0,1,0,47,10Z" fill="#90ac00"/>
        <circle id="Elipse_11660" data-name="Elipse 11660" cx="2" cy="2" r="2" transform="translate(50 33)" fill="#008a00"/>
        <circle id="Elipse_11661" data-name="Elipse 11661" cx="2" cy="2" r="2" transform="translate(33 12)" fill="#008a00"/>
        <circle id="Elipse_11662" data-name="Elipse 11662" cx="2" cy="2" r="2" transform="translate(7 28)" fill="#008a00"/>
      </g>
      <g id="Icons_copy" data-name="Icons copy">
        <path id="Trazado_897790" data-name="Trazado 897790" d="M53.485,23.631A6.922,6.922,0,0,0,54,21a7,7,0,0,0-2.341-5.225A4.947,4.947,0,0,0,52,14a5.006,5.006,0,0,0-5-5,4.955,4.955,0,0,0-1.629.295A10.9,10.9,0,0,0,36,4a11.042,11.042,0,0,0-8.925,4.579,8.949,8.949,0,0,0-13.152,3.514,4.979,4.979,0,0,0-5.556,6.765A6.944,6.944,0,0,0,7,23q0,.109,0,.222a9,9,0,0,0-.9,17.3A10.792,10.792,0,0,0,6,42,11.013,11.013,0,0,0,17,53a10.893,10.893,0,0,0,6.922-2.45A9.037,9.037,0,0,0,31,54a8.908,8.908,0,0,0,3.444-.7,6.989,6.989,0,0,0,10.769-8.51,8.081,8.081,0,0,0,2.274-2.115A9.9,9.9,0,0,0,50,43a10,10,0,0,0,3.485-19.369ZM50,14a3,3,0,1,1-3-3,3,3,0,0,1,3,3ZM13,14a3,3,0,1,1-3,3,3,3,0,0,1,3-3ZM39,53a5,5,0,1,1,5-5,5,5,0,0,1-5,5ZM50,41a7.917,7.917,0,0,1-2.612-.445A1,1,0,0,0,46.2,41a6.052,6.052,0,0,1-2.156,2.156,6.989,6.989,0,0,0-10.982,8.527A6.951,6.951,0,0,1,31,52a7.031,7.031,0,0,1-6.038-3.466,1,1,0,0,0-1.573-.2A8.99,8.99,0,0,1,8.226,40.02a1,1,0,0,0-.758-1.2,7,7,0,0,1,.744-13.781,1,1,0,0,0,.873-1.166,4.759,4.759,0,0,1,.524-3.225,4.99,4.99,0,1,0,6.164-7.808,6.962,6.962,0,0,1,10.881-2.058,1,1,0,0,0,1.534-.248A9.04,9.04,0,0,1,36,6a8.919,8.919,0,0,1,7.654,4.311,4.987,4.987,0,1,0,6.907,7.19A5,5,0,0,1,52,21a4.885,4.885,0,0,1-.8,2.691,1,1,0,0,0,.609,1.523A8,8,0,0,1,50,41Z"/>
        <path id="Trazado_897791" data-name="Trazado 897791" d="M47,26H45.9a4.961,4.961,0,0,0-.732-1.753l.782-.783a1,1,0,1,0-1.414-1.414l-.782.783A4.969,4.969,0,0,0,42,22.1V21a1,1,0,0,0-2,0v1.1a4.969,4.969,0,0,0-1.753.732l-.782-.783a1,1,0,1,0-1.414,1.414l.782.783A4.961,4.961,0,0,0,36.1,26H35a1,1,0,0,0,0,2h1.1a4.961,4.961,0,0,0,.732,1.753l-.782.783a1,1,0,1,0,1.414,1.414l.782-.783A4.969,4.969,0,0,0,40,31.9V33a1,1,0,0,0,2,0V31.9a4.969,4.969,0,0,0,1.753-.732l.782.783a1,1,0,1,0,1.414-1.414l-.782-.783A4.961,4.961,0,0,0,45.9,28H47a1,1,0,0,0,0-2Zm-6,4a3,3,0,1,1,3-3A3,3,0,0,1,41,30Z"/>
        <path id="Trazado_897792" data-name="Trazado 897792" d="M28.433,24.019A3.915,3.915,0,0,0,28.858,23H30a1,1,0,0,0,0-2H28.858a3.915,3.915,0,0,0-.425-1.019l.809-.81a1,1,0,1,0-1.414-1.414l-.809.81A3.915,3.915,0,0,0,26,18.142V17a1,1,0,0,0-2,0v1.142a3.915,3.915,0,0,0-1.019.425l-.809-.81a1,1,0,1,0-1.414,1.414l.809.81A3.915,3.915,0,0,0,21.142,21H20a1,1,0,0,0,0,2h1.142a3.915,3.915,0,0,0,.425,1.019l-.809.81a1,1,0,1,0,1.414,1.414l.809-.81A3.915,3.915,0,0,0,24,25.858V27a1,1,0,0,0,2,0V25.858a3.915,3.915,0,0,0,1.019-.425l.809.81a1,1,0,1,0,1.414-1.414ZM25,24a2,2,0,1,1,2-2A2,2,0,0,1,25,24Z"/>
        <path id="Trazado_897793" data-name="Trazado 897793" d="M25,37H23.9a4.961,4.961,0,0,0-.732-1.753l.782-.783a1,1,0,1,0-1.414-1.414l-.782.783A4.969,4.969,0,0,0,20,33.1V32a1,1,0,0,0-2,0v1.1a4.969,4.969,0,0,0-1.753.732l-.782-.783a1,1,0,1,0-1.414,1.414l.782.783A4.961,4.961,0,0,0,14.1,37H13a1,1,0,0,0,0,2h1.1a4.961,4.961,0,0,0,.732,1.753l-.782.783a1,1,0,1,0,1.414,1.414l.782-.783A4.969,4.969,0,0,0,18,42.9V44a1,1,0,0,0,2,0V42.9a4.969,4.969,0,0,0,1.753-.732l.782.783a1,1,0,1,0,1.414-1.414l-.782-.783A4.961,4.961,0,0,0,23.9,39H25a1,1,0,0,0,0-2Zm-6,4a3,3,0,1,1,3-3A3,3,0,0,1,19,41Z"/>
        <path id="Trazado_897794" data-name="Trazado 897794" d="M33,35a3,3,0,1,0,3,3A3,3,0,0,0,33,35Zm0,4a1,1,0,1,1,1-1A1,1,0,0,1,33,39Z"/>
        <path id="Trazado_897795" data-name="Trazado 897795" d="M52,32a3,3,0,1,0,3,3A3,3,0,0,0,52,32Zm0,4a1,1,0,1,1,1-1A1,1,0,0,1,52,36Z"/>
        <path id="Trazado_897796" data-name="Trazado 897796" d="M35,17a3,3,0,1,0-3-3A3,3,0,0,0,35,17Zm0-4a1,1,0,1,1-1,1A1,1,0,0,1,35,13Z"/>
        <path id="Trazado_897797" data-name="Trazado 897797" d="M9,27a3,3,0,1,0,3,3A3,3,0,0,0,9,27Zm0,4a1,1,0,1,1,1-1A1,1,0,0,1,9,31Z"/>
      </g>
    </g>
  </g>
</svg>
