<svg xmlns="http://www.w3.org/2000/svg" xmlns:xlink="http://www.w3.org/1999/xlink" width="90" height="90" viewBox="0 0 90 90">
  <defs>
    <clipPath id="clip-path">
      <rect id="Rectángulo_404468" data-name="Rectángulo 404468" width="64.567" height="60.997" fill="none"/>
    </clipPath>
  </defs>
  <g id="Grupo_1111123" data-name="Grupo 1111123" transform="translate(-1228.051 -5486)">
    <g id="Grupo_1111126" data-name="Grupo 1111126">
      <path id="Trazado_895728" data-name="Trazado 895728" d="M45,0A45,45,0,1,1,0,45,45,45,0,0,1,45,0Z" transform="translate(1228.051 5486)" fill="#ff7c32"/>
      <g id="Grupo_1111125" data-name="Grupo 1111125" transform="translate(1229.051 5531.034) rotate(-43)">
        <g id="Grupo_1111124" data-name="Grupo 1111124" clip-path="url(#clip-path)">
          <path id="Trazado_897798" data-name="Trazado 897798" d="M60.64,53.06a5.921,5.921,0,0,0,.069-4.647,12.366,12.366,0,0,0-3.545-4.586c-1.671-1.481-3.652-3.1-3.7-5.332a4.576,4.576,0,0,1,1.776-3.522,8.765,8.765,0,0,1,3.7-1.638c.7-.156,1.511-.343,1.812-.992a2.01,2.01,0,0,0,.087-1.09,11.776,11.776,0,0,0-10.02-9.964,5.184,5.184,0,0,0-3.1.424c-2.027,1.113-2.425,3.981-4.281,5.359-1.989,1.477-4.839.7-7-.515s-4.221-2.871-6.69-3.069c-2.6-.208-4.9,1.221-6.93,2.975C18.025,31.8,16.913,32,17.251,36.544a13.593,13.593,0,0,0,5.141,9.126c1.208,1.006,2.588,1.912,3.31,3.308.842,1.628.615,3.571.648,5.4A17.952,17.952,0,0,0,28.1,61.789a6.053,6.053,0,0,0,2.859,3.186,6.56,6.56,0,0,0,3.133.255,35.5,35.5,0,0,0,5.039-.854,3.076,3.076,0,0,0,1.622-.778,3.216,3.216,0,0,0,.616-1.636q.315-1.788.631-3.574c.26-1.47.636-3.117,1.913-3.889a3.941,3.941,0,0,1,1.764-.487c2.5-.182,4.914.856,7.366,1.4s5.381.447,7.01-1.464a4.272,4.272,0,0,0,.582-.889" transform="translate(-7.755 -9.575)" fill="#1d8500"/>
          <path id="Trazado_897799" data-name="Trazado 897799" d="M31.957,65.5a5.992,5.992,0,0,1-2.316-.408,5.514,5.514,0,0,1-2.125-1.622,10.07,10.07,0,0,1-1.306-2.105A19.116,19.116,0,0,1,24.349,53.5c-.007-.374,0-.75,0-1.115a8.193,8.193,0,0,0-.526-3.8,8.171,8.171,0,0,0-2.316-2.386c-.237-.189-.482-.384-.722-.583a16.933,16.933,0,0,1-3.748-4.371,12.74,12.74,0,0,1-1.784-5.517,8.6,8.6,0,0,1,.6-4.657,17.793,17.793,0,0,1,3.139-3.945c.613-.657,1.307-1.4,2.109-2.295l.047-.052.053-.046a16.4,16.4,0,0,1,3.249-2.26,8.588,8.588,0,0,1,3.9-1c.2,0,.4.008.591.024a13.051,13.051,0,0,1,5.743,2.369c.482.3.937.577,1.4.839A8.163,8.163,0,0,0,39.91,25.88a3.22,3.22,0,0,0,1.966-.592,7.019,7.019,0,0,0,1.662-2.237,7.577,7.577,0,0,1,2.745-3.2,5.507,5.507,0,0,1,2.678-.619,9.339,9.339,0,0,1,1.077.066A12.873,12.873,0,0,1,61.021,30.217a3.033,3.033,0,0,1-.181,1.686,3.325,3.325,0,0,1-2.568,1.6,7.636,7.636,0,0,0-3.242,1.415,3.507,3.507,0,0,0-1.375,2.648c.038,1.63,1.571,2.982,3.055,4.29l.279.246a13.5,13.5,0,0,1,3.841,5.011,7.013,7.013,0,0,1-.107,5.528,5.383,5.383,0,0,1-.733,1.118A6.758,6.758,0,0,1,54.638,55.9h0a12.613,12.613,0,0,1-2.733-.314c-.736-.164-1.465-.369-2.17-.568a16.415,16.415,0,0,0-4.366-.829c-.173,0-.345.006-.511.018a2.87,2.87,0,0,0-1.276.332c-.872.527-1.18,1.9-1.4,3.141l-.289,1.637L41.55,61.25a4.186,4.186,0,0,1-.88,2.179,4.043,4.043,0,0,1-2.178,1.112,36.7,36.7,0,0,1-5.194.88C32.933,65.456,32.45,65.5,31.957,65.5Zm-9.271-39.15c-.8.886-1.483,1.622-2.09,2.273-2.945,3.157-3.4,3.643-3.153,6.941a10.566,10.566,0,0,0,1.489,4.569,14.715,14.715,0,0,0,3.26,3.795c.22.184.445.362.683.552a9.909,9.909,0,0,1,2.9,3.1,9.919,9.919,0,0,1,.771,4.834c0,.366-.007.711,0,1.054a16.9,16.9,0,0,0,1.646,6.952,4.952,4.952,0,0,0,2.288,2.646,3.815,3.815,0,0,0,1.479.242c.4,0,.814-.035,1.13-.065a34.5,34.5,0,0,0,4.884-.827,2.323,2.323,0,0,0,1.066-.446,2.556,2.556,0,0,0,.352-1.095l.342-1.936.289-1.637a11.733,11.733,0,0,1,.642-2.435,4.478,4.478,0,0,1,1.784-2.2,4.965,4.965,0,0,1,2.253-.643c.219-.016.444-.024.67-.024a18.3,18.3,0,0,1,4.961.911c.707.2,1.376.388,2.052.538a10.418,10.418,0,0,0,2.256.262,4.779,4.779,0,0,0,3.681-1.366,3.186,3.186,0,0,0,.433-.662,4.857,4.857,0,0,0,.03-3.765,11.5,11.5,0,0,0-3.25-4.161l-.275-.243a18.693,18.693,0,0,1-2.436-2.431,5.745,5.745,0,0,1-1.362-3.455,5.658,5.658,0,0,1,2.177-4.4,9.738,9.738,0,0,1,4.157-1.861,4.778,4.778,0,0,0,.844-.241.47.47,0,0,0,.211-.141,1.171,1.171,0,0,0-.007-.5,10.68,10.68,0,0,0-9.057-9.006,7.145,7.145,0,0,0-.822-.052,3.315,3.315,0,0,0-1.621.348,5.8,5.8,0,0,0-1.892,2.36,8.726,8.726,0,0,1-2.264,2.918,5.364,5.364,0,0,1-3.275,1.025,10.394,10.394,0,0,1-4.916-1.466c-.5-.282-.993-.586-1.47-.881a11.27,11.27,0,0,0-4.766-2.049c-.138-.011-.278-.017-.416-.017C26.617,23.663,24.818,24.516,22.686,26.346Z" transform="translate(-6.852 -8.673)"/>
          <path id="Trazado_897800" data-name="Trazado 897800" d="M28.76,42.29a1.071,1.071,0,0,0,0-2.14,1.071,1.071,0,0,0,0,2.14" transform="translate(-12.505 -18.109)"/>
          <path id="Trazado_897801" data-name="Trazado 897801" d="M55.106,62.1a1.071,1.071,0,0,0,0-2.14,1.071,1.071,0,0,0,0,2.14" transform="translate(-24.388 -27.041)"/>
          <path id="Trazado_897802" data-name="Trazado 897802" d="M69.46,48.286a1.071,1.071,0,0,0,0-2.14,1.071,1.071,0,0,0,0,2.14" transform="translate(-30.862 -20.813)"/>
          <path id="Trazado_897803" data-name="Trazado 897803" d="M79.842,39.038a3.211,3.211,0,1,0-3.21-3.21,3.246,3.246,0,0,0,3.21,3.21" transform="translate(-34.562 -14.711)"/>
          <path id="Trazado_897804" data-name="Trazado 897804" d="M54.95,43.217a3.211,3.211,0,1,0-3.21-3.21,3.246,3.246,0,0,0,3.21,3.21" transform="translate(-23.335 -16.596)"/>
          <path id="Trazado_897805" data-name="Trazado 897805" d="M30.784,56.844a3.211,3.211,0,1,0-3.21-3.21,3.246,3.246,0,0,0,3.21,3.21" transform="translate(-12.435 -22.742)"/>
          <path id="Trazado_897806" data-name="Trazado 897806" d="M44.749,72.27a1.071,1.071,0,0,0,0-2.14,1.071,1.071,0,0,0,0,2.14" transform="translate(-19.716 -31.63)"/>
          <path id="Trazado_897807" data-name="Trazado 897807" d="M46.047,88.823a3.211,3.211,0,1,0-3.21-3.21,3.246,3.246,0,0,0,3.21,3.21" transform="translate(-19.319 -37.165)"/>
          <path id="Trazado_897808" data-name="Trazado 897808" d="M70.212,69.745A3.211,3.211,0,1,0,67,66.535a3.246,3.246,0,0,0,3.21,3.21" transform="translate(-30.218 -28.561)"/>
          <path id="Trazado_897809" data-name="Trazado 897809" d="M86.176,71.18a1.071,1.071,0,0,0,0-2.14,1.071,1.071,0,0,0,0,2.14" transform="translate(-38.401 -31.139)"/>
          <path id="Trazado_897810" data-name="Trazado 897810" d="M42.569,44.834a1.071,1.071,0,0,0,0-2.14,1.071,1.071,0,0,0,0,2.14" transform="translate(-18.733 -19.256)"/>
          <path id="Trazado_897811" data-name="Trazado 897811" d="M35.429,61a38.075,38.075,0,0,1-11.25-1.7,37.839,37.839,0,0,1-13.264-7.26,30.542,30.542,0,0,1-9.744-15.06,30.767,30.767,0,0,1,.2-17.484A30.49,30.49,0,0,1,7.216,8.809,24.745,24.745,0,0,1,42.11,5.823a20.015,20.015,0,0,1,2.416,28.225,16.231,16.231,0,0,1-22.889,1.959,13.2,13.2,0,0,1-1.594-18.621,10.784,10.784,0,0,1,15.206-1.3,8.847,8.847,0,0,1,1.067,12.474,7.3,7.3,0,0,1-10.289.88A6.068,6.068,0,0,1,25.3,20.9l1.68,1.414a3.87,3.87,0,0,0,.466,5.446,5.112,5.112,0,0,0,7.195-.615,6.657,6.657,0,0,0-.8-9.38A8.6,8.6,0,0,0,21.722,18.8a11.009,11.009,0,0,0,1.329,15.527,14.036,14.036,0,0,0,19.795-1.694A17.819,17.819,0,0,0,40.7,7.5,22.549,22.549,0,0,0,8.9,10.224,28.46,28.46,0,0,0,12.33,50.361,35.708,35.708,0,0,0,31.62,58.6a36.085,36.085,0,0,0,13.658-1.169,35.707,35.707,0,0,0,17.61-11.4l1.679,1.415A37.9,37.9,0,0,1,45.878,59.542a38.344,38.344,0,0,1-7.185,1.314C37.609,60.949,36.519,61,35.429,61Z" transform="translate(0 0.001)"/>
        </g>
      </g>
    </g>
  </g>
</svg>
