<svg xmlns="http://www.w3.org/2000/svg" width="88" height="88" viewBox="0 0 88 88">
  <g id="Grupo_1111216" data-name="Grupo 1111216" transform="translate(-336.051 -1163)">
    <circle id="Elipse_11630" data-name="Elipse 11630" cx="44" cy="44" r="44" transform="translate(336.051 1163)" fill="#456345"/>
    <g id="Page-1" transform="translate(355.051 1182)">
      <g id="_053---Earth-Powers" data-name="053---Earth-Powers" transform="translate(0 0)">
        <path id="Shape" d="M49.333,9.333c0,.833-6.667,7.5-7.5,7.5s-5-2.5-5.833-2.5S32.667,18.5,31,18.5,26,16,24.333,16s-5,5-5.833,5-4.167-4.167-6.667-5S1,11.833,1,10.167c0-.833,3.333-5,5.833-5,1.667,0,2.5-2.5,3.333-2.5S14.333,3.5,16,3.5,18.5,1,21,1s9.167,5,10.833,5,5.833-1.667,7.5-1.667S49.333,8.5,49.333,9.333Z" transform="translate(-0.167 -0.167)" fill="#60a917"/>
        <path id="Shape-2" data-name="Shape" d="M33.075,6a7.568,7.568,0,0,0,1.583-.25C32.2,4.75,26.909,1,24.742,1a3.392,3.392,0,0,0-1.29.25C26.442,2.254,31.632,6,33.075,6Z" transform="translate(-3.909 -0.167)" fill="#549414"/>
        <path id="Shape-3" data-name="Shape" d="M25.067,19c-1.211,0-3.3,2.632-4.667,4.076.607.546,1.083.924,1.333.924.691,0,3.1-3.432,4.853-4.6a4.333,4.333,0,0,0-1.52-.4Z" transform="translate(-3.4 -3.167)" fill="#549414"/>
        <path id="Shape-4" data-name="Shape" d="M39.2,17c-.677,0-2.456,2.75-3.993,3.782a4.264,4.264,0,0,0,1.493.384c1.263,0,3-2.389,4.134-3.548A5.871,5.871,0,0,0,39.2,17Z" transform="translate(-5.868 -2.833)" fill="#549414"/>
        <path id="Shape-5" data-name="Shape" d="M46.707,5a7.153,7.153,0,0,0-1.465.221c2.777.868,8.965,4.061,8.965,4.779,0,.683-4.481,5.286-6.553,6.921a5.5,5.5,0,0,0,1.553.579c.833,0,7.5-6.667,7.5-7.5S48.374,5,46.707,5Z" transform="translate(-7.54 -0.833)" fill="#549414"/>
        <path id="Shape-6" data-name="Shape" d="M49.333,11c0,4.167-2.5,15.833-2.5,15.833,0-.833-1.667-2.5-1.667-2.5C44.333,27.667,38.5,41,38.5,41c-.833-4.167-4.167-13.333-4.167-13.333L31,34.333c-.833-1.667-2.5-5.833-2.5-5.833C26.833,34.333,19.333,51,19.333,51L13.5,38.5l-1.667.833c-1.667-5-3.333-12.5-3.333-12.5A49.552,49.552,0,0,0,6,32.667c-1.667-5-5-15.833-5-20.833,0,1.667,8.333,5,10.833,5.833s5.833,5,6.667,5,4.167-5,5.833-5,5,2.5,6.667,2.5S35.167,16,36,16s5,2.5,5.833,2.5S49.333,11.833,49.333,11Z" transform="translate(-0.167 -1.833)" fill="#91562d"/>
        <path id="Shape-7" data-name="Shape" d="M29.41,32c-1.25,4.362-5.75,14.776-7.947,19.756L22.744,54.5s5.384-11.966,8.042-19.167C30.082,33.679,29.41,32,29.41,32Z" transform="translate(-3.577 -5.333)" fill="#6d4122"/>
        <path id="Shape-8" data-name="Shape" d="M53.867,14.394c-.652,5.115-2.221,12.439-2.221,12.439,0-.833-1.667-2.5-1.667-2.5-.554,2.215-3.314,8.843-5.1,13.043.4,1.362.741,2.634.938,3.623,0,0,5.833-13.333,6.667-16.667,0,0,1.667,1.667,1.667,2.5,0,0,2.5-11.667,2.5-15.833C56.646,11.364,55.371,12.844,53.867,14.394Z" transform="translate(-7.479 -1.833)" fill="#6d4122"/>
        <path id="Shape-9" data-name="Shape" d="M36.5,44c-1.863,0-2.5,5-2.5,6.667S35.667,56.5,36.5,56.5,39,54,39,52.333,37.333,44,36.5,44Z" transform="translate(-5.667 -7.333)" fill="#6d4122"/>
        <path id="Shape-10" data-name="Shape" d="M55.667,39C54.424,39,54,41.667,54,42.556s1.111,3.111,1.667,3.111,1.667-1.333,1.667-2.222S56.222,39,55.667,39Z" transform="translate(-9 -6.5)" fill="#6d4122"/>
        <path id="Shape-11" data-name="Shape" d="M4.667,47.667C3.424,47.667,3,45,3,44.111S4.111,41,4.667,41s1.667,1.333,1.667,2.222S5.222,47.667,4.667,47.667Z" transform="translate(-0.5 -6.833)" fill="#6d4122"/>
        <g id="Grupo_1111215" data-name="Grupo 1111215">
          <path id="Shape-12" data-name="Shape" d="M5.833,31.667a.833.833,0,0,0,.791-.57c.006-.018.491-1.46,1.439-3.583.632,2.638,1.726,6.985,2.812,10.25a.833.833,0,0,0,1.167.483l.9-.451,5.472,11.724a.833.833,0,0,0,.752.481h.006a.833.833,0,0,0,.75-.492c.274-.609,6.073-13.513,8.5-20.417.54,1.3,1.215,2.882,1.667,3.782a.868.868,0,0,0,1.492,0l2.458-4.917a112.731,112.731,0,0,1,3.478,11.377A.833.833,0,0,0,39.1,39.5c.212-.485,4.667-10.677,6.257-15.322a2.632,2.632,0,0,1,.476.823.833.833,0,0,0,1.648.175c.1-.48,2.518-11.8,2.518-16.008a.707.707,0,0,0-.044-.221.824.824,0,0,0-.219-.382c-1.554-2-9.57-5.231-10.57-5.231a17.892,17.892,0,0,0-3.979.865,18.279,18.279,0,0,1-3.521.8,19.664,19.664,0,0,1-4.031-2.012C25.078,1.519,22.432,0,20.833,0a5.229,5.229,0,0,0-3.578,1.643c-.611.531-1.006.857-1.422.857a25.333,25.333,0,0,1-3.656-.508A15.306,15.306,0,0,0,10,1.667c-.744,0-1.23.6-1.744,1.243C7.782,3.5,7.244,4.167,6.667,4.167,3.7,4.167,0,8.654,0,10c0,5.538,3.86,17.548,5.043,21.1A.833.833,0,0,0,5.833,31.667Zm40.461-8.99c-.267-.317-.523-.583-.705-.766a.833.833,0,0,0-1.4.388c-.6,2.4-3.945,10.319-5.639,14.262-1.235-4.486-3.488-10.7-3.6-11.012A.833.833,0,0,0,34.215,25a.845.845,0,0,0-.794.459l-2.556,5.112c-.808-1.843-1.746-4.185-1.758-4.216a.833.833,0,0,0-1.575.083C26.21,31.066,21.083,42.8,19.149,47.158L14.088,36.314a.833.833,0,0,0-1.127-.393l-.8.4c-1.532-4.859-3-11.432-3.014-11.5a.833.833,0,0,0-.712-.646.845.845,0,0,0-.847.454c-.717,1.433-1.28,2.71-1.693,3.709A106.074,106.074,0,0,1,1.841,12.26c3.2,2.228,9.477,4.338,9.562,4.366,1.281.428,2.993,2.017,4.244,3.178,1.429,1.324,2.036,1.863,2.686,1.863.688,0,1.273-.617,2.645-2.138.772-.858,2.582-2.862,3.188-2.862a9.719,9.719,0,0,1,2.961,1.167,9.8,9.8,0,0,0,3.706,1.333c1.353,0,2.653-1.472,3.909-2.9a13.573,13.573,0,0,1,1.181-1.242,25.056,25.056,0,0,1,2.454,1.139c1.9.946,2.732,1.333,3.289,1.333.882,0,4.286-3.113,6.461-5.583-.4,3.395-1.294,8.066-1.833,10.76ZM6.667,5.833A3.9,3.9,0,0,0,9.554,3.954a5.811,5.811,0,0,1,.542-.617c.34.027,1.1.167,1.779.292a25.434,25.434,0,0,0,3.958.537A3.853,3.853,0,0,0,18.35,2.9a3.712,3.712,0,0,1,2.483-1.234c1.154,0,3.826,1.534,5.972,2.767,2.484,1.426,3.935,2.233,4.861,2.233A17.892,17.892,0,0,0,35.646,5.8,18.279,18.279,0,0,1,39.167,5c1.161,0,7.571,3.076,9.026,4.272a43.568,43.568,0,0,1-6.6,6.537,24.453,24.453,0,0,1-2.466-1.138c-1.9-.95-2.732-1.337-3.289-1.337-.721,0-1.333.69-2.341,1.833-.719.817-2.058,2.333-2.659,2.333a9.719,9.719,0,0,1-2.961-1.163A9.748,9.748,0,0,0,24.167,15c-1.25,0-2.622,1.417-4.426,3.412a20.416,20.416,0,0,1-1.437,1.5c-.352-.25-.991-.842-1.522-1.333-1.438-1.333-3.227-3-4.852-3.537-3.688-1.229-9.619-3.934-10.242-5.05.353-.875,3.122-4.159,4.978-4.159Z" transform="translate(0 0)"/>
          <path id="Shape-13" data-name="Shape" d="M36.333,57.167c1.513,0,3.333-3.072,3.333-5,0-.437-1.26-9.167-3.333-9.167C33.143,43,33,50.425,33,50.5,33,51.993,34.615,57.167,36.333,57.167Zm-.233-12.4a28.022,28.022,0,0,1,1.9,7.4A5.5,5.5,0,0,1,36.417,55.4a12.154,12.154,0,0,1-1.75-4.9C34.667,48.374,35.381,45.333,36.1,44.762Z" transform="translate(-5.5 -7.167)"/>
          <path id="Shape-14" data-name="Shape" d="M55.5,38c-2.076,0-2.5,3.462-2.5,4.389s1.153,3.944,2.5,3.944c1.159,0,2.5-1.849,2.5-3.056C58,43.006,57.129,38,55.5,38Zm.083,6.54a5.533,5.533,0,0,1-.917-2.151,5.648,5.648,0,0,1,.632-2.533,13.084,13.084,0,0,1,1.034,3.421,2.383,2.383,0,0,1-.746,1.262Z" transform="translate(-8.833 -6.333)"/>
          <path id="Shape-15" data-name="Shape" d="M4.5,40C3.153,40,2,43.007,2,43.944s.424,4.389,2.5,4.389c1.629,0,2.5-5.006,2.5-5.278C7,41.849,5.659,40,4.5,40Zm-.2,6.477a5.648,5.648,0,0,1-.633-2.533,5.533,5.533,0,0,1,.921-2.151,2.383,2.383,0,0,1,.746,1.263A13.083,13.083,0,0,1,4.3,46.477Z" transform="translate(-0.333 -6.667)"/>
          <path id="Shape-16" data-name="Shape" d="M14.831,10.331a.833.833,0,1,0,1.667,0A4.823,4.823,0,0,0,15.42,7.242.833.833,0,1,0,14.242,8.42a3.273,3.273,0,0,1,.589,1.911Z" transform="translate(-2.331 -1.165)"/>
          <path id="Shape-17" data-name="Shape" d="M18.813,11.324h.021a.844.844,0,0,0,.833-.8,1.826,1.826,0,0,1,.589-1.1.833.833,0,0,0-1.178-1.178A3.384,3.384,0,0,0,18,10.5.823.823,0,0,0,18.813,11.324Z" transform="translate(-3 -1.335)"/>
          <path id="Shape-18" data-name="Shape" d="M28.835,14.335a.833.833,0,1,0,1.667,0,4.822,4.822,0,0,0-1.077-3.089.833.833,0,0,0-1.178,1.178A3.272,3.272,0,0,1,28.835,14.335Z" transform="translate(-4.669 -1.835)"/>
          <path id="Shape-19" data-name="Shape" d="M32.812,15.324h.021a.844.844,0,0,0,.833-.8,1.826,1.826,0,0,1,.589-1.1.833.833,0,0,0-1.178-1.178A3.384,3.384,0,0,0,32,14.5a.823.823,0,0,0,.812.822Z" transform="translate(-5.333 -2.002)"/>
          <path id="Shape-20" data-name="Shape" d="M44.835,11.335a.833.833,0,1,0,1.667,0,4.822,4.822,0,0,0-1.077-3.089.833.833,0,0,0-1.178,1.178,3.273,3.273,0,0,1,.589,1.911Z" transform="translate(-7.335 -1.335)"/>
          <path id="Shape-21" data-name="Shape" d="M48.812,12.324h.021a.844.844,0,0,0,.833-.8,1.826,1.826,0,0,1,.589-1.1.833.833,0,0,0-1.178-1.178A3.384,3.384,0,0,0,48,11.5a.823.823,0,0,0,.812.822Z" transform="translate(-8 -1.502)"/>
        </g>
      </g>
    </g>
  </g>
</svg>
