<svg xmlns="http://www.w3.org/2000/svg" width="85" height="85" viewBox="0 0 85 85">
  <g id="Grupo_1110250" data-name="Grupo 1110250" transform="translate(-311.051 -1500)">
    <circle id="Elipse_11627" data-name="Elipse 11627" cx="42.5" cy="42.5" r="42.5" transform="translate(311.051 1500)" fill="#ff7c32"/>
    <g id="estomago" transform="translate(284.467 1508.999)">
      <path id="Trazado_897441" data-name="Trazado 897441" d="M53.355,57.848a3.725,3.725,0,0,1,5.956-.6,24.531,24.531,0,0,0,38.23-2.51c6.07-8.823,6.237-19.377,2.293-29.253a13.571,13.571,0,0,0-21.241-5.372l-.019.015a2.653,2.653,0,0,1-3.668-.241,18.818,18.818,0,0,1-4.2-7.762L69.527,7.734a.315.315,0,0,0-.3-.233H64.951a.315.315,0,0,0-.3.4l1.462,5.455a23.66,23.66,0,0,0,7.022,11.459,2.638,2.638,0,0,1,.791,2.625,14.252,14.252,0,0,0,.48,8.678,14.4,14.4,0,0,1-1.942,14.023,9.751,9.751,0,0,1-5.41,3.539,7.694,7.694,0,0,1-6.059-1.136A8.466,8.466,0,0,0,50.564,65.734l6.712,6.712a.314.314,0,0,0,.222.092h5.837A.315.315,0,0,0,63.557,72L53.986,62.43A3.784,3.784,0,0,1,53.355,57.848Z" transform="translate(-6.519 -6.519)" fill="#f9b1b1"/>
      <path id="Trazado_897442" data-name="Trazado 897442" d="M298.8,124.974l0,0,.025-.021Z" transform="translate(-224.426 -108.598)" fill="#0681af"/>
      <path id="Trazado_897443" data-name="Trazado 897443" d="M291.416,125a32.116,32.116,0,0,0-2.4-11.171A9.96,9.96,0,0,0,273.43,109.9l-.017.014-.032.026a10.134,10.134,0,0,0-3.418,5.371l-.011.044a10.6,10.6,0,0,0,.36,6.481,19.511,19.511,0,0,1,.919,3.189l9.75,5.22Z" transform="translate(-199.053 -93.532)" fill="#f37c7c"/>
      <path id="Trazado_897444" data-name="Trazado 897444" d="M256.952,239.986c-2.145,0-2.145-.785-4.289-.785s-2.144.785-4.289.785-2.144-.785-4.289-.785a5.435,5.435,0,0,0-1.561.2A17.605,17.605,0,0,1,241.2,250.3a18.055,18.055,0,0,1-2.047,3.408,13.026,13.026,0,0,1-1.19,1.349,4.632,4.632,0,0,0,3.2,7.933h.138a21.044,21.044,0,0,0,9.484-2.254,20.287,20.287,0,0,0,7.6-6.673,24.23,24.23,0,0,0,4.273-12.407q.07-1.136.043-2.288a5.552,5.552,0,0,0-1.469-.17C259.1,239.2,259.1,239.986,256.952,239.986Z" transform="translate(-170.348 -207.898)" fill="#fdb441"/>
      <path id="Trazado_897445" data-name="Trazado 897445" d="M362.456,112.141a31.124,31.124,0,0,1,2.358,13.459,25.2,25.2,0,0,1-.4,3.18l5.674-2.852a32.114,32.114,0,0,0-2.4-11.171,9.855,9.855,0,0,0-7.562-6.079A9.851,9.851,0,0,1,362.456,112.141Z" transform="translate(-277.727 -94.456)" fill="#ee6161"/>
      <path id="Trazado_897446" data-name="Trazado 897446" d="M265.739,239.371a5.552,5.552,0,0,0-1.469-.17c-2,0-2.135.682-3.881.775a24.186,24.186,0,0,1-4.2,11.475,20.288,20.288,0,0,1-7.6,6.673,21.014,21.014,0,0,1-8.527,2.232,4.533,4.533,0,0,0,4.137,2.638h.138a21.043,21.043,0,0,0,9.484-2.254,20.287,20.287,0,0,0,7.6-6.673,24.231,24.231,0,0,0,4.273-12.407Q265.766,240.524,265.739,239.371Z" transform="translate(-173.377 -207.898)" fill="#fea713"/>
      <circle id="Elipse_11634" data-name="Elipse 11634" cx="1.806" cy="1.806" r="1.806" transform="translate(75.996 37.113)" fill="#fece85"/>
      <circle id="Elipse_11635" data-name="Elipse 11635" cx="1.806" cy="1.806" r="1.806" transform="translate(77.802 44.336)" fill="#fece85"/>
      <path id="Trazado_897447" data-name="Trazado 897447" d="M333.522,350.029a1.807,1.807,0,0,0,2.38-2.307A20.206,20.206,0,0,1,333.522,350.029Z" transform="translate(-254.605 -302.218)" fill="#fec165"/>
      <path id="Trazado_897448" data-name="Trazado 897448" d="M129.02,369.638a.978.978,0,0,1-.657-.253,6.057,6.057,0,0,1-1.985-4.5.981.981,0,1,1,1.963,0,4.091,4.091,0,0,0,1.337,3.038.981.981,0,0,1-.658,1.71Z" transform="translate(-74.568 -316.287)"/>
      <path id="Trazado_897449" data-name="Trazado 897449" d="M56.815,67H50.978a1.288,1.288,0,0,1-.916-.38L43.35,59.91a9.47,9.47,0,0,1-1.5-11.415A9.438,9.438,0,0,1,55.011,45.2a6.744,6.744,0,0,0,5.284,1,8.811,8.811,0,0,0,4.866-3.183,13.461,13.461,0,0,0,1.525-2.54,13.322,13.322,0,0,0,.28-10.537,15.165,15.165,0,0,1-.512-9.275,1.651,1.651,0,0,0-.5-1.648,24.583,24.583,0,0,1-5.192-6.6.981.981,0,1,1,1.727-.933,22.626,22.626,0,0,0,4.778,6.074,3.607,3.607,0,0,1,1.084,3.6,13.212,13.212,0,0,0,.447,8.081A15.244,15.244,0,0,1,68.469,41.3a15.428,15.428,0,0,1-1.748,2.911,10.781,10.781,0,0,1-5.953,3.9,8.71,8.71,0,0,1-6.834-1.268,7.477,7.477,0,0,0-10.386,2.634,7.5,7.5,0,0,0,1.191,9.046l6.516,6.516H55.2l-8.433-8.433a4.755,4.755,0,0,1-.781-5.775,4.643,4.643,0,0,1,3.541-2.276,4.7,4.7,0,0,1,3.982,1.506,23.62,23.62,0,0,0,19.138,7.6A23.183,23.183,0,0,0,90.214,47.659c5.51-8.009,6.288-18.071,2.19-28.333a12.59,12.59,0,0,0-19.7-4.979,3.634,3.634,0,0,1-5.04-.325,19.665,19.665,0,0,1-4.423-8.165L62.193,1.964H59.3l1.237,4.615q.113.421.241.836A.981.981,0,0,1,58.9,8q-.139-.451-.262-.908L57.18,1.632A1.3,1.3,0,0,1,58.432,0H62.7a1.3,1.3,0,0,1,1.252.96l1.175,4.387a17.72,17.72,0,0,0,3.984,7.359,1.671,1.671,0,0,0,2.313.143,14.552,14.552,0,0,1,22.8,5.748c4.349,10.89,3.5,21.606-2.4,30.173a25.136,25.136,0,0,1-19.04,10.851q-.926.066-1.847.066a25.561,25.561,0,0,1-18.874-8.3,2.75,2.75,0,0,0-2.332-.884,2.7,2.7,0,0,0-2.057,1.323,2.793,2.793,0,0,0,.479,3.388l9.571,9.571A1.3,1.3,0,0,1,56.815,67Z" transform="translate(0 0)"/>
      <path id="Trazado_897450" data-name="Trazado 897450" d="M292.355,119.417a.976.976,0,0,1-.638-1.719l.027-.022h0a.978.978,0,0,1,.671-.224h0a.981.981,0,0,1,.923,1.116h0a.982.982,0,0,1-.065.222h-.016a.978.978,0,0,1-.26.334A1,1,0,0,1,292.355,119.417Z" transform="translate(-217.969 -102.08)"/>
      <path id="Trazado_897451" data-name="Trazado 897451" d="M264.707,119.493a.982.982,0,0,1-.962-.792,18.607,18.607,0,0,0-.873-3.029,11.572,11.572,0,0,1-.392-7.078,11.087,11.087,0,0,1,3.758-5.927,10.865,10.865,0,0,1,7.007-2.552,11.038,11.038,0,0,1,4.1.781.981.981,0,0,1-.726,1.824,9.084,9.084,0,0,0-3.375-.642,8.882,8.882,0,0,0-5.712,2.065,9.163,9.163,0,0,0-3.14,4.895,9.663,9.663,0,0,0,.314,5.935,20.573,20.573,0,0,1,.965,3.35.982.982,0,0,1-.964,1.171Z" transform="translate(-192.532 -87.013)"/>
      <path id="Trazado_897452" data-name="Trazado 897452" d="M402.129,141.739a.981.981,0,0,1-.981-.959,31.189,31.189,0,0,0-2.332-10.83,8.879,8.879,0,0,0-1.582-2.581.981.981,0,0,1,1.474-1.3,10.836,10.836,0,0,1,1.932,3.15,33.14,33.14,0,0,1,2.471,11.512.982.982,0,0,1-.959,1Z" transform="translate(-309.767 -109.285)"/>
      <path id="Trazado_897453" data-name="Trazado 897453" d="M234.644,257.456a5.613,5.613,0,0,1-3.923-9.613,12.071,12.071,0,0,0,1.1-1.247,17.074,17.074,0,0,0,1.936-3.222A16.533,16.533,0,0,0,235,233.067a.981.981,0,0,1,.692-1.133,6.487,6.487,0,0,1,1.832-.234,6.312,6.312,0,0,1,2.482.452,5.075,5.075,0,0,0,3.614,0,7.036,7.036,0,0,1,4.964,0,5.075,5.075,0,0,0,3.614,0,6.312,6.312,0,0,1,2.482-.452,6.564,6.564,0,0,1,1.721.2.981.981,0,0,1,.729.926c.018.793,0,1.591-.045,2.372a25.2,25.2,0,0,1-4.444,12.9,21.258,21.258,0,0,1-7.964,6.992,21.755,21.755,0,0,1-5.114,1.829.981.981,0,1,1-.427-1.916,19.79,19.79,0,0,0,4.653-1.664,19.316,19.316,0,0,0,7.235-6.354,23.262,23.262,0,0,0,4.1-11.911c.029-.461.045-.929.048-1.4-.144-.011-.308-.018-.495-.018a4.4,4.4,0,0,0-1.807.333,7.036,7.036,0,0,1-4.964,0,5.075,5.075,0,0,0-3.614,0,7.036,7.036,0,0,1-4.964,0,4.4,4.4,0,0,0-1.807-.333c-.159,0-.3,0-.431.013a18.714,18.714,0,0,1-1.558,10.517,19.039,19.039,0,0,1-2.159,3.593,14.047,14.047,0,0,1-1.28,1.451,3.651,3.651,0,0,0,2.521,6.254l.032.982Z" transform="translate(-163.791 -201.38)"/>
      <path id="Elipse_11636" data-name="Elipse 11636" d="M-4.713-7.5A2.79,2.79,0,0,1-1.925-4.713,2.79,2.79,0,0,1-4.713-1.925,2.79,2.79,0,0,1-7.5-4.713,2.79,2.79,0,0,1-4.713-7.5Zm0,3.612a.825.825,0,0,0,.824-.824.825.825,0,0,0-.824-.824.825.825,0,0,0-.824.824A.825.825,0,0,0-4.713-3.888Z" transform="translate(82.515 43.631)"/>
      <path id="Elipse_11637" data-name="Elipse 11637" d="M-4.713-7.5A2.79,2.79,0,0,1-1.925-4.713,2.79,2.79,0,0,1-4.713-1.925,2.79,2.79,0,0,1-7.5-4.713,2.79,2.79,0,0,1-4.713-7.5Zm0,3.612a.825.825,0,0,0,.824-.824.825.825,0,0,0-.824-.824.825.825,0,0,0-.824.824A.825.825,0,0,0-4.713-3.888Z" transform="translate(84.32 50.855)"/>
      <g id="Grupo_1110245" data-name="Grupo 1110245" transform="translate(86.716 38.294)">
        <g id="Grupo_1110244" data-name="Grupo 1110244">
          <path id="Línea_569" data-name="Línea 569"/>
        </g>
      </g>
      <g id="Grupo_1110247" data-name="Grupo 1110247" transform="translate(84.201 41.549)">
        <g id="Grupo_1110246" data-name="Grupo 1110246">
          <path id="Línea_570" data-name="Línea 570"/>
        </g>
      </g>
      <g id="Grupo_1110249" data-name="Grupo 1110249" transform="translate(73.365 47.123)">
        <g id="Grupo_1110248" data-name="Grupo 1110248">
          <path id="Línea_571" data-name="Línea 571"/>
        </g>
      </g>
    </g>
  </g>
</svg>
