<svg xmlns="http://www.w3.org/2000/svg" xmlns:xlink="http://www.w3.org/1999/xlink" width="88" height="88" viewBox="0 0 88 88">
  <defs>
    <clipPath id="clip-path">
      <path id="path1341" d="M0-682.665H58.665V-624H0Z" transform="translate(0 682.665)"/>
    </clipPath>
  </defs>
  <g id="Grupo_1111217" data-name="Grupo 1111217" transform="translate(-1176.051 -1163)">
    <circle id="Elipse_11632" data-name="Elipse 11632" cx="44" cy="44" r="44" transform="translate(1176.051 1163)" fill="#456345"/>
    <g id="g1335" transform="translate(1191.051 1860.666)">
      <g id="g1337" transform="translate(0 -682.665)">
        <g id="g1339" clip-path="url(#clip-path)">
          <g id="g1345" transform="translate(3.313 9.409)">
            <path id="path1347" d="M-551.449-337.462a3.744,3.744,0,0,0-1.807-4.508,3.725,3.725,0,0,0-1.434-.417,2.736,2.736,0,0,1-1.665-.76,6.233,6.233,0,0,0-1.286-.944,1.417,1.417,0,0,1-.732-1.124c-.3-3.745-2.7-5.308-4.257-6.884a3.454,3.454,0,0,1-.986-2.431v-.014a6.211,6.211,0,0,0-3.877-5.756,2.51,2.51,0,0,1-1.545-1.966,3.723,3.723,0,0,0-.694-1.691,3.724,3.724,0,0,0-1.714-1.288,2.553,2.553,0,0,1-1.526-1.516,3.73,3.73,0,0,0-1.87-2.079,3.9,3.9,0,0,0-4.79,1.328,3.811,3.811,0,0,0-.3.57,10.082,10.082,0,0,1-3.824,4.457,8.5,8.5,0,0,0-3.221,3.86l-.048.118a6.172,6.172,0,0,1-2.5,2.929,8.539,8.539,0,0,0-4.049,7.268v.015a1.421,1.421,0,0,1-.857,1.3,8.564,8.564,0,0,0-3.184,2.42,8.829,8.829,0,0,1-3.4,2.479,3.726,3.726,0,0,0-1.841,1.7,3.731,3.731,0,0,0-.233,2.934Z" transform="translate(603.294 369.188)" fill="#c4583a"/>
          </g>
          <g id="g1349" transform="translate(26.53 9.409)">
            <path id="path1351" d="M-304.493-337.457h-7.158a3.743,3.743,0,0,0-1.807-4.508,3.707,3.707,0,0,0-1.433-.417,2.737,2.737,0,0,1-1.665-.76,6.223,6.223,0,0,0-1.287-.944,1.418,1.418,0,0,1-.731-1.124c-.3-3.744-2.7-5.309-4.257-6.884a3.454,3.454,0,0,1-.986-2.431v-.014a6.212,6.212,0,0,0-3.876-5.757,2.51,2.51,0,0,1-1.546-1.966,3.713,3.713,0,0,0-.693-1.69,3.728,3.728,0,0,0-1.715-1.289,2.559,2.559,0,0,1-1.472-1.382c.049-.1.1-.21.142-.315a3.731,3.731,0,0,1,.3-.569,3.9,3.9,0,0,1,4.791-1.328,3.729,3.729,0,0,1,1.87,2.078,2.551,2.551,0,0,0,1.525,1.516,3.727,3.727,0,0,1,1.715,1.289,3.711,3.711,0,0,1,.693,1.69,2.511,2.511,0,0,0,1.546,1.966,6.211,6.211,0,0,1,3.876,5.757v.014a3.454,3.454,0,0,0,.987,2.431c1.554,1.575,3.957,3.139,4.257,6.884a1.418,1.418,0,0,0,.731,1.124,6.223,6.223,0,0,1,1.287.944,2.737,2.737,0,0,0,1.665.76,3.707,3.707,0,0,1,1.433.417,3.743,3.743,0,0,1,1.807,4.508" transform="translate(333.119 369.182)" fill="#a84b31"/>
          </g>
          <g id="g1353" transform="translate(2.451 8.554)">
            <path id="path1355" d="M-387.878-87.474h-51.648a.859.859,0,0,1-.815-.586,4.563,4.563,0,0,1,.287-3.608,4.611,4.611,0,0,1,2.264-2.091,7.919,7.919,0,0,0,3.077-2.232,9.463,9.463,0,0,1,3.5-2.663.564.564,0,0,0,.344-.512,9.36,9.36,0,0,1,4.456-8.013,5.287,5.287,0,0,0,2.156-2.519l.054-.132a9.348,9.348,0,0,1,3.545-4.247,9.184,9.184,0,0,0,3.5-4.073,4.683,4.683,0,0,1,.371-.7,4.776,4.776,0,0,1,5.891-1.634,4.588,4.588,0,0,1,2.3,2.556,1.694,1.694,0,0,0,1.015,1,4.583,4.583,0,0,1,2.108,1.584,4.61,4.61,0,0,1,.854,2.08,1.654,1.654,0,0,0,1.017,1.291,7.065,7.065,0,0,1,1.365.738.859.859,0,0,1,.217,1.2.859.859,0,0,1-1.2.217,5.343,5.343,0,0,0-1.033-.558,3.378,3.378,0,0,1-2.072-2.641,2.846,2.846,0,0,0-.535-1.3,2.869,2.869,0,0,0-1.32-.992,3.409,3.409,0,0,1-2.036-2.029,2.877,2.877,0,0,0-1.442-1.6,3.03,3.03,0,0,0-3.688,1.023,2.951,2.951,0,0,0-.235.441,10.9,10.9,0,0,1-4.147,4.841,7.637,7.637,0,0,0-2.9,3.471l-.044.107a6.994,6.994,0,0,1-2.845,3.339,7.645,7.645,0,0,0-3.643,6.537,2.287,2.287,0,0,1-1.372,2.1,7.735,7.735,0,0,0-2.864,2.177,9.616,9.616,0,0,1-3.732,2.725,2.849,2.849,0,0,0-1.418,1.31,2.854,2.854,0,0,0-.312,1.675h50.284a2.869,2.869,0,0,0-1.525-2.888,2.859,2.859,0,0,0-1.1-.322,3.613,3.613,0,0,1-2.188-.994,5.373,5.373,0,0,0-1.108-.814,2.271,2.271,0,0,1-1.173-1.808c-.224-2.8-1.723-4.2-3.173-5.546-.294-.274-.578-.538-.839-.8A4.286,4.286,0,0,1-400.9-105.4a5.351,5.351,0,0,0-.329-1.863.859.859,0,0,1,.509-1.1.859.859,0,0,1,1.1.509,7.045,7.045,0,0,1,.436,2.445,2.588,2.588,0,0,0,.738,1.842c.244.248.51.495.786.751,1.532,1.425,3.439,3.2,3.716,6.668a.556.556,0,0,0,.291.44,7.093,7.093,0,0,1,1.463,1.074,1.889,1.889,0,0,0,1.141.525,4.568,4.568,0,0,1,1.764.513,4.58,4.58,0,0,1,2.221,5.543A.859.859,0,0,1-387.878-87.474Z" transform="translate(440.584 120.914)"/>
          </g>
          <g id="g1357" transform="translate(0.859 39.657)">
            <path id="path1359" d="M-593.258-102.1h-54.6a1.171,1.171,0,0,1-1.171-1.171v-7.256a1.171,1.171,0,0,1,1.171-1.171h54.6a1.171,1.171,0,0,1,1.172,1.171v7.256a1.171,1.171,0,0,1-1.172,1.171" transform="translate(649.033 111.697)" fill="#fdc266"/>
          </g>
          <g id="g1361" transform="translate(52.066 39.657)">
            <path id="path1363" d="M-61.053-12.459V-5.2a1.172,1.172,0,0,1-1.171,1.171h-4.568A1.172,1.172,0,0,0-65.622-5.2v-7.257a1.172,1.172,0,0,0-1.171-1.171h4.568a1.172,1.172,0,0,1,1.171,1.171" transform="translate(66.793 13.631)" fill="#feb541"/>
          </g>
          <g id="g1365" transform="translate(0 38.798)">
            <path id="path1367" d="M-69.372,1.317h-54.6a2.033,2.033,0,0,1-2.031-2.031V-7.969A2.033,2.033,0,0,1-123.976-10h8.8a.859.859,0,0,1,.859.859.859.859,0,0,1-.859.859h-8.8a.312.312,0,0,0-.312.312V-.713a.312.312,0,0,0,.312.312h54.6a.312.312,0,0,0,.312-.312V-7.969a.312.312,0,0,0-.312-.312H-79.889a.859.859,0,0,1-.859-.859A.859.859,0,0,1-79.889-10h10.516a2.033,2.033,0,0,1,2.031,2.031V-.713A2.033,2.033,0,0,1-69.372,1.317Z" transform="translate(126.006 10)"/>
          </g>
          <g id="g1369" transform="translate(13.749 38.798)">
            <path id="path1371" d="M-304.09-8.281h-27.73a.859.859,0,0,1-.859-.859A.859.859,0,0,1-331.82-10h27.73a.859.859,0,0,1,.859.859A.859.859,0,0,1-304.09-8.281Z" transform="translate(332.679 10)"/>
          </g>
          <g id="g1373" transform="translate(39.091 41.737)">
            <path id="path1375" d="M-208.576-5A12.182,12.182,0,0,1-214.9-6.764a.859.859,0,0,1-.288-1.181.859.859,0,0,1,1.181-.288,10.464,10.464,0,0,0,5.435,1.517,10.464,10.464,0,0,0,5.435-1.517A12.183,12.183,0,0,1-196.814-10a.859.859,0,0,1,.859.859.859.859,0,0,1-.859.859,10.464,10.464,0,0,0-5.435,1.517A12.182,12.182,0,0,1-208.576-5Z" transform="translate(215.317 10)"/>
          </g>
          <g id="g1377" transform="translate(3.662 38.798)">
            <path id="path1379" d="M-1.03-3.972c-4.31,0-7.982-2.016-8.93-4.9A.859.859,0,0,1-9.411-9.96a.859.859,0,0,1,1.084.549c.707,2.156,3.776,3.721,7.3,3.721s6.589-1.565,7.3-3.721A.859.859,0,0,1,7.351-9.96.859.859,0,0,1,7.9-8.875C6.952-5.988,3.28-3.972-1.03-3.972Z" transform="translate(10.003 10.003)"/>
          </g>
          <g id="g1381" transform="translate(19.181 44.256)">
            <path id="path1383" d="M-9.142-52.325a.862.862,0,0,1-.2-.023.859.859,0,0,1-.639-1.034,6.189,6.189,0,0,1,2.786-3.869,6.189,6.189,0,0,1,4.706-.766.859.859,0,0,1,.639,1.034.859.859,0,0,1-1.034.639,4.481,4.481,0,0,0-3.408.554,4.481,4.481,0,0,0-2.018,2.8A.86.86,0,0,1-9.142-52.325Z" transform="translate(10.002 58.185)"/>
          </g>
          <g id="g1385" transform="translate(32.153 43.11)">
            <path id="path1387" d="M-9.065-8.281a.865.865,0,0,1-.865-.859A.854.854,0,0,1-9.077-10h.012a.859.859,0,0,1,.859.859A.859.859,0,0,1-9.065-8.281Z" transform="translate(9.93 10)"/>
          </g>
          <g id="g1389" transform="translate(18.091 25.393)">
            <path id="path1391" d="M-9.064-8.281a.865.865,0,0,1-.865-.859A.854.854,0,0,1-9.076-10h.012a.859.859,0,0,1,.859.859A.859.859,0,0,1-9.064-8.281Z" transform="translate(9.929 10)"/>
          </g>
          <g id="g1393" transform="translate(16.601 31.542)">
            <path id="path1395" d="M-9.064-8.281a.865.865,0,0,1-.865-.859A.854.854,0,0,1-9.076-10h.012a.859.859,0,0,1,.859.859A.859.859,0,0,1-9.064-8.281Z" transform="translate(9.929 10)"/>
          </g>
          <g id="g1397" transform="translate(19.888 27.367)">
            <path id="path1399" d="M-9.065-8.281a.865.865,0,0,1-.865-.859A.854.854,0,0,1-9.077-10h.012a.859.859,0,0,1,.859.859A.859.859,0,0,1-9.065-8.281Z" transform="translate(9.93 10)"/>
          </g>
          <g id="g1401" transform="translate(34.399 32.404)">
            <path id="path1403" d="M-9.065-8.281a.865.865,0,0,1-.865-.859A.854.854,0,0,1-9.077-10h.012a.859.859,0,0,1,.859.859A.859.859,0,0,1-9.065-8.281Z" transform="translate(9.93 10)"/>
          </g>
          <g id="g1405" transform="translate(38.218 22.643)">
            <path id="path1407" d="M-9.065-8.281a.865.865,0,0,1-.865-.859A.854.854,0,0,1-9.077-10h.012a.859.859,0,0,1,.859.859A.859.859,0,0,1-9.065-8.281Z" transform="translate(9.93 10)"/>
          </g>
          <g id="g1409" transform="translate(31.849 15.557)">
            <path id="path1411" d="M-9.065-8.281a.865.865,0,0,1-.865-.859A.854.854,0,0,1-9.077-10h.012a.859.859,0,0,1,.859.859A.859.859,0,0,1-9.065-8.281Z" transform="translate(9.93 10)"/>
          </g>
          <g id="g1413" transform="translate(24.307 19.525)">
            <path id="path1415" d="M-61.908-18.031a.857.857,0,0,1-.618-.262.859.859,0,0,1,.021-1.215,4.1,4.1,0,0,1,2.864-1.158,4.1,4.1,0,0,1,2.864,1.158.859.859,0,0,1,.021,1.215.859.859,0,0,1-1.215.021,2.393,2.393,0,0,0-1.67-.675,2.394,2.394,0,0,0-1.67.676A.857.857,0,0,1-61.908-18.031Z" transform="translate(62.768 20.667)"/>
          </g>
          <g id="g1417" transform="translate(18.899 32.875)">
            <path id="path1419" d="M-77.26-22.051a.856.856,0,0,1-.6-.241,3.733,3.733,0,0,0-2.605-1.053,3.733,3.733,0,0,0-2.605,1.053.859.859,0,0,1-1.215-.021.859.859,0,0,1,.021-1.215,5.444,5.444,0,0,1,3.8-1.536,5.443,5.443,0,0,1,3.8,1.536.859.859,0,0,1,.021,1.215A.857.857,0,0,1-77.26-22.051Z" transform="translate(84.524 25.064)"/>
          </g>
          <g id="g1421" transform="translate(27.892 27.366)">
            <path id="path1423" d="M-53.753-29.092a.86.86,0,0,1-.788-.515,2.393,2.393,0,0,0-1.288-1.26,2.393,2.393,0,0,0-1.8-.01.859.859,0,0,1-1.116-.482.859.859,0,0,1,.482-1.116,4.1,4.1,0,0,1,3.089.018,4.1,4.1,0,0,1,2.209,2.16.859.859,0,0,1-.442,1.132A.857.857,0,0,1-53.753-29.092Z" transform="translate(58.807 32.768)"/>
          </g>
          <g id="g1425" transform="translate(30.599 25.801)">
            <path id="path1427" d="M-102.653-27.184a.856.856,0,0,1-.6-.241,5.443,5.443,0,0,0-3.8-1.536,5.444,5.444,0,0,0-3.8,1.536.859.859,0,0,1-1.215-.021.859.859,0,0,1,.021-1.215,7.154,7.154,0,0,1,4.993-2.018,7.154,7.154,0,0,1,4.993,2.018.859.859,0,0,1,.021,1.215A.857.857,0,0,1-102.653-27.184Z" transform="translate(112.304 30.68)"/>
          </g>
        </g>
      </g>
    </g>
  </g>
</svg>
