<svg xmlns="http://www.w3.org/2000/svg" width="88" height="88" viewBox="0 0 88 88">
  <g id="Grupo_1111166" data-name="Grupo 1111166" transform="translate(-1176.051 -1241)">
    <circle id="Elipse_11629" data-name="Elipse 11629" cx="44" cy="44" r="44" transform="translate(1176.051 1241)" fill="#456345"/>
    <g id="proteina" transform="translate(1165.989 1259)">
      <path id="Trazado_897860" data-name="Trazado 897860" d="M419.078,69.625h3.192v38.3h-3.192Z" transform="translate(-348.143 -62.47)" fill="#dcf5f8"/>
      <path id="Trazado_897861" data-name="Trazado 897861" d="M38.562,33.036c0,12.365,14.456,12.755,15.369,24.364a1.28,1.28,0,0,0,1.279,1.172h3.805a1.282,1.282,0,0,0,1.28-1.4c-1.081-11.389-15.35-11.855-15.35-24.139S59.215,20.287,60.3,8.9a1.282,1.282,0,0,0-1.28-1.4H55.211a1.28,1.28,0,0,0-1.279,1.172c-.913,11.609-15.369,12-15.369,24.364Z" transform="translate(-6.729 -6.729)" fill="#dcf5f8"/>
      <circle id="Elipse_11663" data-name="Elipse 11663" cx="3.99" cy="3.99" r="3.99" transform="translate(68.541 0.771)" fill="#e94444"/>
      <circle id="Elipse_11664" data-name="Elipse 11664" cx="3.99" cy="3.99" r="3.99" transform="translate(68.541 15.135)" fill="#ffc344"/>
      <circle id="Elipse_11665" data-name="Elipse 11665" cx="3.99" cy="3.99" r="3.99" transform="translate(68.541 29.499)" fill="#80d261"/>
      <circle id="Elipse_11666" data-name="Elipse 11666" cx="3.99" cy="3.99" r="3.99" transform="translate(68.541 43.863)" fill="#ffc344"/>
      <path id="Trazado_897862" data-name="Trazado 897862" d="M407.089,9.407a3.992,3.992,0,0,1-4.532,6.047,3.99,3.99,0,1,0,4.532-6.047Z" transform="translate(-333.319 -8.44)" fill="#d83131"/>
      <path id="Trazado_897863" data-name="Trazado 897863" d="M407.089,149.188a3.992,3.992,0,0,1-4.532,6.047,3.99,3.99,0,1,0,4.532-6.047Z" transform="translate(-333.319 -133.857)" fill="#feb237"/>
      <path id="Trazado_897864" data-name="Trazado 897864" d="M407.089,288.97a3.992,3.992,0,0,1-4.532,6.047,3.99,3.99,0,1,0,4.532-6.047Z" transform="translate(-333.319 -259.275)" fill="#68ca44"/>
      <path id="Trazado_897865" data-name="Trazado 897865" d="M407.089,428.751a3.992,3.992,0,0,1-4.532,6.047,3.99,3.99,0,1,0,4.532-6.047Z" transform="translate(-333.319 -384.692)" fill="#feb237"/>
      <path id="Trazado_897866" data-name="Trazado 897866" d="M234.513,212.294V213.9a.257.257,0,0,1-.257.257h-8.805a.514.514,0,0,0-.514.514v3.76a.514.514,0,0,0,.514.514h8.805a.257.257,0,0,1,.257.257v1.609a.257.257,0,0,0,.415.2l5.437-4.26a.257.257,0,0,0,0-.4l-5.437-4.26A.257.257,0,0,0,234.513,212.294Z" transform="translate(-173.952 -190.247)" fill="#02c7dd"/>
      <path id="Trazado_897867" data-name="Trazado 897867" d="M46.416,38.482c-2.419-2-4.754-3.938-6.14-6.616H47.4a.771.771,0,1,0,0-1.541H39.618a11.985,11.985,0,0,1-.61-3.247H46.39a.771.771,0,0,0,0-1.541H39.008a11.986,11.986,0,0,1,.61-3.247H47.4a.771.771,0,0,0,0-1.541H40.275c1.387-2.678,3.721-4.612,6.14-6.616,3.623-3,7.369-6.1,7.918-11.892A2.054,2.054,0,0,0,52.287,0H48.481a2.059,2.059,0,0,0-2.048,1.883,12.713,12.713,0,0,1-.17,1.309H39.021a.771.771,0,1,0,0,1.541h6.847A11.721,11.721,0,0,1,44.154,7.98H35.662a.771.771,0,0,0,0,1.541h7.2l-.158.166a.771.771,0,0,0,1.109,1.07q.592-.614,1.1-1.237h1.686a.771.771,0,0,0,0-1.541h-.582a12.916,12.916,0,0,0,1.466-3.247h2.475a.771.771,0,0,0,0-1.541H47.827q.1-.583.143-1.189a.51.51,0,0,1,.511-.462h3.805A.512.512,0,0,1,52.8,2.1c-.489,5.153-3.83,7.92-7.367,10.85-2.666,2.208-5.394,4.468-6.87,7.8H36.23a.771.771,0,1,0,0,1.541H38a13.756,13.756,0,0,0-.533,3.247H35.218a.771.771,0,1,0,0,1.541h2.246A13.762,13.762,0,0,0,38,30.324H36.23a.771.771,0,1,0,0,1.541h2.332c1.476,3.335,4.2,5.595,6.87,7.8,3.537,2.93,6.878,5.7,7.367,10.85a.512.512,0,0,1-.513.554H48.481a.51.51,0,0,1-.511-.462q-.048-.614-.143-1.189h2.125a.771.771,0,0,0,0-1.541H47.481a12.791,12.791,0,0,0-1.46-3.247h.572a.771.771,0,1,0,0-1.541H44.913a34.4,34.4,0,0,0-4.881-4.611c-3.82-3.164-7.428-6.153-7.428-12.175s3.608-9.011,7.428-12.175q.492-.407.981-.816a.771.771,0,1,0-.992-1.18q-.484.407-.972.809c-3.926,3.252-7.986,6.615-7.986,13.362s4.06,10.109,7.986,13.362a42.4,42.4,0,0,1,3.815,3.424h-7.2a.771.771,0,0,0,0,1.541h8.5a11.718,11.718,0,0,1,1.706,3.247H39.021a.771.771,0,1,0,0,1.541h7.242a12.56,12.56,0,0,1,.171,1.31,2.059,2.059,0,0,0,2.048,1.882h3.805a2.054,2.054,0,0,0,2.047-2.241c-.549-5.788-4.3-8.891-7.918-11.892Z" transform="translate(0 0)"/>
      <path id="Trazado_897868" data-name="Trazado 897868" d="M397.8,19.125A4.764,4.764,0,0,0,395.409,15V13.736a.771.771,0,0,0-1.541,0v.7a4.79,4.79,0,0,0-1.651,0V9.45a4.79,4.79,0,0,0,1.651,0v.69a.771.771,0,0,0,1.541,0V8.891a4.761,4.761,0,1,0-4.734,0V15a4.759,4.759,0,0,0,0,8.259v6.1a4.759,4.759,0,0,0,0,8.259v6.1a4.761,4.761,0,1,0,4.733,0v-6.1a4.759,4.759,0,0,0,0-8.259v-6.1a4.763,4.763,0,0,0,2.394-4.13ZM393.042,1.541a3.219,3.219,0,1,1-3.219,3.219A3.223,3.223,0,0,1,393.042,1.541Zm0,14.364a3.219,3.219,0,1,1-3.219,3.219A3.223,3.223,0,0,1,393.042,15.906Zm0,35.167a3.219,3.219,0,1,1,3.219-3.219A3.223,3.223,0,0,1,393.042,51.073Zm.825-7.908a4.791,4.791,0,0,0-1.651,0V38.178a4.791,4.791,0,0,0,1.651,0Zm-.825-6.456a3.219,3.219,0,1,1,3.219-3.219A3.223,3.223,0,0,1,393.042,36.709Zm.825-7.908a4.791,4.791,0,0,0-1.651,0V23.814a4.79,4.79,0,0,0,1.651,0Z" transform="translate(-320.51)"/>
      <path id="Trazado_897869" data-name="Trazado 897869" d="M234.112,209.01l-5.437-4.26a1.028,1.028,0,0,0-1.662.809v1.1h-8.292a1.286,1.286,0,0,0-1.285,1.285v3.76a1.286,1.286,0,0,0,1.285,1.285h4.586a.771.771,0,1,0,0-1.541h-4.329V208.2h8.549a1.029,1.029,0,0,0,1.028-1.028v-.554l4.09,3.2-4.09,3.2v-.554a1.029,1.029,0,0,0-1.028-1.028H226.9a.771.771,0,0,0,0,1.541h.109v1.1a1.028,1.028,0,0,0,1.661.809l5.437-4.26a1.028,1.028,0,0,0,0-1.618Z" transform="translate(-167.223 -183.512)"/>
    </g>
  </g>
</svg>
