<svg xmlns="http://www.w3.org/2000/svg" width="63" height="63" viewBox="0 0 63 63">
  <g id="Grupo_1108294" data-name="Grupo 1108294" transform="translate(-1019 -6764)">
    <g id="Grupo_1098742" data-name="Grupo 1098742" transform="translate(1019.445 6764.445)">
      <rect id="Rect치ngulo_400898" data-name="Rect치ngulo 400898" width="63" height="63" rx="31.5" transform="translate(-0.445 -0.445)" fill="#ff7c32" opacity="0.859"/>
      <rect id="Rect치ngulo_400907" data-name="Rect치ngulo 400907" width="63" height="63" rx="31.5" transform="translate(-0.446 -0.445)" fill="none"/>
    </g>
    <g id="vaca_1_" data-name="vaca (1)" transform="translate(1029.259 6776.112)">
      <path id="Trazado_894462" data-name="Trazado 894462" d="M404.774,139.274l-2.512-1.143,3.929-7.789,1.6.92a7.186,7.186,0,0,1,1.483,1.316l.386,1.335L407.9,138.77l-1.2.6A7.186,7.186,0,0,1,404.774,139.274Z" transform="translate(-368.887 -119.522)" fill="#f1cea1"/>
      <path id="Trazado_894463" data-name="Trazado 894463" d="M456.8,159.667a14.825,14.825,0,0,0,1.561-2.376,7.244,7.244,0,0,1,1.239,2.068,3.307,3.307,0,0,1-1.95,4.313,7.254,7.254,0,0,1-1.863.411,21.613,21.613,0,0,0,.305-2.561,3.257,3.257,0,0,1,.709-1.854Z" transform="translate(-417.975 -144.234)" fill="#f5dcb8"/>
      <path id="Trazado_894464" data-name="Trazado 894464" d="M25.425,139.274l2.512-1.143-3.929-7.789-1.6.92a7.185,7.185,0,0,0-1.483,1.316l-.386,1.335L22.3,138.77l1.2.6A7.189,7.189,0,0,0,25.425,139.274Z" transform="translate(-18.831 -119.522)" fill="#f1cea1"/>
      <path id="Trazado_894465" data-name="Trazado 894465" d="M10.536,159.667a14.825,14.825,0,0,1-1.561-2.376,7.244,7.244,0,0,0-1.239,2.068,3.307,3.307,0,0,0,1.95,4.313,7.254,7.254,0,0,0,1.863.411,21.616,21.616,0,0,1-.305-2.561A3.257,3.257,0,0,0,10.536,159.667Z" transform="translate(-6.884 -144.234)" fill="#f5dcb8"/>
      <path id="Trazado_894466" data-name="Trazado 894466" d="M31.855,8.186a1.159,1.159,0,0,1,2.2.331,9.475,9.475,0,0,0,2.081,4.869l.35,1.63L33.62,20.4l-1.1-.046a12.166,12.166,0,0,1-1-1.725A12.083,12.083,0,0,1,31.855,8.186Z" transform="translate(-27.947 -6.885)" fill="#5b586d"/>
      <path id="Trazado_894467" data-name="Trazado 894467" d="M58.732,78.265a7.635,7.635,0,0,0,1.426,1.283l1.344.823-3.553,7.643L56.81,87.25a14.752,14.752,0,0,1-1.692-2.019A12.933,12.933,0,0,1,58.732,78.265Z" transform="translate(-50.544 -71.765)" fill="#4f4d5e"/>
      <path id="Trazado_894468" data-name="Trazado 894468" d="M198.05,74.389l-13.078-10.5c-8.117,3.139-8.365,13.135-5.84,19.605l13.091,5.219H194.5a28.157,28.157,0,0,0,3.553-7.231V74.389Z" transform="translate(-162.973 -58.581)" fill="#f9ecca"/>
      <path id="Trazado_894469" data-name="Trazado 894469" d="M90.286,70.685h-.145a3.675,3.675,0,0,1-3.693-2.954,18.857,18.857,0,0,1,4.6-16.3l-.759-.609-4.373-.518a14.4,14.4,0,0,0-7.254,3.6A11.551,11.551,0,0,0,75.3,62.85c.008.009,8.441,15.124,8.448,15.133H99.259c.458-.545.895-1.122,1.31-1.722C98.742,72.885,94.759,70.685,90.286,70.685Z" transform="translate(-69.045 -46.128)" fill="#f5dcb8"/>
      <path id="Trazado_894470" data-name="Trazado 894470" d="M188.072,329.521a6.409,6.409,0,0,0-.433-2.314,8.854,8.854,0,0,0-6.566-5.126c-5.406,0-9.4,3.721-9.4,7.44,0,3.57,3.5,7.441,9.4,7.441C185.1,336.092,188.072,333.091,188.072,329.521Z" transform="translate(-157.425 -295.352)" fill="#f5dbcd"/>
      <path id="Trazado_894471" data-name="Trazado 894471" d="M147.445,326.694a7.4,7.4,0,0,1,3.983-6.288,10.412,10.412,0,0,1,3.016-1.152,11.4,11.4,0,0,0-2.407-.256,10.84,10.84,0,0,0-5.424,1.408,7.4,7.4,0,0,0-3.983,6.288c0,4.251,4.212,7.7,9.406,7.7a11.4,11.4,0,0,0,2.407-.255C150.415,333.266,147.445,330.264,147.445,326.694Z" transform="translate(-130.796 -292.526)" fill="#f0c9bc"/>
      <path id="Trazado_894472" data-name="Trazado 894472" d="M288.948,402.9c.61.61.412,1.8-.441,2.651s-2.041,1.051-2.651.441-.412-1.8.441-2.651S288.339,402.29,288.948,402.9Z" transform="translate(-261.814 -369.14)" fill="#edbbb0"/>
      <path id="Trazado_894473" data-name="Trazado 894473" d="M191.977,406.515c.611-.61.412-1.8-.441-2.651a2.725,2.725,0,0,0-1.308-.748l-.988.51.75,2.541.957.7A1.313,1.313,0,0,0,191.977,406.515Z" transform="translate(-173.538 -369.664)" fill="#f0c9bc"/>
      <path id="Trazado_894474" data-name="Trazado 894474" d="M182.4,402.6a1.418,1.418,0,0,0-1.342.307c-.61.61-.412,1.8.441,2.651a2.587,2.587,0,0,0,1.62.792,6.494,6.494,0,0,1-.759-3.033A6.39,6.39,0,0,1,182.4,402.6Z" transform="translate(-165.71 -369.143)" fill="#edbbb0"/>
      <path id="Trazado_894475" data-name="Trazado 894475" d="M413.751,8.185a1.159,1.159,0,0,0-2.2.331,9.476,9.476,0,0,1-2.081,4.869l-.35,1.63,2.865,5.381,1.1-.046a12.169,12.169,0,0,0,1-1.725A12.083,12.083,0,0,0,413.751,8.185Z" transform="translate(-375.178 -6.885)" fill="#5b586d"/>
      <path id="Trazado_894476" data-name="Trazado 894476" d="M382.723,78.265a7.635,7.635,0,0,1-1.426,1.283l-1.344.823,3.553,7.643,1.139-.765a14.753,14.753,0,0,0,1.692-2.019A12.934,12.934,0,0,0,382.723,78.265Z" transform="translate(-348.429 -71.765)" fill="#4f4d5e"/>
      <path id="Trazado_894477" data-name="Trazado 894477" d="M232.514,53.5a5.8,5.8,0,0,1,5.051,5.753,5.8,5.8,0,0,0,1.7,4.1l2.141,2.141a25.466,25.466,0,0,0,.81-3.149,19.089,19.089,0,0,0,.348-3.5c0-.259-.007-.513-.019-.765a11.234,11.234,0,0,0-3.348-7.7,15.421,15.421,0,0,0-9.391-3.922c-3.76.12-5.881,1.809-4.258,5.4a5.784,5.784,0,0,0,2.7,1.089Z" transform="translate(-206.329 -42.595)" fill="#e59b70"/>
      <path id="Trazado_894478" data-name="Trazado 894478" d="M209.905,45.274q-1.095-.106-2.237-.107a21.785,21.785,0,0,0-4.373.427v.415a5.8,5.8,0,0,0,2.352,4.664A18.9,18.9,0,0,1,209.905,45.274Z" transform="translate(-186.428 -41.413)" fill="#dc7f57"/>
      <path id="Trazado_894479" data-name="Trazado 894479" d="M82.411,210.39l2.513,2.235a8.008,8.008,0,0,0-3.549,3.974A27.524,27.524,0,0,1,75.7,204.5a19.745,19.745,0,0,1-.342-3.031l3.5,2.039a4.274,4.274,0,0,1,2.12,3.691,4.269,4.269,0,0,0,1.434,3.194Z" transform="translate(-69.107 -184.744)" fill="#dc7f57"/>
      <path id="Trazado_894480" data-name="Trazado 894480" d="M42.209,14.9a7.8,7.8,0,0,0-2.528-3.368,12.834,12.834,0,0,0-.544-10.494,1.781,1.781,0,0,0-3.378.5A8.181,8.181,0,0,1,32.91,6.974a13.753,13.753,0,0,0-3.829-2.38A.622.622,0,1,0,28.6,5.741a10.754,10.754,0,0,1,7,9.775,17.616,17.616,0,0,1-.319,4.122h0c-.094.518-.274,1.313-.493,2.089l-1.406-1.406a5.179,5.179,0,0,1-1.517-3.663,6.441,6.441,0,0,0-5.593-6.37L22,9.732A5.193,5.193,0,0,1,17.492,4.7a21.519,21.519,0,0,1,3.749-.318,20.9,20.9,0,0,1,4.684.508.622.622,0,0,0,.28-1.213,22.146,22.146,0,0,0-4.964-.54,22.43,22.43,0,0,0-4.5.439h-.007a15.341,15.341,0,0,0-7.166,3.4A8.181,8.181,0,0,1,6.722,1.541a1.781,1.781,0,0,0-3.378-.5A12.834,12.834,0,0,0,2.8,11.531,7.8,7.8,0,0,0,.272,14.9a3.927,3.927,0,0,0,2.317,5.124,7.827,7.827,0,0,0,3.512.429A28.434,28.434,0,0,0,8.333,26.86a.622.622,0,0,0,1.119-.544,25.625,25.625,0,0,1-2.5-8.467L9.436,19.3a3.664,3.664,0,0,1,1.811,3.154,4.889,4.889,0,0,0,1.643,3.659l1.9,1.689a8.765,8.765,0,0,0-2.66,2.888c-.452-.59-.888-1.219-1.3-1.879a.622.622,0,1,0-1.055.66,24.74,24.74,0,0,0,1.791,2.512,7.012,7.012,0,0,0-.351,2.189c0,4.587,4.5,8.319,10.029,8.319S31.27,38.756,31.27,34.169a7.012,7.012,0,0,0-.352-2.191A28.251,28.251,0,0,0,36.38,20.451a7.829,7.829,0,0,0,3.512-.429A3.929,3.929,0,0,0,42.209,14.9ZM36.991,1.721a.525.525,0,0,1,.457-.462.517.517,0,0,1,.562.3,11.519,11.519,0,0,1,.335,9.912,12.158,12.158,0,0,1-1.65,2.56A11.553,11.553,0,0,0,33.8,7.854a9.554,9.554,0,0,0,3.19-6.133ZM4.472,1.564a.517.517,0,0,1,.562-.3.526.526,0,0,1,.457.462,9.554,9.554,0,0,0,3.19,6.133,11.553,11.553,0,0,0-2.894,6.182,12.162,12.162,0,0,1-1.65-2.56,11.518,11.518,0,0,1,.335-9.912ZM3.014,18.853a2.683,2.683,0,0,1-1.583-3.5A6.568,6.568,0,0,1,3.356,12.68a14.448,14.448,0,0,0,2.278,3.049,18.111,18.111,0,0,0,.239,3.5,6.616,6.616,0,0,1-2.858-.371Zm9.477,3.6a4.914,4.914,0,0,0-2.429-4.229L6.869,16.361a10.809,10.809,0,0,1,3.179-8.131,13.494,13.494,0,0,1,6.209-3.27,6.442,6.442,0,0,0,5.582,6.006l4.267.556a5.193,5.193,0,0,1,4.51,5.136A6.423,6.423,0,0,0,32.5,21.2l1.868,1.868a27,27,0,0,1-4.011,7.616c-2.546-4.608-9.4-6.2-14.45-3.559l-2.186-1.944a3.645,3.645,0,0,1-1.225-2.728Zm8.749,18.79c-4.844,0-8.784-3.173-8.784-7.074,0-3.916,3.961-7.073,8.784-7.073,3.873,0,7.246,2,8.392,4.983h0v0a5.794,5.794,0,0,1,.39,2.087c0,3.9-3.941,7.074-8.784,7.074Zm18.226-22.39a6.615,6.615,0,0,1-2.858.371,18.345,18.345,0,0,0,.239-3.5,14.453,14.453,0,0,0,2.278-3.049,6.568,6.568,0,0,1,1.925,2.672,2.683,2.683,0,0,1-1.583,3.5Z" transform="translate(0)"/>
      <path id="Trazado_894481" data-name="Trazado 894481" d="M177.222,395.974c-1.114-1.114-2.664-1.307-3.531-.441s-.672,2.417.442,3.531a3.137,3.137,0,0,0,2.16.982,1.876,1.876,0,0,0,1.873-2.316A3.3,3.3,0,0,0,177.222,395.974Zm-.439,2.651c-.314.314-1.119.21-1.771-.441s-.756-1.456-.441-1.771a.685.685,0,0,1,.493-.171,2.169,2.169,0,0,1,1.874,1.692A2.457,2.457,0,0,1,176.783,398.625Z" transform="translate(-158.784 -362.214)"/>
      <path id="Trazado_894482" data-name="Trazado 894482" d="M278.981,395.974a3.3,3.3,0,0,0-.944,1.754,1.876,1.876,0,0,0,1.873,2.316,3.139,3.139,0,0,0,2.16-.982c1.114-1.114,1.308-2.665.441-3.531S280.1,394.861,278.981,395.974Zm2.209,2.209c-.652.652-1.457.756-1.771.442a.725.725,0,0,1-.155-.691,2.169,2.169,0,0,1,1.874-1.692.685.685,0,0,1,.493.171C281.946,396.727,281.842,397.532,281.191,398.183Z" transform="translate(-254.938 -362.214)"/>
      <path id="Trazado_894483" data-name="Trazado 894483" d="M174.1,191.355a.622.622,0,0,0-.622.622v1a.622.622,0,0,0,1.245,0v-1A.622.622,0,0,0,174.1,191.355Z" transform="translate(-159.082 -175.472)"/>
      <path id="Trazado_894484" data-name="Trazado 894484" d="M324.161,193.6a.622.622,0,0,0,.622-.622v-1a.622.622,0,0,0-1.245,0v1A.622.622,0,0,0,324.161,193.6Z" transform="translate(-296.695 -175.472)"/>
    </g>
  </g>
</svg>
